<svg version="1.1" xmlns="http://www.w3.org/2000/svg" xmlns:xlink="http://www.w3.org/1999/xlink" width="468" height="379"><defs/><g><g transform="translate(-150,-150) scale(1,1)"><path fill="#ffffff" stroke="none" d="M 384.82072727272725 329.68 C 384.82072727272725 324.886167936 388.70656959767274 321 393.5 321 C 398.29343040232726 321 402.17927272727275 324.886167936 402.17927272727275 329.68 C 402.17927272727275 334.473832064 398.29343040232726 338.36 393.5 338.36 C 388.70656959767274 338.36 384.82072727272725 334.473832064 384.82072727272725 329.68 Z"/></g><g transform="translate(-150,-150) scale(1,1)"><path fill="none" stroke="#000000" d="M 384.82072727272725 329.68 C 384.82072727272725 324.886167936 388.70656959767274 321 393.5 321 C 398.29343040232726 321 402.17927272727275 324.886167936 402.17927272727275 329.68 C 402.17927272727275 334.473832064 398.29343040232726 338.36 393.5 338.36 C 388.70656959767274 338.36 384.82072727272725 334.473832064 384.82072727272725 329.68 Z" stroke-miterlimit="10"/></g><g transform="translate(-150,-150) scale(1,1)"><path fill="none" stroke="#000000" d="M 393.5 338.36 L 393.5 355.64" stroke-miterlimit="10"/></g><g transform="translate(-150,-150) scale(1,1)"><path fill="none" stroke="#000000" d="M 384.31018181818183 344.84 L 402.68981818181817 344.84" stroke-miterlimit="10"/></g><g transform="translate(-150,-150) scale(1,1)"><path fill="none" stroke="#000000" d="M 393.5 355.64 L 380.73636363636365 373" stroke-miterlimit="10"/></g><g transform="translate(-150,-150) scale(1,1)"><path fill="none" stroke="#000000" d="M 393.5 355.64 L 406.26363636363635 373" stroke-miterlimit="10"/></g><g transform="translate(-150,-150) scale(1,1)"><g><path fill="none" stroke="none"/><text fill="#000000" stroke="none" font-family="Arial" font-size="13px" font-style="normal" font-weight="bold" text-decoration="none" x="380.5" y="393.5">用户</text></g></g><g transform="translate(-150,-150) scale(1,1)"><path fill="#C0C0C0" stroke="none" d="M 426 266.5 C 426 251.31216799999999 457.340064 239 496 239 C 534.659936 239 566 251.31216799999999 566 266.5 C 566 281.687832 534.659936 294 496 294 C 457.340064 294 426 281.687832 426 266.5 Z" opacity="0.2"/></g><g transform="translate(-150,-150) scale(1,1)"><path fill="#ffffff" stroke="none" d="M 419 259.5 C 419 244.31216799999999 450.340064 232 489 232 C 527.659936 232 559 244.31216799999999 559 259.5 C 559 274.687832 527.659936 287 489 287 C 450.340064 287 419 274.687832 419 259.5 Z"/></g><g transform="translate(-150,-150) scale(1,1)"><path fill="none" stroke="#000000" d="M 419 259.5 C 419 244.31216799999999 450.340064 232 489 232 C 527.659936 232 559 244.31216799999999 559 259.5 C 559 274.687832 527.659936 287 489 287 C 450.340064 287 419 274.687832 419 259.5 Z" stroke-miterlimit="10"/></g><g transform="translate(-150,-150) scale(1,1)"><g><path fill="none" stroke="none"/><text fill="#000000" stroke="none" font-family="Arial" font-size="13px" font-style="normal" font-weight="bold" text-decoration="none" x="450" y="259">记录精力曲线</text></g></g><g transform="translate(-150,-150) scale(1,1)"><g><path fill="none" stroke="none"/><text fill="#000000" stroke="none" font-family="Arial" font-size="13px" font-style="normal" font-weight="normal" text-decoration="none" x="443.864990234375" y="274">(from 精力曲线)</text></g></g><g transform="translate(-150,-150) scale(1,1)"><path fill="#C0C0C0" stroke="none" d="M 455 498.5 C 455 483.312168 490.81721600000003 471 535 471 C 579.182784 471 615 483.312168 615 498.5 C 615 513.687832 579.182784 526 535 526 C 490.81721600000003 526 455 513.687832 455 498.5 Z" opacity="0.2"/></g><g transform="translate(-150,-150) scale(1,1)"><path fill="#ffffff" stroke="none" d="M 448 491.5 C 448 476.312168 483.81721600000003 464 528 464 C 572.182784 464 608 476.312168 608 491.5 C 608 506.687832 572.182784 519 528 519 C 483.81721600000003 519 448 506.687832 448 491.5 Z"/></g><g transform="translate(-150,-150) scale(1,1)"><path fill="none" stroke="#000000" d="M 448 491.5 C 448 476.312168 483.81721600000003 464 528 464 C 572.182784 464 608 476.312168 608 491.5 C 608 506.687832 572.182784 519 528 519 C 483.81721600000003 519 448 506.687832 448 491.5 Z" stroke-miterlimit="10"/></g><g transform="translate(-150,-150) scale(1,1)"><g><path fill="none" stroke="none"/><text fill="#000000" stroke="none" font-family="Arial" font-size="13px" font-style="normal" font-weight="bold" text-decoration="none" x="476" y="491">管理精力曲线数据</text></g></g><g transform="translate(-150,-150) scale(1,1)"><g><path fill="none" stroke="none"/><text fill="#000000" stroke="none" font-family="Arial" font-size="13px" font-style="normal" font-weight="normal" text-decoration="none" x="482.864990234375" y="506">(from 精力曲线)</text></g></g><g transform="translate(-150,-150) scale(1,1)"><path fill="#C0C0C0" stroke="none" d="M 167 426.5 C 167 411.312168 198.56392160000001 399 237.5 399 C 276.4360784 399 308 411.312168 308 426.5 C 308 441.687832 276.4360784 454 237.5 454 C 198.56392160000001 454 167 441.687832 167 426.5 Z" opacity="0.2"/></g><g transform="translate(-150,-150) scale(1,1)"><path fill="#ffffff" stroke="none" d="M 160 419.5 C 160 404.312168 191.56392160000001 392 230.5 392 C 269.4360784 392 301 404.312168 301 419.5 C 301 434.687832 269.4360784 447 230.5 447 C 191.56392160000001 447 160 434.687832 160 419.5 Z"/></g><g transform="translate(-150,-150) scale(1,1)"><path fill="none" stroke="#000000" d="M 160 419.5 C 160 404.312168 191.56392160000001 392 230.5 392 C 269.4360784 392 301 404.312168 301 419.5 C 301 434.687832 269.4360784 447 230.5 447 C 191.56392160000001 447 160 434.687832 160 419.5 Z" stroke-miterlimit="10"/></g><g transform="translate(-150,-150) scale(1,1)"><g><path fill="none" stroke="none"/><text fill="#000000" stroke="none" font-family="Arial" font-size="13px" font-style="normal" font-weight="bold" text-decoration="none" x="185" y="419">精力曲线可视化</text></g></g><g transform="translate(-150,-150) scale(1,1)"><g><path fill="none" stroke="none"/><text fill="#000000" stroke="none" font-family="Arial" font-size="13px" font-style="normal" font-weight="normal" text-decoration="none" x="185.364990234375" y="434">(from 精力曲线)</text></g></g><g transform="translate(-150,-150) scale(1,1)"><path fill="none" stroke="#000000" d="M 412 339 L 461 288" stroke-miterlimit="10"/></g><g transform="translate(-150,-150) scale(1,1)"><path fill="none" stroke="#000000" d="M 456.9945367536925 298.244816454309 L 461 288 L 450.9235305898891 292.4118889635959" stroke-miterlimit="10"/></g><g transform="translate(-150,-150) scale(1,1)"><path fill="none" stroke="#000000" d="M 375 366 L 302 392" stroke-miterlimit="10"/></g><g transform="translate(-150,-150) scale(1,1)"><path fill="none" stroke="#000000" d="M 310.16120803314425 384.6247248566754 L 302 392 L 312.98595260987184 392.555738475949" stroke-miterlimit="10"/></g><g transform="translate(-150,-150) scale(1,1)"><path fill="none" stroke="#000000" d="M 412 378 L 499 463" stroke-miterlimit="10"/></g><g transform="translate(-150,-150) scale(1,1)"><path fill="none" stroke="#000000" d="M 488.7890675391646 458.9089294457004 L 499 463 L 494.6726041459633 452.8869566834476" stroke-miterlimit="10"/></g><g transform="translate(-150,-150) scale(1,1)"><path fill="#C0C0C0" stroke="none" d="M 263 184 C 263 174.6111584 282.25175360000003 167 306 167 C 329.74824639999997 167 349 174.6111584 349 184 C 349 193.3888416 329.74824639999997 201 306 201 C 282.25175360000003 201 263 193.3888416 263 184 Z" opacity="0.2"/></g><g transform="translate(-150,-150) scale(1,1)"><path fill="#ffffff" stroke="none" d="M 256 177 C 256 167.6111584 275.25175360000003 160 299 160 C 322.74824639999997 160 342 167.6111584 342 177 C 342 186.3888416 322.74824639999997 194 299 194 C 275.25175360000003 194 256 186.3888416 256 177 Z"/></g><g transform="translate(-150,-150) scale(1,1)"><path fill="none" stroke="#000000" d="M 256 177 C 256 167.6111584 275.25175360000003 160 299 160 C 322.74824639999997 160 342 167.6111584 342 177 C 342 186.3888416 322.74824639999997 194 299 194 C 275.25175360000003 194 256 186.3888416 256 177 Z" stroke-miterlimit="10"/></g><g transform="translate(-150,-150) scale(1,1)"><g><path fill="none" stroke="none"/><text fill="#000000" stroke="none" font-family="Arial" font-size="13px" font-style="normal" font-weight="bold" text-decoration="none" x="273" y="184">用户登陆</text></g></g><g transform="translate(-150,-150) scale(1,1)"><path fill="none" stroke="#000000" d="M 424 231 L 341 195" stroke-miterlimit="10" stroke-dasharray="3"/></g><g transform="translate(-150,-150) scale(1,1)"><path fill="none" stroke="#000000" d="M 351.998494150655 195.18200664275818 L 341 195 L 348.6484116654534 202.90580792808402" stroke-miterlimit="10"/></g><g transform="translate(-150,-150) scale(1,1)"><g><path fill="none" stroke="none"/><text fill="#000000" stroke="none" font-family="Arial" font-size="13px" font-style="normal" font-weight="normal" text-decoration="none" x="341.5" y="246.5">«include»</text></g></g></g></svg>