<svg version="1.1" xmlns="http://www.w3.org/2000/svg" xmlns:xlink="http://www.w3.org/1999/xlink" width="666" height="436"><defs/><g><g transform="translate(-178,-30) scale(1,1)"><rect fill="#C0C0C0" stroke="none" x="195" y="47" width="69" height="39" opacity="0.2"/></g><g transform="translate(-178,-30) scale(1,1)"><rect fill="#FFFFB9" stroke="none" x="188" y="40" width="69" height="39"/></g><g transform="translate(-178,-30) scale(1,1)"><path fill="none" stroke="#800000" d="M 188 40 L 257 40 L 257 79 L 188 79 L 188 40 Z Z" stroke-miterlimit="10"/></g><g transform="translate(-178,-30) scale(1,1)"><g><path fill="none" stroke="none"/><text fill="#000000" stroke="none" font-family="Arial" font-size="11px" font-style="normal" font-weight="bold" text-decoration="none" x="211.5" y="57.5">用户</text></g></g><g transform="translate(-178,-30) scale(1,1)"><path fill="none" stroke="#000000" d="M 223.5 80 L 223.5 456" stroke-miterlimit="10" stroke-dasharray="3"/></g><g transform="translate(-178,-30) scale(1,1)"><rect fill="#C0C0C0" stroke="none" x="343" y="47" width="69" height="39" opacity="0.2"/></g><g transform="translate(-178,-30) scale(1,1)"><rect fill="#FFFFB9" stroke="none" x="336" y="40" width="69" height="39"/></g><g transform="translate(-178,-30) scale(1,1)"><path fill="none" stroke="#800000" d="M 336 40 L 405 40 L 405 79 L 336 79 L 336 40 Z Z" stroke-miterlimit="10"/></g><g transform="translate(-178,-30) scale(1,1)"><g><path fill="none" stroke="none"/><text fill="#000000" stroke="none" font-family="Arial" font-size="11px" font-style="normal" font-weight="bold" text-decoration="none" x="354" y="57.5">主界面</text></g></g><g transform="translate(-178,-30) scale(1,1)"><path fill="none" stroke="#000000" d="M 371.5 80 L 371.5 456" stroke-miterlimit="10" stroke-dasharray="3"/></g><g transform="translate(-178,-30) scale(1,1)"><rect fill="#C0C0C0" stroke="none" x="499" y="47" width="69" height="39" opacity="0.2"/></g><g transform="translate(-178,-30) scale(1,1)"><rect fill="#FFFFB9" stroke="none" x="492" y="40" width="69" height="39"/></g><g transform="translate(-178,-30) scale(1,1)"><path fill="none" stroke="#800000" d="M 492 40 L 561 40 L 561 79 L 492 79 L 492 40 Z Z" stroke-miterlimit="10"/></g><g transform="translate(-178,-30) scale(1,1)"><g><path fill="none" stroke="none"/><text fill="#000000" stroke="none" font-family="Arial" font-size="11px" font-style="normal" font-weight="bold" text-decoration="none" x="504.5" y="57.5">精力曲线</text></g></g><g transform="translate(-178,-30) scale(1,1)"><path fill="none" stroke="#000000" d="M 527.5 80 L 527.5 456" stroke-miterlimit="10" stroke-dasharray="3"/></g><g transform="translate(-178,-30) scale(1,1)"><rect fill="#C0C0C0" stroke="none" x="639" y="47" width="74" height="39" opacity="0.2"/></g><g transform="translate(-178,-30) scale(1,1)"><rect fill="#FFFFB9" stroke="none" x="632" y="40" width="74" height="39"/></g><g transform="translate(-178,-30) scale(1,1)"><path fill="none" stroke="#800000" d="M 632 40 L 706 40 L 706 79 L 632 79 L 632 40 Z Z" stroke-miterlimit="10"/></g><g transform="translate(-178,-30) scale(1,1)"><g><path fill="none" stroke="none"/><text fill="#000000" stroke="none" font-family="Arial" font-size="11px" font-style="normal" font-weight="bold" text-decoration="none" x="641.5" y="57.5">数据库服务</text></g></g><g transform="translate(-178,-30) scale(1,1)"><path fill="none" stroke="#000000" d="M 670.5 80 L 670.5 456" stroke-miterlimit="10" stroke-dasharray="3"/></g><g transform="translate(-178,-30) scale(1,1)"><rect fill="#C0C0C0" stroke="none" x="767" y="47" width="74" height="39" opacity="0.2"/></g><g transform="translate(-178,-30) scale(1,1)"><rect fill="#FFFFB9" stroke="none" x="760" y="40" width="74" height="39"/></g><g transform="translate(-178,-30) scale(1,1)"><path fill="none" stroke="#800000" d="M 760 40 L 834 40 L 834 79 L 760 79 L 760 40 Z Z" stroke-miterlimit="10"/></g><g transform="translate(-178,-30) scale(1,1)"><g><path fill="none" stroke="none"/><text fill="#000000" stroke="none" font-family="Arial" font-size="11px" font-style="normal" font-weight="bold" text-decoration="none" x="769.5" y="57.5">精力曲线表</text></g></g><g transform="translate(-178,-30) scale(1,1)"><path fill="none" stroke="#000000" d="M 798.5 80 L 798.5 448" stroke-miterlimit="10" stroke-dasharray="3"/></g><g transform="translate(-178,-30) scale(1,1)"><path fill="none" stroke="#800000" d="M 223 112 L 364 112" stroke-miterlimit="10"/></g><g transform="translate(-178,-30) scale(1,1)"><path fill="#800000" stroke="none" d="M 353.83732514237585 116.20951775601598 L 364 112 L 353.83732514237585 107.79048224398402"/></g><g transform="translate(-178,-30) scale(1,1)"><path fill="none" stroke="#800000" d="M 353.83732514237585 116.20951775601598 L 364 112 L 353.83732514237585 107.79048224398402 L 353.83732514237585 116.20951775601598" stroke-miterlimit="10"/></g><g transform="translate(-178,-30) scale(1,1)"><g><path fill="none" stroke="none"/><text fill="#000000" stroke="none" font-family="Arial" font-size="11px" font-style="normal" font-weight="normal" text-decoration="none" x="256.5" y="107.5">1 : 打开主界面</text></g></g><g transform="translate(-178,-30) scale(1,1)"><rect fill="#FFFFFF" stroke="none" x="364" y="112" width="13" height="40"/></g><g transform="translate(-178,-30) scale(1,1)"><path fill="none" stroke="#000000" d="M 364 112 L 377 112 L 377 152 L 364 152 L 364 112 Z Z" stroke-miterlimit="10"/></g><g transform="translate(-178,-30) scale(1,1)"><path fill="none" stroke="#800000" d="M 377 128 L 520 128" stroke-miterlimit="10"/></g><g transform="translate(-178,-30) scale(1,1)"><path fill="#800000" stroke="none" d="M 509.83732514237585 132.209517756016 L 520 128 L 509.83732514237585 123.79048224398402"/></g><g transform="translate(-178,-30) scale(1,1)"><path fill="none" stroke="#800000" d="M 509.83732514237585 132.209517756016 L 520 128 L 509.83732514237585 123.79048224398402 L 509.83732514237585 132.209517756016" stroke-miterlimit="10"/></g><g transform="translate(-178,-30) scale(1,1)"><g><path fill="none" stroke="none"/><text fill="#000000" stroke="none" font-family="Arial" font-size="11px" font-style="normal" font-weight="normal" text-decoration="none" x="400.5" y="123.5">2 : 初始化精力曲线</text></g></g><g transform="translate(-178,-30) scale(1,1)"><rect fill="#FFFFFF" stroke="none" x="520" y="128" width="13" height="64"/></g><g transform="translate(-178,-30) scale(1,1)"><path fill="none" stroke="#000000" d="M 520 128 L 533 128 L 533 192 L 520 192 L 520 128 Z Z" stroke-miterlimit="10"/></g><g transform="translate(-178,-30) scale(1,1)"><path fill="none" stroke="#800000" d="M 223 224 L 520 224" stroke-miterlimit="10"/></g><g transform="translate(-178,-30) scale(1,1)"><path fill="#800000" stroke="none" d="M 509.83732514237585 228.209517756016 L 520 224 L 509.83732514237585 219.790482243984"/></g><g transform="translate(-178,-30) scale(1,1)"><path fill="none" stroke="#800000" d="M 509.83732514237585 228.209517756016 L 520 224 L 509.83732514237585 219.790482243984 L 509.83732514237585 228.209517756016" stroke-miterlimit="10"/></g><g transform="translate(-178,-30) scale(1,1)"><g><path fill="none" stroke="none"/><text fill="#000000" stroke="none" font-family="Arial" font-size="11px" font-style="normal" font-weight="normal" text-decoration="none" x="318.5" y="219.5">3 : 添加精力曲线数据</text></g></g><g transform="translate(-178,-30) scale(1,1)"><rect fill="#FFFFFF" stroke="none" x="520" y="224" width="13" height="88"/></g><g transform="translate(-178,-30) scale(1,1)"><path fill="none" stroke="#000000" d="M 520 224 L 533 224 L 533 312 L 520 312 L 520 224 Z Z" stroke-miterlimit="10"/></g><g transform="translate(-178,-30) scale(1,1)"><path fill="none" stroke="#800000" d="M 533 240 L 563 240 L 563 260 L 540 260" stroke-miterlimit="10"/></g><g transform="translate(-178,-30) scale(1,1)"><path fill="#800000" stroke="none" d="M 550.1626748576241 255.790482243984 L 540 260 L 550.1626748576241 264.209517756016"/></g><g transform="translate(-178,-30) scale(1,1)"><path fill="none" stroke="#800000" d="M 550.1626748576241 255.790482243984 L 540 260 L 550.1626748576241 264.209517756016 L 550.1626748576241 255.790482243984" stroke-miterlimit="10"/></g><g transform="translate(-178,-30) scale(1,1)"><g><path fill="none" stroke="none"/><text fill="#000000" stroke="none" font-family="Arial" font-size="11px" font-style="normal" font-weight="normal" text-decoration="none" x="531.5" y="254.5">4 : 显示添加界面</text></g></g><g transform="translate(-178,-30) scale(1,1)"><rect fill="#FFFFFF" stroke="none" x="527" y="260" width="13" height="36"/></g><g transform="translate(-178,-30) scale(1,1)"><path fill="none" stroke="#000000" d="M 527 260 L 540 260 L 540 296 L 527 296 L 527 260 Z Z" stroke-miterlimit="10"/></g><g transform="translate(-178,-30) scale(1,1)"><path fill="none" stroke="#800000" d="M 223 336 L 520 336" stroke-miterlimit="10"/></g><g transform="translate(-178,-30) scale(1,1)"><path fill="#800000" stroke="none" d="M 509.83732514237585 340.209517756016 L 520 336 L 509.83732514237585 331.790482243984"/></g><g transform="translate(-178,-30) scale(1,1)"><path fill="none" stroke="#800000" d="M 509.83732514237585 340.209517756016 L 520 336 L 509.83732514237585 331.790482243984 L 509.83732514237585 340.209517756016" stroke-miterlimit="10"/></g><g transform="translate(-178,-30) scale(1,1)"><g><path fill="none" stroke="none"/><text fill="#000000" stroke="none" font-family="Arial" font-size="11px" font-style="normal" font-weight="normal" text-decoration="none" x="329.5" y="331.5">5 : 填写精力数据</text></g></g><g transform="translate(-178,-30) scale(1,1)"><rect fill="#FFFFFF" stroke="none" x="520" y="336" width="13" height="96"/></g><g transform="translate(-178,-30) scale(1,1)"><path fill="none" stroke="#000000" d="M 520 336 L 533 336 L 533 432 L 520 432 L 520 336 Z Z" stroke-miterlimit="10"/></g><g transform="translate(-178,-30) scale(1,1)"><path fill="none" stroke="#800000" d="M 533 344 L 663 344" stroke-miterlimit="10"/></g><g transform="translate(-178,-30) scale(1,1)"><path fill="#800000" stroke="none" d="M 652.8373251423759 348.209517756016 L 663 344 L 652.8373251423758 339.790482243984"/></g><g transform="translate(-178,-30) scale(1,1)"><path fill="none" stroke="#800000" d="M 652.8373251423759 348.209517756016 L 663 344 L 652.8373251423758 339.790482243984 L 652.8373251423759 348.209517756016" stroke-miterlimit="10"/></g><g transform="translate(-178,-30) scale(1,1)"><g><path fill="none" stroke="none"/><text fill="#000000" stroke="none" font-family="Arial" font-size="11px" font-style="normal" font-weight="normal" text-decoration="none" x="551.5" y="337.5">6 : 提交精力数据</text></g></g><g transform="translate(-178,-30) scale(1,1)"><rect fill="#FFFFFF" stroke="none" x="663" y="344" width="13" height="80"/></g><g transform="translate(-178,-30) scale(1,1)"><path fill="none" stroke="#000000" d="M 663 344 L 676 344 L 676 424 L 663 424 L 663 344 Z Z" stroke-miterlimit="10"/></g><g transform="translate(-178,-30) scale(1,1)"><path fill="none" stroke="#800000" d="M 676 360 L 791 360" stroke-miterlimit="10"/></g><g transform="translate(-178,-30) scale(1,1)"><path fill="#800000" stroke="none" d="M 780.8373251423759 364.209517756016 L 791 360 L 780.8373251423758 355.790482243984"/></g><g transform="translate(-178,-30) scale(1,1)"><path fill="none" stroke="#800000" d="M 780.8373251423759 364.209517756016 L 791 360 L 780.8373251423758 355.790482243984 L 780.8373251423759 364.209517756016" stroke-miterlimit="10"/></g><g transform="translate(-178,-30) scale(1,1)"><g><path fill="none" stroke="none"/><text fill="#000000" stroke="none" font-family="Arial" font-size="11px" font-style="normal" font-weight="normal" text-decoration="none" x="691.5" y="355.5">7 : 保存精力数据</text></g></g><g transform="translate(-178,-30) scale(1,1)"><rect fill="#FFFFFF" stroke="none" x="791" y="360" width="13" height="48"/></g><g transform="translate(-178,-30) scale(1,1)"><path fill="none" stroke="#000000" d="M 791 360 L 804 360 L 804 408 L 791 408 L 791 360 Z Z" stroke-miterlimit="10"/></g><g transform="translate(-178,-30) scale(1,1)"><path fill="none" stroke="#800000" d="M 791 392 L 676 392" stroke-miterlimit="10" stroke-dasharray="3"/></g><g transform="translate(-178,-30) scale(1,1)"><path fill="none" stroke="#800000" d="M 686.1626748576241 387.790482243984 L 676 392 L 686.1626748576241 396.209517756016" stroke-miterlimit="10"/></g><g transform="translate(-178,-30) scale(1,1)"><g><path fill="none" stroke="none"/><text fill="#000000" stroke="none" font-family="Arial" font-size="11px" font-style="normal" font-weight="normal" text-decoration="none" x="692.5" y="407.5">8 : 返回添加结果</text></g></g><g transform="translate(-178,-30) scale(1,1)"><path fill="none" stroke="#800000" d="M 663 416 L 533 416" stroke-miterlimit="10" stroke-dasharray="3"/></g><g transform="translate(-178,-30) scale(1,1)"><path fill="none" stroke="#800000" d="M 543.1626748576241 411.790482243984 L 533 416 L 543.1626748576241 420.209517756016" stroke-miterlimit="10"/></g><g transform="translate(-178,-30) scale(1,1)"><g><path fill="none" stroke="none"/><text fill="#000000" stroke="none" font-family="Arial" font-size="11px" font-style="normal" font-weight="normal" text-decoration="none" x="557.5" y="431.5">9 : 更新精力曲线</text></g></g></g></svg>