<svg version="1.1" xmlns="http://www.w3.org/2000/svg" xmlns:xlink="http://www.w3.org/1999/xlink" width="490" height="491"><defs/><g><g transform="translate(-166,-126) scale(1,1)"><path fill="#ffffff" stroke="none" d="M 184.82072727272728 321.68 C 184.82072727272728 316.886167936 188.70656959767274 313 193.5 313 C 198.29343040232726 313 202.17927272727272 316.886167936 202.17927272727272 321.68 C 202.17927272727272 326.473832064 198.29343040232726 330.36 193.5 330.36 C 188.70656959767274 330.36 184.82072727272728 326.473832064 184.82072727272728 321.68 Z"/></g><g transform="translate(-166,-126) scale(1,1)"><path fill="none" stroke="#000000" d="M 184.82072727272728 321.68 C 184.82072727272728 316.886167936 188.70656959767274 313 193.5 313 C 198.29343040232726 313 202.17927272727272 316.886167936 202.17927272727272 321.68 C 202.17927272727272 326.473832064 198.29343040232726 330.36 193.5 330.36 C 188.70656959767274 330.36 184.82072727272728 326.473832064 184.82072727272728 321.68 Z" stroke-miterlimit="10"/></g><g transform="translate(-166,-126) scale(1,1)"><path fill="none" stroke="#000000" d="M 193.5 330.36 L 193.5 347.64" stroke-miterlimit="10"/></g><g transform="translate(-166,-126) scale(1,1)"><path fill="none" stroke="#000000" d="M 184.31018181818183 336.84 L 202.68981818181817 336.84" stroke-miterlimit="10"/></g><g transform="translate(-166,-126) scale(1,1)"><path fill="none" stroke="#000000" d="M 193.5 347.64 L 180.73636363636365 365" stroke-miterlimit="10"/></g><g transform="translate(-166,-126) scale(1,1)"><path fill="none" stroke="#000000" d="M 193.5 347.64 L 206.26363636363635 365" stroke-miterlimit="10"/></g><g transform="translate(-166,-126) scale(1,1)"><g><path fill="none" stroke="none"/><text fill="#000000" stroke="none" font-family="Arial" font-size="13px" font-style="normal" font-weight="bold" text-decoration="none" x="180.5" y="385.5">用户</text></g></g><g transform="translate(-166,-126) scale(1,1)"><path fill="#C0C0C0" stroke="none" d="M 359 170.5 C 359 155.31216799999999 390.340064 143 429 143 C 467.659936 143 499 155.31216799999999 499 170.5 C 499 185.68783200000001 467.659936 198 429 198 C 390.340064 198 359 185.68783200000001 359 170.5 Z" opacity="0.2"/></g><g transform="translate(-166,-126) scale(1,1)"><path fill="#ffffff" stroke="none" d="M 352 163.5 C 352 148.31216799999999 383.340064 136 422 136 C 460.659936 136 492 148.31216799999999 492 163.5 C 492 178.68783200000001 460.659936 191 422 191 C 383.340064 191 352 178.68783200000001 352 163.5 Z"/></g><g transform="translate(-166,-126) scale(1,1)"><path fill="none" stroke="#000000" d="M 352 163.5 C 352 148.31216799999999 383.340064 136 422 136 C 460.659936 136 492 148.31216799999999 492 163.5 C 492 178.68783200000001 460.659936 191 422 191 C 383.340064 191 352 178.68783200000001 352 163.5 Z" stroke-miterlimit="10"/></g><g transform="translate(-166,-126) scale(1,1)"><g><path fill="none" stroke="none"/><text fill="#000000" stroke="none" font-family="Arial" font-size="13px" font-style="normal" font-weight="bold" text-decoration="none" x="383" y="163">地图选点收藏</text></g></g><g transform="translate(-166,-126) scale(1,1)"><g><path fill="none" stroke="none"/><text fill="#000000" stroke="none" font-family="Arial" font-size="13px" font-style="normal" font-weight="normal" text-decoration="none" x="376.864990234375" y="178">(from 个人地图)</text></g></g><g transform="translate(-166,-126) scale(1,1)"><path fill="#C0C0C0" stroke="none" d="M 335 282.5 C 335 267.312168 366.340064 255 405 255 C 443.659936 255 475 267.312168 475 282.5 C 475 297.687832 443.659936 310 405 310 C 366.340064 310 335 297.687832 335 282.5 Z" opacity="0.2"/></g><g transform="translate(-166,-126) scale(1,1)"><path fill="#ffffff" stroke="none" d="M 328 275.5 C 328 260.312168 359.340064 248 398 248 C 436.659936 248 468 260.312168 468 275.5 C 468 290.687832 436.659936 303 398 303 C 359.340064 303 328 290.687832 328 275.5 Z"/></g><g transform="translate(-166,-126) scale(1,1)"><path fill="none" stroke="#000000" d="M 328 275.5 C 328 260.312168 359.340064 248 398 248 C 436.659936 248 468 260.312168 468 275.5 C 468 290.687832 436.659936 303 398 303 C 359.340064 303 328 290.687832 328 275.5 Z" stroke-miterlimit="10"/></g><g transform="translate(-166,-126) scale(1,1)"><g><path fill="none" stroke="none"/><text fill="#000000" stroke="none" font-family="Arial" font-size="13px" font-style="normal" font-weight="bold" text-decoration="none" x="372" y="275">轨迹收藏</text></g></g><g transform="translate(-166,-126) scale(1,1)"><g><path fill="none" stroke="none"/><text fill="#000000" stroke="none" font-family="Arial" font-size="13px" font-style="normal" font-weight="normal" text-decoration="none" x="352.864990234375" y="290">(from 个人地图)</text></g></g><g transform="translate(-166,-126) scale(1,1)"><path fill="#C0C0C0" stroke="none" d="M 343 418.5 C 343 403.312168 374.340064 391 413 391 C 451.659936 391 483 403.312168 483 418.5 C 483 433.687832 451.659936 446 413 446 C 374.340064 446 343 433.687832 343 418.5 Z" opacity="0.2"/></g><g transform="translate(-166,-126) scale(1,1)"><path fill="#ffffff" stroke="none" d="M 336 411.5 C 336 396.312168 367.340064 384 406 384 C 444.659936 384 476 396.312168 476 411.5 C 476 426.687832 444.659936 439 406 439 C 367.340064 439 336 426.687832 336 411.5 Z"/></g><g transform="translate(-166,-126) scale(1,1)"><path fill="none" stroke="#000000" d="M 336 411.5 C 336 396.312168 367.340064 384 406 384 C 444.659936 384 476 396.312168 476 411.5 C 476 426.687832 444.659936 439 406 439 C 367.340064 439 336 426.687832 336 411.5 Z" stroke-miterlimit="10"/></g><g transform="translate(-166,-126) scale(1,1)"><g><path fill="none" stroke="none"/><text fill="#000000" stroke="none" font-family="Arial" font-size="13px" font-style="normal" font-weight="bold" text-decoration="none" x="367" y="411">创建个人地图</text></g></g><g transform="translate(-166,-126) scale(1,1)"><g><path fill="none" stroke="none"/><text fill="#000000" stroke="none" font-family="Arial" font-size="13px" font-style="normal" font-weight="normal" text-decoration="none" x="360.864990234375" y="426">(from 个人地图)</text></g></g><g transform="translate(-166,-126) scale(1,1)"><path fill="#C0C0C0" stroke="none" d="M 567 328 C 567 318.6111584 586.2517536 311 610 311 C 633.7482464 311 653 318.6111584 653 328 C 653 337.3888416 633.7482464 345 610 345 C 586.2517536 345 567 337.3888416 567 328 Z" opacity="0.2"/></g><g transform="translate(-166,-126) scale(1,1)"><path fill="#ffffff" stroke="none" d="M 560 321 C 560 311.6111584 579.2517536 304 603 304 C 626.7482464 304 646 311.6111584 646 321 C 646 330.3888416 626.7482464 338 603 338 C 579.2517536 338 560 330.3888416 560 321 Z"/></g><g transform="translate(-166,-126) scale(1,1)"><path fill="none" stroke="#000000" d="M 560 321 C 560 311.6111584 579.2517536 304 603 304 C 626.7482464 304 646 311.6111584 646 321 C 646 330.3888416 626.7482464 338 603 338 C 579.2517536 338 560 330.3888416 560 321 Z" stroke-miterlimit="10"/></g><g transform="translate(-166,-126) scale(1,1)"><g><path fill="none" stroke="none"/><text fill="#000000" stroke="none" font-family="Arial" font-size="13px" font-style="normal" font-weight="bold" text-decoration="none" x="577" y="328">用户登陆</text></g></g><g transform="translate(-166,-126) scale(1,1)"><path fill="none" stroke="#000000" d="M 212 335 L 387 192" stroke-miterlimit="10"/></g><g transform="translate(-166,-126) scale(1,1)"><path fill="none" stroke="#000000" d="M 381.7941146190686 201.69013711980404 L 387 192 L 376.46692147702254 195.1708448131044" stroke-miterlimit="10"/></g><g transform="translate(-166,-126) scale(1,1)"><path fill="none" stroke="#000000" d="M 212 344 L 327 301" stroke-miterlimit="10"/></g><g transform="translate(-166,-126) scale(1,1)"><path fill="none" stroke="#000000" d="M 318.95529597190614 308.5021821559044 L 327 301 L 316.00669135295936 300.61637910523285" stroke-miterlimit="10"/></g><g transform="translate(-166,-126) scale(1,1)"><path fill="none" stroke="#000000" d="M 212 356 L 335 391" stroke-miterlimit="10"/></g><g transform="translate(-166,-126) scale(1,1)"><path fill="none" stroke="#000000" d="M 324.0732563014143 392.2673879222309 L 335 391 L 326.3774468402392 384.16980402864607" stroke-miterlimit="10"/></g><g transform="translate(-166,-126) scale(1,1)"><path fill="none" stroke="#000000" d="M 455 192 L 582 303" stroke-miterlimit="10" stroke-dasharray="3"/></g><g transform="translate(-166,-126) scale(1,1)"><path fill="none" stroke="#000000" d="M 571.5778570046735 299.4816288733325 L 582 303 L 577.1182960959063 293.1425679311113" stroke-miterlimit="10"/></g><g transform="translate(-166,-126) scale(1,1)"><g><path fill="none" stroke="none"/><text fill="#000000" stroke="none" font-family="Arial" font-size="13px" font-style="normal" font-weight="normal" text-decoration="none" x="509.5" y="230.5">«include»</text></g></g><g transform="translate(-166,-126) scale(1,1)"><path fill="none" stroke="#000000" d="M 469 291 L 559 311" stroke-miterlimit="10" stroke-dasharray="3"/></g><g transform="translate(-166,-126) scale(1,1)"><path fill="none" stroke="#000000" d="M 548.1661556931222 312.90468305351084 L 559 311 L 549.9925009211388 304.68612952743604" stroke-miterlimit="10"/></g><g transform="translate(-166,-126) scale(1,1)"><g><path fill="none" stroke="none"/><text fill="#000000" stroke="none" font-family="Arial" font-size="13px" font-style="normal" font-weight="normal" text-decoration="none" x="492.5" y="277.5">«include»</text></g></g><g transform="translate(-166,-126) scale(1,1)"><path fill="none" stroke="#000000" d="M 467 383 L 564 339" stroke-miterlimit="10" stroke-dasharray="3"/></g><g transform="translate(-166,-126) scale(1,1)"><path fill="none" stroke="#000000" d="M 556.4839094171093 347.0317110474532 L 564 339 L 553.0060440346406 339.36459872701073" stroke-miterlimit="10"/></g><g transform="translate(-166,-126) scale(1,1)"><g><path fill="none" stroke="none"/><text fill="#000000" stroke="none" font-family="Arial" font-size="13px" font-style="normal" font-weight="normal" text-decoration="none" x="474.5" y="339.5">«include»</text></g></g><g transform="translate(-166,-126) scale(1,1)"><path fill="#C0C0C0" stroke="none" d="M 367 586.5 C 367 571.312168 398.340064 559 437 559 C 475.659936 559 507 571.312168 507 586.5 C 507 601.687832 475.659936 614 437 614 C 398.340064 614 367 601.687832 367 586.5 Z" opacity="0.2"/></g><g transform="translate(-166,-126) scale(1,1)"><path fill="#ffffff" stroke="none" d="M 360 579.5 C 360 564.312168 391.340064 552 430 552 C 468.659936 552 500 564.312168 500 579.5 C 500 594.687832 468.659936 607 430 607 C 391.340064 607 360 594.687832 360 579.5 Z"/></g><g transform="translate(-166,-126) scale(1,1)"><path fill="none" stroke="#000000" d="M 360 579.5 C 360 564.312168 391.340064 552 430 552 C 468.659936 552 500 564.312168 500 579.5 C 500 594.687832 468.659936 607 430 607 C 391.340064 607 360 594.687832 360 579.5 Z" stroke-miterlimit="10"/></g><g transform="translate(-166,-126) scale(1,1)"><g><path fill="none" stroke="none"/><text fill="#000000" stroke="none" font-family="Arial" font-size="13px" font-style="normal" font-weight="bold" text-decoration="none" x="391" y="579">查看个人地图</text></g></g><g transform="translate(-166,-126) scale(1,1)"><g><path fill="none" stroke="none"/><text fill="#000000" stroke="none" font-family="Arial" font-size="13px" font-style="normal" font-weight="normal" text-decoration="none" x="384.864990234375" y="594">(from 个人地图)</text></g></g><g transform="translate(-166,-126) scale(1,1)"><path fill="none" stroke="#000000" d="M 212 369 L 401 551" stroke-miterlimit="10"/></g><g transform="translate(-166,-126) scale(1,1)"><path fill="none" stroke="#000000" d="M 390.759722878895 546.9829457953653 L 401 551 L 396.5995168749283 540.9185443379461" stroke-miterlimit="10"/></g><g transform="translate(-166,-126) scale(1,1)"><path fill="none" stroke="#000000" d="M 449 551 L 591 339" stroke-miterlimit="10" stroke-dasharray="3"/></g><g transform="translate(-166,-126) scale(1,1)"><path fill="none" stroke="#000000" d="M 588.8418394217208 349.7862107766519 L 591 339 L 581.8469472367314 345.1009528036873" stroke-miterlimit="10"/></g><g transform="translate(-166,-126) scale(1,1)"><g><path fill="none" stroke="none"/><text fill="#000000" stroke="none" font-family="Arial" font-size="13px" font-style="normal" font-weight="normal" text-decoration="none" x="467.5" y="434.5">«include»</text></g></g></g></svg>