<svg version="1.1" xmlns="http://www.w3.org/2000/svg" xmlns:xlink="http://www.w3.org/1999/xlink" width="400" height="348"><defs/><g><g transform="translate(-230,-30) scale(1,1)"><rect fill="#C0C0C0" stroke="none" x="247" y="47" width="69" height="39" opacity="0.2"/></g><g transform="translate(-230,-30) scale(1,1)"><rect fill="#FFFFB9" stroke="none" x="240" y="40" width="69" height="39"/></g><g transform="translate(-230,-30) scale(1,1)"><path fill="none" stroke="#800000" d="M 240 40 L 309 40 L 309 79 L 240 79 L 240 40 Z Z" stroke-miterlimit="10"/></g><g transform="translate(-230,-30) scale(1,1)"><g><path fill="none" stroke="none"/><text fill="#000000" stroke="none" font-family="Arial" font-size="11px" font-style="normal" font-weight="bold" text-decoration="none" x="263.5" y="57.5">用户</text></g></g><g transform="translate(-230,-30) scale(1,1)"><path fill="none" stroke="#000000" d="M 275.5 80 L 275.5 352" stroke-miterlimit="10" stroke-dasharray="3"/></g><g transform="translate(-230,-30) scale(1,1)"><rect fill="#C0C0C0" stroke="none" x="397" y="47" width="69" height="39" opacity="0.2"/></g><g transform="translate(-230,-30) scale(1,1)"><rect fill="#FFFFB9" stroke="none" x="390" y="40" width="69" height="39"/></g><g transform="translate(-230,-30) scale(1,1)"><path fill="none" stroke="#800000" d="M 390 40 L 459 40 L 459 79 L 390 79 L 390 40 Z Z" stroke-miterlimit="10"/></g><g transform="translate(-230,-30) scale(1,1)"><g><path fill="none" stroke="none"/><text fill="#000000" stroke="none" font-family="Arial" font-size="11px" font-style="normal" font-weight="bold" text-decoration="none" x="402.5" y="57.5">设置界面</text></g></g><g transform="translate(-230,-30) scale(1,1)"><path fill="none" stroke="#000000" d="M 425.5 80 L 425.5 360" stroke-miterlimit="10" stroke-dasharray="3"/></g><g transform="translate(-230,-30) scale(1,1)"><rect fill="#C0C0C0" stroke="none" x="558" y="47" width="69" height="39" opacity="0.2"/></g><g transform="translate(-230,-30) scale(1,1)"><rect fill="#FFFFB9" stroke="none" x="551" y="40" width="69" height="39"/></g><g transform="translate(-230,-30) scale(1,1)"><path fill="none" stroke="#800000" d="M 551 40 L 620 40 L 620 79 L 551 79 L 551 40 Z Z" stroke-miterlimit="10"/></g><g transform="translate(-230,-30) scale(1,1)"><g><path fill="none" stroke="none"/><text fill="#000000" stroke="none" font-family="Arial" font-size="11px" font-style="normal" font-weight="bold" text-decoration="none" x="569" y="57.5">总设置</text></g></g><g transform="translate(-230,-30) scale(1,1)"><path fill="none" stroke="#000000" d="M 586.5 80 L 586.5 368" stroke-miterlimit="10" stroke-dasharray="3"/></g><g transform="translate(-230,-30) scale(1,1)"><path fill="none" stroke="#800000" d="M 275 120 L 418 120" stroke-miterlimit="10"/></g><g transform="translate(-230,-30) scale(1,1)"><path fill="#800000" stroke="none" d="M 407.83732514237585 124.20951775601598 L 418 120 L 407.83732514237585 115.79048224398402"/></g><g transform="translate(-230,-30) scale(1,1)"><path fill="none" stroke="#800000" d="M 407.83732514237585 124.20951775601598 L 418 120 L 407.83732514237585 115.79048224398402 L 407.83732514237585 124.20951775601598" stroke-miterlimit="10"/></g><g transform="translate(-230,-30) scale(1,1)"><g><path fill="none" stroke="none"/><text fill="#000000" stroke="none" font-family="Arial" font-size="11px" font-style="normal" font-weight="normal" text-decoration="none" x="304.5" y="115.5">1 : 打开设置界面</text></g></g><g transform="translate(-230,-30) scale(1,1)"><rect fill="#FFFFFF" stroke="none" x="418" y="120" width="13" height="90"/></g><g transform="translate(-230,-30) scale(1,1)"><path fill="none" stroke="#000000" d="M 418 120 L 431 120 L 431 210 L 418 210 L 418 120 Z Z" stroke-miterlimit="10"/></g><g transform="translate(-230,-30) scale(1,1)"><path fill="none" stroke="#800000" d="M 431 144 L 461 144 L 461 164 L 438 164" stroke-miterlimit="10"/></g><g transform="translate(-230,-30) scale(1,1)"><path fill="#800000" stroke="none" d="M 448.16267485762415 159.790482243984 L 438 164 L 448.16267485762415 168.209517756016"/></g><g transform="translate(-230,-30) scale(1,1)"><path fill="none" stroke="#800000" d="M 448.16267485762415 159.790482243984 L 438 164 L 448.16267485762415 168.209517756016 L 448.16267485762415 159.790482243984" stroke-miterlimit="10"/></g><g transform="translate(-230,-30) scale(1,1)"><g><path fill="none" stroke="none"/><text fill="#000000" stroke="none" font-family="Arial" font-size="11px" font-style="normal" font-weight="normal" text-decoration="none" x="429.5" y="158.5">2 : 显示设置界面</text></g></g><g transform="translate(-230,-30) scale(1,1)"><rect fill="#FFFFFF" stroke="none" x="425" y="164" width="13" height="28"/></g><g transform="translate(-230,-30) scale(1,1)"><path fill="none" stroke="#000000" d="M 425 164 L 438 164 L 438 192 L 425 192 L 425 164 Z Z" stroke-miterlimit="10"/></g><g transform="translate(-230,-30) scale(1,1)"><path fill="none" stroke="#800000" d="M 275 244 L 418 244" stroke-miterlimit="10"/></g><g transform="translate(-230,-30) scale(1,1)"><path fill="#800000" stroke="none" d="M 407.83732514237585 248.209517756016 L 418 244 L 407.83732514237585 239.790482243984"/></g><g transform="translate(-230,-30) scale(1,1)"><path fill="none" stroke="#800000" d="M 407.83732514237585 248.209517756016 L 418 244 L 407.83732514237585 239.790482243984 L 407.83732514237585 248.209517756016" stroke-miterlimit="10"/></g><g transform="translate(-230,-30) scale(1,1)"><g><path fill="none" stroke="none"/><text fill="#000000" stroke="none" font-family="Arial" font-size="11px" font-style="normal" font-weight="normal" text-decoration="none" x="293.5" y="239.5">3 : 选择定位时间间隔</text></g></g><g transform="translate(-230,-30) scale(1,1)"><rect fill="#FFFFFF" stroke="none" x="418" y="244" width="13" height="85"/></g><g transform="translate(-230,-30) scale(1,1)"><path fill="none" stroke="#000000" d="M 418 244 L 431 244 L 431 329 L 418 329 L 418 244 Z Z" stroke-miterlimit="10"/></g><g transform="translate(-230,-30) scale(1,1)"><path fill="none" stroke="#800000" d="M 431 256 L 579 256" stroke-miterlimit="10"/></g><g transform="translate(-230,-30) scale(1,1)"><path fill="#800000" stroke="none" d="M 568.8373251423759 260.209517756016 L 579 256 L 568.8373251423758 251.790482243984"/></g><g transform="translate(-230,-30) scale(1,1)"><path fill="none" stroke="#800000" d="M 568.8373251423759 260.209517756016 L 579 256 L 568.8373251423758 251.790482243984 L 568.8373251423759 260.209517756016" stroke-miterlimit="10"/></g><g transform="translate(-230,-30) scale(1,1)"><g><path fill="none" stroke="none"/><text fill="#000000" stroke="none" font-family="Arial" font-size="11px" font-style="normal" font-weight="normal" text-decoration="none" x="452.5" y="251.5">4 : 设置定位时间间隔</text></g></g><g transform="translate(-230,-30) scale(1,1)"><rect fill="#FFFFFF" stroke="none" x="579" y="256" width="13" height="60"/></g><g transform="translate(-230,-30) scale(1,1)"><path fill="none" stroke="#000000" d="M 579 256 L 592 256 L 592 316 L 579 316 L 579 256 Z Z" stroke-miterlimit="10"/></g><g transform="translate(-230,-30) scale(1,1)"><path fill="none" stroke="#800000" d="M 579 309 L 431 309" stroke-miterlimit="10" stroke-dasharray="3"/></g><g transform="translate(-230,-30) scale(1,1)"><path fill="none" stroke="#800000" d="M 441.16267485762415 304.790482243984 L 431 309 L 441.16267485762415 313.209517756016" stroke-miterlimit="10"/></g><g transform="translate(-230,-30) scale(1,1)"><g><path fill="none" stroke="none"/><text fill="#000000" stroke="none" font-family="Arial" font-size="11px" font-style="normal" font-weight="normal" text-decoration="none" x="464.5" y="324.5">5 : 显示设置结果</text></g></g></g></svg>