<svg version="1.1" xmlns="http://www.w3.org/2000/svg" xmlns:xlink="http://www.w3.org/1999/xlink" width="698" height="356"><defs/><g><g transform="translate(-98,-30) scale(1,1)"><rect fill="#C0C0C0" stroke="none" x="115" y="47" width="69" height="39" opacity="0.2"/></g><g transform="translate(-98,-30) scale(1,1)"><rect fill="#FFFFB9" stroke="none" x="108" y="40" width="69" height="39"/></g><g transform="translate(-98,-30) scale(1,1)"><path fill="none" stroke="#800000" d="M 108 40 L 177 40 L 177 79 L 108 79 L 108 40 Z Z" stroke-miterlimit="10"/></g><g transform="translate(-98,-30) scale(1,1)"><g><path fill="none" stroke="none"/><text fill="#000000" stroke="none" font-family="Arial" font-size="11px" font-style="normal" font-weight="bold" text-decoration="none" x="131.5" y="57.5">用户</text></g></g><g transform="translate(-98,-30) scale(1,1)"><path fill="none" stroke="#000000" d="M 143.5 80 L 143.5 368" stroke-miterlimit="10" stroke-dasharray="3"/></g><g transform="translate(-98,-30) scale(1,1)"><rect fill="#C0C0C0" stroke="none" x="243" y="47" width="69" height="39" opacity="0.2"/></g><g transform="translate(-98,-30) scale(1,1)"><rect fill="#FFFFB9" stroke="none" x="236" y="40" width="69" height="39"/></g><g transform="translate(-98,-30) scale(1,1)"><path fill="none" stroke="#800000" d="M 236 40 L 305 40 L 305 79 L 236 79 L 236 40 Z Z" stroke-miterlimit="10"/></g><g transform="translate(-98,-30) scale(1,1)"><g><path fill="none" stroke="none"/><text fill="#000000" stroke="none" font-family="Arial" font-size="11px" font-style="normal" font-weight="bold" text-decoration="none" x="254" y="57.5">主界面</text></g></g><g transform="translate(-98,-30) scale(1,1)"><path fill="none" stroke="#000000" d="M 271.5 80 L 271.5 376" stroke-miterlimit="10" stroke-dasharray="3"/></g><g transform="translate(-98,-30) scale(1,1)"><rect fill="#C0C0C0" stroke="none" x="407" y="47" width="69" height="39" opacity="0.2"/></g><g transform="translate(-98,-30) scale(1,1)"><rect fill="#FFFFB9" stroke="none" x="400" y="40" width="69" height="39"/></g><g transform="translate(-98,-30) scale(1,1)"><path fill="none" stroke="#800000" d="M 400 40 L 469 40 L 469 79 L 400 79 L 400 40 Z Z" stroke-miterlimit="10"/></g><g transform="translate(-98,-30) scale(1,1)"><g><path fill="none" stroke="none"/><text fill="#000000" stroke="none" font-family="Arial" font-size="11px" font-style="normal" font-weight="bold" text-decoration="none" x="412.5" y="57.5">个人地图</text></g></g><g transform="translate(-98,-30) scale(1,1)"><path fill="none" stroke="#000000" d="M 435.5 80 L 435.5 376" stroke-miterlimit="10" stroke-dasharray="3"/></g><g transform="translate(-98,-30) scale(1,1)"><rect fill="#C0C0C0" stroke="none" x="567" y="47" width="74" height="39" opacity="0.2"/></g><g transform="translate(-98,-30) scale(1,1)"><rect fill="#FFFFB9" stroke="none" x="560" y="40" width="74" height="39"/></g><g transform="translate(-98,-30) scale(1,1)"><path fill="none" stroke="#800000" d="M 560 40 L 634 40 L 634 79 L 560 79 L 560 40 Z Z" stroke-miterlimit="10"/></g><g transform="translate(-98,-30) scale(1,1)"><g><path fill="none" stroke="none"/><text fill="#000000" stroke="none" font-family="Arial" font-size="11px" font-style="normal" font-weight="bold" text-decoration="none" x="569.5" y="57.5">数据库服务</text></g></g><g transform="translate(-98,-30) scale(1,1)"><path fill="none" stroke="#000000" d="M 598.5 80 L 598.5 376" stroke-miterlimit="10" stroke-dasharray="3"/></g><g transform="translate(-98,-30) scale(1,1)"><rect fill="#C0C0C0" stroke="none" x="719" y="47" width="74" height="39" opacity="0.2"/></g><g transform="translate(-98,-30) scale(1,1)"><rect fill="#FFFFB9" stroke="none" x="712" y="40" width="74" height="39"/></g><g transform="translate(-98,-30) scale(1,1)"><path fill="none" stroke="#800000" d="M 712 40 L 786 40 L 786 79 L 712 79 L 712 40 Z Z" stroke-miterlimit="10"/></g><g transform="translate(-98,-30) scale(1,1)"><g><path fill="none" stroke="none"/><text fill="#000000" stroke="none" font-family="Arial" font-size="11px" font-style="normal" font-weight="bold" text-decoration="none" x="721.5" y="57.5">个人地图表</text></g></g><g transform="translate(-98,-30) scale(1,1)"><path fill="none" stroke="#000000" d="M 750.5 80 L 750.5 376" stroke-miterlimit="10" stroke-dasharray="3"/></g><g transform="translate(-98,-30) scale(1,1)"><path fill="none" stroke="#800000" d="M 143 128 L 264 128" stroke-miterlimit="10"/></g><g transform="translate(-98,-30) scale(1,1)"><path fill="#800000" stroke="none" d="M 253.83732514237585 132.209517756016 L 264 128 L 253.83732514237585 123.79048224398402"/></g><g transform="translate(-98,-30) scale(1,1)"><path fill="none" stroke="#800000" d="M 253.83732514237585 132.209517756016 L 264 128 L 253.83732514237585 123.79048224398402 L 253.83732514237585 132.209517756016" stroke-miterlimit="10"/></g><g transform="translate(-98,-30) scale(1,1)"><g><path fill="none" stroke="none"/><text fill="#000000" stroke="none" font-family="Arial" font-size="11px" font-style="normal" font-weight="normal" text-decoration="none" x="166.5" y="123.5">1 : 打开主界面</text></g></g><g transform="translate(-98,-30) scale(1,1)"><rect fill="#FFFFFF" stroke="none" x="264" y="128" width="13" height="112"/></g><g transform="translate(-98,-30) scale(1,1)"><path fill="none" stroke="#000000" d="M 264 128 L 277 128 L 277 240 L 264 240 L 264 128 Z Z" stroke-miterlimit="10"/></g><g transform="translate(-98,-30) scale(1,1)"><path fill="none" stroke="#800000" d="M 277 164 L 307 164 L 307 184 L 284 184" stroke-miterlimit="10"/></g><g transform="translate(-98,-30) scale(1,1)"><path fill="#800000" stroke="none" d="M 294.16267485762415 179.790482243984 L 284 184 L 294.16267485762415 188.209517756016"/></g><g transform="translate(-98,-30) scale(1,1)"><path fill="none" stroke="#800000" d="M 294.16267485762415 179.790482243984 L 284 184 L 294.16267485762415 188.209517756016 L 294.16267485762415 179.790482243984" stroke-miterlimit="10"/></g><g transform="translate(-98,-30) scale(1,1)"><g><path fill="none" stroke="none"/><text fill="#000000" stroke="none" font-family="Arial" font-size="11px" font-style="normal" font-weight="normal" text-decoration="none" x="280.5" y="178.5">2 : 显示主界面</text></g></g><g transform="translate(-98,-30) scale(1,1)"><rect fill="#FFFFFF" stroke="none" x="271" y="184" width="13" height="28"/></g><g transform="translate(-98,-30) scale(1,1)"><path fill="none" stroke="#000000" d="M 271 184 L 284 184 L 284 212 L 271 212 L 271 184 Z Z" stroke-miterlimit="10"/></g><g transform="translate(-98,-30) scale(1,1)"><path fill="none" stroke="#800000" d="M 277 224 L 428 224" stroke-miterlimit="10"/></g><g transform="translate(-98,-30) scale(1,1)"><path fill="#800000" stroke="none" d="M 417.83732514237585 228.209517756016 L 428 224 L 417.83732514237585 219.790482243984"/></g><g transform="translate(-98,-30) scale(1,1)"><path fill="none" stroke="#800000" d="M 417.83732514237585 228.209517756016 L 428 224 L 417.83732514237585 219.790482243984 L 417.83732514237585 228.209517756016" stroke-miterlimit="10"/></g><g transform="translate(-98,-30) scale(1,1)"><g><path fill="none" stroke="none"/><text fill="#000000" stroke="none" font-family="Arial" font-size="11px" font-style="normal" font-weight="normal" text-decoration="none" x="304.5" y="219.5">3 : 初始化个人地图</text></g></g><g transform="translate(-98,-30) scale(1,1)"><rect fill="#FFFFFF" stroke="none" x="428" y="224" width="13" height="108"/></g><g transform="translate(-98,-30) scale(1,1)"><path fill="none" stroke="#000000" d="M 428 224 L 441 224 L 441 332 L 428 332 L 428 224 Z Z" stroke-miterlimit="10"/></g><g transform="translate(-98,-30) scale(1,1)"><path fill="none" stroke="#800000" d="M 441 234 L 591 234" stroke-miterlimit="10"/></g><g transform="translate(-98,-30) scale(1,1)"><path fill="#800000" stroke="none" d="M 580.8373251423759 238.209517756016 L 591 234 L 580.8373251423758 229.790482243984"/></g><g transform="translate(-98,-30) scale(1,1)"><path fill="none" stroke="#800000" d="M 580.8373251423759 238.209517756016 L 591 234 L 580.8373251423758 229.790482243984 L 580.8373251423759 238.209517756016" stroke-miterlimit="10"/></g><g transform="translate(-98,-30) scale(1,1)"><g><path fill="none" stroke="none"/><text fill="#000000" stroke="none" font-family="Arial" font-size="11px" font-style="normal" font-weight="normal" text-decoration="none" x="463.5" y="229.5">4 : 请求个人地图数据</text></g></g><g transform="translate(-98,-30) scale(1,1)"><rect fill="#FFFFFF" stroke="none" x="591" y="234" width="13" height="78"/></g><g transform="translate(-98,-30) scale(1,1)"><path fill="none" stroke="#000000" d="M 591 234 L 604 234 L 604 312 L 591 312 L 591 234 Z Z" stroke-miterlimit="10"/></g><g transform="translate(-98,-30) scale(1,1)"><path fill="none" stroke="#800000" d="M 604 249 L 743 249" stroke-miterlimit="10"/></g><g transform="translate(-98,-30) scale(1,1)"><path fill="#800000" stroke="none" d="M 732.8373251423759 253.209517756016 L 743 249 L 732.8373251423758 244.790482243984"/></g><g transform="translate(-98,-30) scale(1,1)"><path fill="none" stroke="#800000" d="M 732.8373251423759 253.209517756016 L 743 249 L 732.8373251423758 244.790482243984 L 732.8373251423759 253.209517756016" stroke-miterlimit="10"/></g><g transform="translate(-98,-30) scale(1,1)"><g><path fill="none" stroke="none"/><text fill="#000000" stroke="none" font-family="Arial" font-size="11px" font-style="normal" font-weight="normal" text-decoration="none" x="620.5" y="244.5">5 : 获取个人地图数据</text></g></g><g transform="translate(-98,-30) scale(1,1)"><rect fill="#FFFFFF" stroke="none" x="743" y="249" width="13" height="51"/></g><g transform="translate(-98,-30) scale(1,1)"><path fill="none" stroke="#000000" d="M 743 249 L 756 249 L 756 300 L 743 300 L 743 249 Z Z" stroke-miterlimit="10"/></g><g transform="translate(-98,-30) scale(1,1)"><path fill="none" stroke="#800000" d="M 743 291 L 604 291" stroke-miterlimit="10" stroke-dasharray="3"/></g><g transform="translate(-98,-30) scale(1,1)"><path fill="none" stroke="#800000" d="M 614.1626748576241 286.790482243984 L 604 291 L 614.1626748576241 295.209517756016" stroke-miterlimit="10"/></g><g transform="translate(-98,-30) scale(1,1)"><g><path fill="none" stroke="none"/><text fill="#000000" stroke="none" font-family="Arial" font-size="11px" font-style="normal" font-weight="normal" text-decoration="none" x="643.5" y="306.5">6 : 返回数据</text></g></g><g transform="translate(-98,-30) scale(1,1)"><path fill="none" stroke="#800000" d="M 591 306 L 441 306" stroke-miterlimit="10" stroke-dasharray="3"/></g><g transform="translate(-98,-30) scale(1,1)"><path fill="none" stroke="#800000" d="M 451.16267485762415 301.790482243984 L 441 306 L 451.16267485762415 310.209517756016" stroke-miterlimit="10"/></g><g transform="translate(-98,-30) scale(1,1)"><g><path fill="none" stroke="none"/><text fill="#000000" stroke="none" font-family="Arial" font-size="11px" font-style="normal" font-weight="normal" text-decoration="none" x="464.5" y="321.5">7 : 显示个人地图数据</text></g></g></g></svg>