<svg version="1.1" xmlns="http://www.w3.org/2000/svg" xmlns:xlink="http://www.w3.org/1999/xlink" width="1172" height="755"><defs/><g><g transform="translate(-142,-62) scale(1,1)"><path fill="#ffffff" stroke="none" d="M 175.40935031960228 260.68 C 175.40935031960228 255.886167936 179.29519264454774 252 184.088623046875 252 C 188.88205344920226 252 192.76789577414772 255.886167936 192.76789577414772 260.68 C 192.76789577414772 265.473832064 188.88205344920226 269.36 184.088623046875 269.36 C 179.29519264454774 269.36 175.40935031960228 265.473832064 175.40935031960228 260.68 Z"/></g><g transform="translate(-142,-62) scale(1,1)"><path fill="none" stroke="#000000" d="M 175.40935031960228 260.68 C 175.40935031960228 255.886167936 179.29519264454774 252 184.088623046875 252 C 188.88205344920226 252 192.76789577414772 255.886167936 192.76789577414772 260.68 C 192.76789577414772 265.473832064 188.88205344920226 269.36 184.088623046875 269.36 C 179.29519264454774 269.36 175.40935031960228 265.473832064 175.40935031960228 260.68 Z" stroke-miterlimit="10"/></g><g transform="translate(-142,-62) scale(1,1)"><path fill="none" stroke="#000000" d="M 184.088623046875 269.36 L 184.088623046875 286.64" stroke-miterlimit="10"/></g><g transform="translate(-142,-62) scale(1,1)"><path fill="none" stroke="#000000" d="M 174.89880486505683 275.84 L 193.27844122869317 275.84" stroke-miterlimit="10"/></g><g transform="translate(-142,-62) scale(1,1)"><path fill="none" stroke="#000000" d="M 184.088623046875 286.64 L 171.32498668323865 304" stroke-miterlimit="10"/></g><g transform="translate(-142,-62) scale(1,1)"><path fill="none" stroke="#000000" d="M 184.088623046875 286.64 L 196.85225941051135 304" stroke-miterlimit="10"/></g><g transform="translate(-142,-62) scale(1,1)"><g><path fill="none" stroke="none"/><text fill="#000000" stroke="none" font-family="Arial" font-size="13px" font-style="normal" font-weight="bold" text-decoration="none" x="171.088623046875" y="324.5">用户</text></g></g><g transform="translate(-142,-62) scale(1,1)"><path fill="#C0C0C0" stroke="none" d="M 591 304 C 591 294.6111584 613.6096176 287 641.5 287 C 669.3903824 287 692 294.6111584 692 304 C 692 313.3888416 669.3903824 321 641.5 321 C 613.6096176 321 591 313.3888416 591 304 Z" opacity="0.2"/></g><g transform="translate(-142,-62) scale(1,1)"><path fill="#ffffff" stroke="none" d="M 584 297 C 584 287.6111584 606.6096176 280 634.5 280 C 662.3903824 280 685 287.6111584 685 297 C 685 306.3888416 662.3903824 314 634.5 314 C 606.6096176 314 584 306.3888416 584 297 Z"/></g><g transform="translate(-142,-62) scale(1,1)"><path fill="none" stroke="#000000" d="M 584 297 C 584 287.6111584 606.6096176 280 634.5 280 C 662.3903824 280 685 287.6111584 685 297 C 685 306.3888416 662.3903824 314 634.5 314 C 606.6096176 314 584 306.3888416 584 297 Z" stroke-miterlimit="10"/></g><g transform="translate(-142,-62) scale(1,1)"><g><path fill="none" stroke="none"/><text fill="#000000" stroke="none" font-family="Arial" font-size="13px" font-style="normal" font-weight="bold" text-decoration="none" x="608.5" y="304">用户登陆</text></g></g><g transform="translate(-142,-62) scale(1,1)"><path fill="#C0C0C0" stroke="none" d="M 319 202.5 C 319 187.31216799999999 350.340064 175 389 175 C 427.659936 175 459 187.31216799999999 459 202.5 C 459 217.68783200000001 427.659936 230 389 230 C 350.340064 230 319 217.68783200000001 319 202.5 Z" opacity="0.2"/></g><g transform="translate(-142,-62) scale(1,1)"><path fill="#ffffff" stroke="none" d="M 312 195.5 C 312 180.31216799999999 343.340064 168 382 168 C 420.659936 168 452 180.31216799999999 452 195.5 C 452 210.68783200000001 420.659936 223 382 223 C 343.340064 223 312 210.68783200000001 312 195.5 Z"/></g><g transform="translate(-142,-62) scale(1,1)"><path fill="none" stroke="#000000" d="M 312 195.5 C 312 180.31216799999999 343.340064 168 382 168 C 420.659936 168 452 180.31216799999999 452 195.5 C 452 210.68783200000001 420.659936 223 382 223 C 343.340064 223 312 210.68783200000001 312 195.5 Z" stroke-miterlimit="10"/></g><g transform="translate(-142,-62) scale(1,1)"><g><path fill="none" stroke="none"/><text fill="#000000" stroke="none" font-family="Arial" font-size="13px" font-style="normal" font-weight="bold" text-decoration="none" x="356" y="195">个人地图</text></g></g><g transform="translate(-142,-62) scale(1,1)"><g><path fill="none" stroke="none"/><text fill="#000000" stroke="none" font-family="Arial" font-size="13px" font-style="normal" font-weight="normal" text-decoration="none" x="336.864990234375" y="210">(from 个人地图)</text></g></g><g transform="translate(-142,-62) scale(1,1)"><path fill="none" stroke="#000000" d="M 210 277 L 322 224" stroke-miterlimit="10"/></g><g transform="translate(-142,-62) scale(1,1)"><path fill="none" stroke="#000000" d="M 314.61451335771056 232.15196829339789 L 322 224 L 311.01336025259513 224.54198437315387" stroke-miterlimit="10"/></g><g transform="translate(-142,-62) scale(1,1)"><path fill="none" stroke="#000000" d="M 453 224 L 590 279" stroke-miterlimit="10" stroke-dasharray="3"/></g><g transform="translate(-142,-62) scale(1,1)"><path fill="none" stroke="#000000" d="M 579.000657632874 279.12028088271285 L 590 279 L 582.1372389957993 271.30734185142603" stroke-miterlimit="10"/></g><g transform="translate(-142,-62) scale(1,1)"><g><path fill="none" stroke="none"/><text fill="#000000" stroke="none" font-family="Arial" font-size="13px" font-style="normal" font-weight="normal" text-decoration="none" x="504.5" y="229.5">«include»</text></g></g><g transform="translate(-142,-62) scale(1,1)"><path fill="#C0C0C0" stroke="none" d="M 327 314.5 C 327 299.312168 358.340064 287 397 287 C 435.659936 287 467 299.312168 467 314.5 C 467 329.687832 435.659936 342 397 342 C 358.340064 342 327 329.687832 327 314.5 Z" opacity="0.2"/></g><g transform="translate(-142,-62) scale(1,1)"><path fill="#ffffff" stroke="none" d="M 320 307.5 C 320 292.312168 351.340064 280 390 280 C 428.659936 280 460 292.312168 460 307.5 C 460 322.687832 428.659936 335 390 335 C 351.340064 335 320 322.687832 320 307.5 Z"/></g><g transform="translate(-142,-62) scale(1,1)"><path fill="none" stroke="#000000" d="M 320 307.5 C 320 292.312168 351.340064 280 390 280 C 428.659936 280 460 292.312168 460 307.5 C 460 322.687832 428.659936 335 390 335 C 351.340064 335 320 322.687832 320 307.5 Z" stroke-miterlimit="10"/></g><g transform="translate(-142,-62) scale(1,1)"><g><path fill="none" stroke="none"/><text fill="#000000" stroke="none" font-family="Arial" font-size="13px" font-style="normal" font-weight="bold" text-decoration="none" x="364" y="307">日程管理</text></g></g><g transform="translate(-142,-62) scale(1,1)"><g><path fill="none" stroke="none"/><text fill="#000000" stroke="none" font-family="Arial" font-size="13px" font-style="normal" font-weight="normal" text-decoration="none" x="344.864990234375" y="322">(from 日程管理)</text></g></g><g transform="translate(-142,-62) scale(1,1)"><path fill="none" stroke="#000000" d="M 210 292 L 319 301" stroke-miterlimit="10"/></g><g transform="translate(-142,-62) scale(1,1)"><path fill="none" stroke="#000000" d="M 308.52539550461285 304.3589672021642 L 319 301 L 309.21818764463114 295.9684846174981" stroke-miterlimit="10"/></g><g transform="translate(-142,-62) scale(1,1)"><path fill="none" stroke="#000000" d="M 461 304 L 583 299" stroke-miterlimit="10" stroke-dasharray="3"/></g><g transform="translate(-142,-62) scale(1,1)"><path fill="none" stroke="#000000" d="M 573.0182258181898 303.62214064945516 L 583 299 L 572.6734727909414 295.2101667845969" stroke-miterlimit="10"/></g><g transform="translate(-142,-62) scale(1,1)"><g><path fill="none" stroke="none"/><text fill="#000000" stroke="none" font-family="Arial" font-size="13px" font-style="normal" font-weight="normal" text-decoration="none" x="493.5" y="277.5">«include»</text></g></g><g transform="translate(-142,-62) scale(1,1)"><path fill="#C0C0C0" stroke="none" d="M 335 418.5 C 335 403.312168 366.340064 391 405 391 C 443.659936 391 475 403.312168 475 418.5 C 475 433.687832 443.659936 446 405 446 C 366.340064 446 335 433.687832 335 418.5 Z" opacity="0.2"/></g><g transform="translate(-142,-62) scale(1,1)"><path fill="#ffffff" stroke="none" d="M 328 411.5 C 328 396.312168 359.340064 384 398 384 C 436.659936 384 468 396.312168 468 411.5 C 468 426.687832 436.659936 439 398 439 C 359.340064 439 328 426.687832 328 411.5 Z"/></g><g transform="translate(-142,-62) scale(1,1)"><path fill="none" stroke="#000000" d="M 328 411.5 C 328 396.312168 359.340064 384 398 384 C 436.659936 384 468 396.312168 468 411.5 C 468 426.687832 436.659936 439 398 439 C 359.340064 439 328 426.687832 328 411.5 Z" stroke-miterlimit="10"/></g><g transform="translate(-142,-62) scale(1,1)"><g><path fill="none" stroke="none"/><text fill="#000000" stroke="none" font-family="Arial" font-size="13px" font-style="normal" font-weight="bold" text-decoration="none" x="372" y="411">精力曲线</text></g></g><g transform="translate(-142,-62) scale(1,1)"><g><path fill="none" stroke="none"/><text fill="#000000" stroke="none" font-family="Arial" font-size="13px" font-style="normal" font-weight="normal" text-decoration="none" x="352.864990234375" y="426">(from 精力曲线)</text></g></g><g transform="translate(-142,-62) scale(1,1)"><path fill="none" stroke="#000000" d="M 210 305 L 348 383" stroke-miterlimit="10"/></g><g transform="translate(-142,-62) scale(1,1)"><path fill="none" stroke="#000000" d="M 337.08142916803695 381.6640318164697 L 348 383 L 341.22407668587704 374.33473236182954" stroke-miterlimit="10"/></g><g transform="translate(-142,-62) scale(1,1)"><path fill="none" stroke="#000000" d="M 456 383 L 597 315" stroke-miterlimit="10" stroke-dasharray="3"/></g><g transform="translate(-142,-62) scale(1,1)"><path fill="none" stroke="#000000" d="M 589.6748140819293 323.2061959070996 L 597 315 L 586.0176545902245 315.6229681375354" stroke-miterlimit="10"/></g><g transform="translate(-142,-62) scale(1,1)"><g><path fill="none" stroke="none"/><text fill="#000000" stroke="none" font-family="Arial" font-size="13px" font-style="normal" font-weight="normal" text-decoration="none" x="485.5" y="327.5">«include»</text></g></g><g transform="translate(-142,-62) scale(1,1)"><path fill="#ffffff" stroke="none" d="M 173.10026828835228 569.6800000000001 C 173.10026828835228 564.8861679360001 176.98611061329774 561 181.779541015625 561 C 186.57297141795226 561 190.45881374289772 564.8861679360001 190.45881374289772 569.6800000000001 C 190.45881374289772 574.473832064 186.57297141795226 578.36 181.779541015625 578.36 C 176.98611061329774 578.36 173.10026828835228 574.473832064 173.10026828835228 569.6800000000001 Z"/></g><g transform="translate(-142,-62) scale(1,1)"><path fill="none" stroke="#000000" d="M 173.10026828835228 569.6800000000001 C 173.10026828835228 564.8861679360001 176.98611061329774 561 181.779541015625 561 C 186.57297141795226 561 190.45881374289772 564.8861679360001 190.45881374289772 569.6800000000001 C 190.45881374289772 574.473832064 186.57297141795226 578.36 181.779541015625 578.36 C 176.98611061329774 578.36 173.10026828835228 574.473832064 173.10026828835228 569.6800000000001 Z" stroke-miterlimit="10"/></g><g transform="translate(-142,-62) scale(1,1)"><path fill="none" stroke="#000000" d="M 181.779541015625 578.36 L 181.779541015625 595.64" stroke-miterlimit="10"/></g><g transform="translate(-142,-62) scale(1,1)"><path fill="none" stroke="#000000" d="M 172.58972283380683 584.84 L 190.96935919744317 584.84" stroke-miterlimit="10"/></g><g transform="translate(-142,-62) scale(1,1)"><path fill="none" stroke="#000000" d="M 181.779541015625 595.64 L 169.01590465198865 613" stroke-miterlimit="10"/></g><g transform="translate(-142,-62) scale(1,1)"><path fill="none" stroke="#000000" d="M 181.779541015625 595.64 L 194.54317737926135 613" stroke-miterlimit="10"/></g><g transform="translate(-142,-62) scale(1,1)"><g><path fill="none" stroke="none"/><text fill="#000000" stroke="none" font-family="Arial" font-size="13px" font-style="normal" font-weight="bold" text-decoration="none" x="157.9345703125" y="633.5">MapBox</text></g></g><g transform="translate(-142,-62) scale(1,1)"><path fill="#C0C0C0" stroke="none" d="M 311 546.5 C 311 531.312168 342.340064 519 381 519 C 419.659936 519 451 531.312168 451 546.5 C 451 561.687832 419.659936 574 381 574 C 342.340064 574 311 561.687832 311 546.5 Z" opacity="0.2"/></g><g transform="translate(-142,-62) scale(1,1)"><path fill="#ffffff" stroke="none" d="M 304 539.5 C 304 524.312168 335.340064 512 374 512 C 412.659936 512 444 524.312168 444 539.5 C 444 554.687832 412.659936 567 374 567 C 335.340064 567 304 554.687832 304 539.5 Z"/></g><g transform="translate(-142,-62) scale(1,1)"><path fill="none" stroke="#000000" d="M 304 539.5 C 304 524.312168 335.340064 512 374 512 C 412.659936 512 444 524.312168 444 539.5 C 444 554.687832 412.659936 567 374 567 C 335.340064 567 304 554.687832 304 539.5 Z" stroke-miterlimit="10"/></g><g transform="translate(-142,-62) scale(1,1)"><g><path fill="none" stroke="none"/><text fill="#000000" stroke="none" font-family="Arial" font-size="13px" font-style="normal" font-weight="bold" text-decoration="none" x="335" y="539">提供地图数据</text></g></g><g transform="translate(-142,-62) scale(1,1)"><g><path fill="none" stroke="none"/><text fill="#000000" stroke="none" font-family="Arial" font-size="13px" font-style="normal" font-weight="normal" text-decoration="none" x="328.864990234375" y="554">(from 地图服务)</text></g></g><g transform="translate(-142,-62) scale(1,1)"><path fill="#C0C0C0" stroke="none" d="M 335 618.5 C 335 603.312168 366.340064 591 405 591 C 443.659936 591 475 603.312168 475 618.5 C 475 633.687832 443.659936 646 405 646 C 366.340064 646 335 633.687832 335 618.5 Z" opacity="0.2"/></g><g transform="translate(-142,-62) scale(1,1)"><path fill="#ffffff" stroke="none" d="M 328 611.5 C 328 596.312168 359.340064 584 398 584 C 436.659936 584 468 596.312168 468 611.5 C 468 626.687832 436.659936 639 398 639 C 359.340064 639 328 626.687832 328 611.5 Z"/></g><g transform="translate(-142,-62) scale(1,1)"><path fill="none" stroke="#000000" d="M 328 611.5 C 328 596.312168 359.340064 584 398 584 C 436.659936 584 468 596.312168 468 611.5 C 468 626.687832 436.659936 639 398 639 C 359.340064 639 328 626.687832 328 611.5 Z" stroke-miterlimit="10"/></g><g transform="translate(-142,-62) scale(1,1)"><g><path fill="none" stroke="none"/><text fill="#000000" stroke="none" font-family="Arial" font-size="13px" font-style="normal" font-weight="bold" text-decoration="none" x="372" y="611">地图渲染</text></g></g><g transform="translate(-142,-62) scale(1,1)"><g><path fill="none" stroke="none"/><text fill="#000000" stroke="none" font-family="Arial" font-size="13px" font-style="normal" font-weight="normal" text-decoration="none" x="352.864990234375" y="626">(from 地图服务)</text></g></g><g transform="translate(-142,-62) scale(1,1)"><path fill="none" stroke="#000000" d="M 213 589 L 303 561" stroke-miterlimit="10"/></g><g transform="translate(-142,-62) scale(1,1)"><path fill="none" stroke="#000000" d="M 294.54660797459184 568.038477339934 L 303 561 L 292.04559411851034 559.9995042311008" stroke-miterlimit="10"/></g><g transform="translate(-142,-62) scale(1,1)"><path fill="none" stroke="#000000" d="M 213 601 L 327 607" stroke-miterlimit="10"/></g><g transform="translate(-142,-62) scale(1,1)"><path fill="none" stroke="#000000" d="M 316.63012435220156 610.6695611521266 L 327 607 L 317.07261903473307 602.2621621840279" stroke-miterlimit="10"/></g><g transform="translate(-142,-62) scale(1,1)"><path fill="#C0C0C0" stroke="none" d="M 527 538.5 C 527 523.312168 558.5639216 511 597.5 511 C 636.4360784 511 668 523.312168 668 538.5 C 668 553.687832 636.4360784 566 597.5 566 C 558.5639216 566 527 553.687832 527 538.5 Z" opacity="0.2"/></g><g transform="translate(-142,-62) scale(1,1)"><path fill="#ffffff" stroke="none" d="M 520 531.5 C 520 516.312168 551.5639216 504 590.5 504 C 629.4360784 504 661 516.312168 661 531.5 C 661 546.687832 629.4360784 559 590.5 559 C 551.5639216 559 520 546.687832 520 531.5 Z"/></g><g transform="translate(-142,-62) scale(1,1)"><path fill="none" stroke="#000000" d="M 520 531.5 C 520 516.312168 551.5639216 504 590.5 504 C 629.4360784 504 661 516.312168 661 531.5 C 661 546.687832 629.4360784 559 590.5 559 C 551.5639216 559 520 546.687832 520 531.5 Z" stroke-miterlimit="10"/></g><g transform="translate(-142,-62) scale(1,1)"><g><path fill="none" stroke="none"/><text fill="#000000" stroke="none" font-family="Arial" font-size="13px" font-style="normal" font-weight="bold" text-decoration="none" x="545" y="531">开发者身份验证</text></g></g><g transform="translate(-142,-62) scale(1,1)"><g><path fill="none" stroke="none"/><text fill="#000000" stroke="none" font-family="Arial" font-size="13px" font-style="normal" font-weight="normal" text-decoration="none" x="545.364990234375" y="546">(from 地图服务)</text></g></g><g transform="translate(-142,-62) scale(1,1)"><path fill="none" stroke="#000000" d="M 445 536 L 519 534" stroke-miterlimit="10" stroke-dasharray="3"/></g><g transform="translate(-142,-62) scale(1,1)"><path fill="none" stroke="#000000" d="M 508.95476404528245 538.4825477815691 L 519 534 L 508.72730560446007 530.0665854711406" stroke-miterlimit="10"/></g><g transform="translate(-142,-62) scale(1,1)"><g><path fill="none" stroke="none"/><text fill="#000000" stroke="none" font-family="Arial" font-size="13px" font-style="normal" font-weight="normal" text-decoration="none" x="453.5" y="511.5">«include»</text></g></g><g transform="translate(-142,-62) scale(1,1)"><path fill="#C0C0C0" stroke="none" d="M 327 714.5 C 327 699.312168 358.5639216 687 397.5 687 C 436.4360784 687 468 699.312168 468 714.5 C 468 729.687832 436.4360784 742 397.5 742 C 358.5639216 742 327 729.687832 327 714.5 Z" opacity="0.2"/></g><g transform="translate(-142,-62) scale(1,1)"><path fill="#ffffff" stroke="none" d="M 320 707.5 C 320 692.312168 351.5639216 680 390.5 680 C 429.4360784 680 461 692.312168 461 707.5 C 461 722.687832 429.4360784 735 390.5 735 C 351.5639216 735 320 722.687832 320 707.5 Z"/></g><g transform="translate(-142,-62) scale(1,1)"><path fill="none" stroke="#000000" d="M 320 707.5 C 320 692.312168 351.5639216 680 390.5 680 C 429.4360784 680 461 692.312168 461 707.5 C 461 722.687832 429.4360784 735 390.5 735 C 351.5639216 735 320 722.687832 320 707.5 Z" stroke-miterlimit="10"/></g><g transform="translate(-142,-62) scale(1,1)"><g><path fill="none" stroke="none"/><text fill="#000000" stroke="none" font-family="Arial" font-size="13px" font-style="normal" font-weight="bold" text-decoration="none" x="345" y="707">空间数据可视化</text></g></g><g transform="translate(-142,-62) scale(1,1)"><g><path fill="none" stroke="none"/><text fill="#000000" stroke="none" font-family="Arial" font-size="13px" font-style="normal" font-weight="normal" text-decoration="none" x="345.364990234375" y="722">(from 地图服务)</text></g></g><g transform="translate(-142,-62) scale(1,1)"><path fill="none" stroke="#000000" d="M 213 615 L 336 679" stroke-miterlimit="10"/></g><g transform="translate(-142,-62) scale(1,1)"><path fill="none" stroke="#000000" d="M 325.0416760749042 678.0433721974175 L 336 679 L 328.92773284840365 670.5748568358483" stroke-miterlimit="10"/></g><g transform="translate(-142,-62) scale(1,1)"><path fill="#C0C0C0" stroke="none" d="M 543 714.5 C 543 699.312168 574.340064 687 613 687 C 651.659936 687 683 699.312168 683 714.5 C 683 729.687832 651.659936 742 613 742 C 574.340064 742 543 729.687832 543 714.5 Z" opacity="0.2"/></g><g transform="translate(-142,-62) scale(1,1)"><path fill="#ffffff" stroke="none" d="M 536 707.5 C 536 692.312168 567.340064 680 606 680 C 644.659936 680 676 692.312168 676 707.5 C 676 722.687832 644.659936 735 606 735 C 567.340064 735 536 722.687832 536 707.5 Z"/></g><g transform="translate(-142,-62) scale(1,1)"><path fill="none" stroke="#000000" d="M 536 707.5 C 536 692.312168 567.340064 680 606 680 C 644.659936 680 676 692.312168 676 707.5 C 676 722.687832 644.659936 735 606 735 C 567.340064 735 536 722.687832 536 707.5 Z" stroke-miterlimit="10"/></g><g transform="translate(-142,-62) scale(1,1)"><g><path fill="none" stroke="none"/><text fill="#000000" stroke="none" font-family="Arial" font-size="13px" font-style="normal" font-weight="bold" text-decoration="none" x="580" y="707">数据读取</text></g></g><g transform="translate(-142,-62) scale(1,1)"><g><path fill="none" stroke="none"/><text fill="#000000" stroke="none" font-family="Arial" font-size="13px" font-style="normal" font-weight="normal" text-decoration="none" x="560.864990234375" y="722">(from 地图服务)</text></g></g><g transform="translate(-142,-62) scale(1,1)"><path fill="none" stroke="#000000" d="M 462 707 L 535 707" stroke-miterlimit="10" stroke-dasharray="3"/></g><g transform="translate(-142,-62) scale(1,1)"><path fill="none" stroke="#000000" d="M 524.8373251423759 711.209517756016 L 535 707 L 524.8373251423758 702.790482243984" stroke-miterlimit="10"/></g><g transform="translate(-142,-62) scale(1,1)"><g><path fill="none" stroke="none"/><text fill="#000000" stroke="none" font-family="Arial" font-size="13px" font-style="normal" font-weight="normal" text-decoration="none" x="470.5" y="683.5">«include»</text></g></g><g transform="translate(-142,-62) scale(1,1)"><path fill="#ffffff" stroke="none" d="M 789.4030026633523 273.68 C 789.4030026633523 268.886167936 793.2888449882977 265 798.082275390625 265 C 802.8757057929523 265 806.7615481178977 268.886167936 806.7615481178977 273.68 C 806.7615481178977 278.473832064 802.8757057929523 282.36 798.082275390625 282.36 C 793.2888449882977 282.36 789.4030026633523 278.473832064 789.4030026633523 273.68 Z"/></g><g transform="translate(-142,-62) scale(1,1)"><path fill="none" stroke="#000000" d="M 789.4030026633523 273.68 C 789.4030026633523 268.886167936 793.2888449882977 265 798.082275390625 265 C 802.8757057929523 265 806.7615481178977 268.886167936 806.7615481178977 273.68 C 806.7615481178977 278.473832064 802.8757057929523 282.36 798.082275390625 282.36 C 793.2888449882977 282.36 789.4030026633523 278.473832064 789.4030026633523 273.68 Z" stroke-miterlimit="10"/></g><g transform="translate(-142,-62) scale(1,1)"><path fill="none" stroke="#000000" d="M 798.082275390625 282.36 L 798.082275390625 299.64" stroke-miterlimit="10"/></g><g transform="translate(-142,-62) scale(1,1)"><path fill="none" stroke="#000000" d="M 788.8924572088068 288.84 L 807.2720935724432 288.84" stroke-miterlimit="10"/></g><g transform="translate(-142,-62) scale(1,1)"><path fill="none" stroke="#000000" d="M 798.082275390625 299.64 L 785.3186390269886 317" stroke-miterlimit="10"/></g><g transform="translate(-142,-62) scale(1,1)"><path fill="none" stroke="#000000" d="M 798.082275390625 299.64 L 810.8459117542614 317" stroke-miterlimit="10"/></g><g transform="translate(-142,-62) scale(1,1)"><g><path fill="none" stroke="none"/><text fill="#000000" stroke="none" font-family="Arial" font-size="13px" font-style="normal" font-weight="bold" text-decoration="none" x="766.63916015625" y="337.5">LeanCloud</text></g></g><g transform="translate(-142,-62) scale(1,1)"><path fill="#C0C0C0" stroke="none" d="M 927 210.5 C 927 195.31216799999999 958.340064 183 997 183 C 1035.659936 183 1067 195.31216799999999 1067 210.5 C 1067 225.68783200000001 1035.659936 238 997 238 C 958.340064 238 927 225.68783200000001 927 210.5 Z" opacity="0.2"/></g><g transform="translate(-142,-62) scale(1,1)"><path fill="#ffffff" stroke="none" d="M 920 203.5 C 920 188.31216799999999 951.340064 176 990 176 C 1028.659936 176 1060 188.31216799999999 1060 203.5 C 1060 218.68783200000001 1028.659936 231 990 231 C 951.340064 231 920 218.68783200000001 920 203.5 Z"/></g><g transform="translate(-142,-62) scale(1,1)"><path fill="none" stroke="#000000" d="M 920 203.5 C 920 188.31216799999999 951.340064 176 990 176 C 1028.659936 176 1060 188.31216799999999 1060 203.5 C 1060 218.68783200000001 1028.659936 231 990 231 C 951.340064 231 920 218.68783200000001 920 203.5 Z" stroke-miterlimit="10"/></g><g transform="translate(-142,-62) scale(1,1)"><g><path fill="none" stroke="none"/><text fill="#000000" stroke="none" font-family="Arial" font-size="13px" font-style="normal" font-weight="bold" text-decoration="none" x="964" y="203">数据提取</text></g></g><g transform="translate(-142,-62) scale(1,1)"><g><path fill="none" stroke="none"/><text fill="#000000" stroke="none" font-family="Arial" font-size="13px" font-style="normal" font-weight="normal" text-decoration="none" x="944.864990234375" y="218">(from 数据服务)</text></g></g><g transform="translate(-142,-62) scale(1,1)"><path fill="#C0C0C0" stroke="none" d="M 919 306.5 C 919 291.312168 950.340064 279 989 279 C 1027.659936 279 1059 291.312168 1059 306.5 C 1059 321.687832 1027.659936 334 989 334 C 950.340064 334 919 321.687832 919 306.5 Z" opacity="0.2"/></g><g transform="translate(-142,-62) scale(1,1)"><path fill="#ffffff" stroke="none" d="M 912 299.5 C 912 284.312168 943.340064 272 982 272 C 1020.659936 272 1052 284.312168 1052 299.5 C 1052 314.687832 1020.659936 327 982 327 C 943.340064 327 912 314.687832 912 299.5 Z"/></g><g transform="translate(-142,-62) scale(1,1)"><path fill="none" stroke="#000000" d="M 912 299.5 C 912 284.312168 943.340064 272 982 272 C 1020.659936 272 1052 284.312168 1052 299.5 C 1052 314.687832 1020.659936 327 982 327 C 943.340064 327 912 314.687832 912 299.5 Z" stroke-miterlimit="10"/></g><g transform="translate(-142,-62) scale(1,1)"><g><path fill="none" stroke="none"/><text fill="#000000" stroke="none" font-family="Arial" font-size="13px" font-style="normal" font-weight="bold" text-decoration="none" x="956" y="299">数据管理</text></g></g><g transform="translate(-142,-62) scale(1,1)"><g><path fill="none" stroke="none"/><text fill="#000000" stroke="none" font-family="Arial" font-size="13px" font-style="normal" font-weight="normal" text-decoration="none" x="936.864990234375" y="314">(from 数据服务)</text></g></g><g transform="translate(-142,-62) scale(1,1)"><path fill="#C0C0C0" stroke="none" d="M 927 410.5 C 927 395.312168 958.340064 383 997 383 C 1035.659936 383 1067 395.312168 1067 410.5 C 1067 425.687832 1035.659936 438 997 438 C 958.340064 438 927 425.687832 927 410.5 Z" opacity="0.2"/></g><g transform="translate(-142,-62) scale(1,1)"><path fill="#ffffff" stroke="none" d="M 920 403.5 C 920 388.312168 951.340064 376 990 376 C 1028.659936 376 1060 388.312168 1060 403.5 C 1060 418.687832 1028.659936 431 990 431 C 951.340064 431 920 418.687832 920 403.5 Z"/></g><g transform="translate(-142,-62) scale(1,1)"><path fill="none" stroke="#000000" d="M 920 403.5 C 920 388.312168 951.340064 376 990 376 C 1028.659936 376 1060 388.312168 1060 403.5 C 1060 418.687832 1028.659936 431 990 431 C 951.340064 431 920 418.687832 920 403.5 Z" stroke-miterlimit="10"/></g><g transform="translate(-142,-62) scale(1,1)"><g><path fill="none" stroke="none"/><text fill="#000000" stroke="none" font-family="Arial" font-size="13px" font-style="normal" font-weight="bold" text-decoration="none" x="964" y="403">数据查询</text></g></g><g transform="translate(-142,-62) scale(1,1)"><g><path fill="none" stroke="none"/><text fill="#000000" stroke="none" font-family="Arial" font-size="13px" font-style="normal" font-weight="normal" text-decoration="none" x="944.864990234375" y="418">(from 数据服务)</text></g></g><g transform="translate(-142,-62) scale(1,1)"><path fill="#C0C0C0" stroke="none" d="M 1167 306.5 C 1167 291.312168 1198.5639216 279 1237.5 279 C 1276.4360784 279 1308 291.312168 1308 306.5 C 1308 321.687832 1276.4360784 334 1237.5 334 C 1198.5639216 334 1167 321.687832 1167 306.5 Z" opacity="0.2"/></g><g transform="translate(-142,-62) scale(1,1)"><path fill="#ffffff" stroke="none" d="M 1160 299.5 C 1160 284.312168 1191.5639216 272 1230.5 272 C 1269.4360784 272 1301 284.312168 1301 299.5 C 1301 314.687832 1269.4360784 327 1230.5 327 C 1191.5639216 327 1160 314.687832 1160 299.5 Z"/></g><g transform="translate(-142,-62) scale(1,1)"><path fill="none" stroke="#000000" d="M 1160 299.5 C 1160 284.312168 1191.5639216 272 1230.5 272 C 1269.4360784 272 1301 284.312168 1301 299.5 C 1301 314.687832 1269.4360784 327 1230.5 327 C 1191.5639216 327 1160 314.687832 1160 299.5 Z" stroke-miterlimit="10"/></g><g transform="translate(-142,-62) scale(1,1)"><g><path fill="none" stroke="none"/><text fill="#000000" stroke="none" font-family="Arial" font-size="13px" font-style="normal" font-weight="bold" text-decoration="none" x="1185" y="299">开发者身份验证</text></g></g><g transform="translate(-142,-62) scale(1,1)"><g><path fill="none" stroke="none"/><text fill="#000000" stroke="none" font-family="Arial" font-size="13px" font-style="normal" font-weight="normal" text-decoration="none" x="1185.364990234375" y="314">(from 数据服务)</text></g></g><g transform="translate(-142,-62) scale(1,1)"><path fill="none" stroke="#000000" d="M 837 283 L 934 232" stroke-miterlimit="10"/></g><g transform="translate(-142,-62) scale(1,1)"><path fill="none" stroke="#000000" d="M 926.9638376533177 240.45531900232805 L 934 232 L 923.0458684874899 233.00349529477313" stroke-miterlimit="10"/></g><g transform="translate(-142,-62) scale(1,1)"><path fill="none" stroke="#000000" d="M 837 302 L 911 301" stroke-miterlimit="10"/></g><g transform="translate(-142,-62) scale(1,1)"><path fill="none" stroke="#000000" d="M 900.8951331257106 305.3464543541705 L 911 301 L 900.7813727622508 296.92818745815435" stroke-miterlimit="10"/></g><g transform="translate(-142,-62) scale(1,1)"><path fill="none" stroke="#000000" d="M 837 323 L 936 375" stroke-miterlimit="10"/></g><g transform="translate(-142,-62) scale(1,1)"><path fill="none" stroke="#000000" d="M 925.0454599764386 374.0009740382796 L 936 375 L 928.9603884966742 366.54755243244637" stroke-miterlimit="10"/></g><g transform="translate(-142,-62) scale(1,1)"><path fill="none" stroke="#000000" d="M 1061 231 L 1160 271" stroke-miterlimit="10" stroke-dasharray="3"/></g><g transform="translate(-142,-62) scale(1,1)"><path fill="none" stroke="#000000" d="M 1149.0004176771124 271.0958578219012 L 1160 271 L 1152.1543390333704 263.28990246516264" stroke-miterlimit="10"/></g><g transform="translate(-142,-62) scale(1,1)"><g><path fill="none" stroke="none"/><text fill="#000000" stroke="none" font-family="Arial" font-size="13px" font-style="normal" font-weight="normal" text-decoration="none" x="1093.5" y="229.5">«include»</text></g></g><g transform="translate(-142,-62) scale(1,1)"><path fill="none" stroke="#000000" d="M 1053 299 L 1159 299" stroke-miterlimit="10" stroke-dasharray="3"/></g><g transform="translate(-142,-62) scale(1,1)"><path fill="none" stroke="#000000" d="M 1148.837325142376 303.209517756016 L 1159 299 L 1148.837325142376 294.790482243984" stroke-miterlimit="10"/></g><g transform="translate(-142,-62) scale(1,1)"><g><path fill="none" stroke="none"/><text fill="#000000" stroke="none" font-family="Arial" font-size="13px" font-style="normal" font-weight="normal" text-decoration="none" x="1078.5" y="275.5">«include»</text></g></g><g transform="translate(-142,-62) scale(1,1)"><path fill="none" stroke="#000000" d="M 1055 375 L 1163 328" stroke-miterlimit="10" stroke-dasharray="3"/></g><g transform="translate(-142,-62) scale(1,1)"><path fill="none" stroke="#000000" d="M 1155.3612388672914 335.9151328704841 L 1163 328 L 1152.0017360764855 328.1954243299093" stroke-miterlimit="10"/></g><g transform="translate(-142,-62) scale(1,1)"><g><path fill="none" stroke="none"/><text fill="#000000" stroke="none" font-family="Arial" font-size="13px" font-style="normal" font-weight="normal" text-decoration="none" x="1069.5" y="329.5">«include»</text></g></g><g transform="translate(-142,-62) scale(1,1)"><path fill="#ffffff" stroke="none" d="M 805.6593503196023 593.6800000000001 C 805.6593503196023 588.8861679360001 809.5451926445477 585 814.338623046875 585 C 819.1320534492023 585 823.0178957741477 588.8861679360001 823.0178957741477 593.6800000000001 C 823.0178957741477 598.473832064 819.1320534492023 602.36 814.338623046875 602.36 C 809.5451926445477 602.36 805.6593503196023 598.473832064 805.6593503196023 593.6800000000001 Z"/></g><g transform="translate(-142,-62) scale(1,1)"><path fill="none" stroke="#000000" d="M 805.6593503196023 593.6800000000001 C 805.6593503196023 588.8861679360001 809.5451926445477 585 814.338623046875 585 C 819.1320534492023 585 823.0178957741477 588.8861679360001 823.0178957741477 593.6800000000001 C 823.0178957741477 598.473832064 819.1320534492023 602.36 814.338623046875 602.36 C 809.5451926445477 602.36 805.6593503196023 598.473832064 805.6593503196023 593.6800000000001 Z" stroke-miterlimit="10"/></g><g transform="translate(-142,-62) scale(1,1)"><path fill="none" stroke="#000000" d="M 814.338623046875 602.36 L 814.338623046875 619.64" stroke-miterlimit="10"/></g><g transform="translate(-142,-62) scale(1,1)"><path fill="none" stroke="#000000" d="M 805.1488048650568 608.84 L 823.5284412286932 608.84" stroke-miterlimit="10"/></g><g transform="translate(-142,-62) scale(1,1)"><path fill="none" stroke="#000000" d="M 814.338623046875 619.64 L 801.5749866832386 637" stroke-miterlimit="10"/></g><g transform="translate(-142,-62) scale(1,1)"><path fill="none" stroke="#000000" d="M 814.338623046875 619.64 L 827.1022594105114 637" stroke-miterlimit="10"/></g><g transform="translate(-142,-62) scale(1,1)"><g><path fill="none" stroke="none"/><text fill="#000000" stroke="none" font-family="Arial" font-size="13px" font-style="normal" font-weight="bold" text-decoration="none" x="768.806884765625" y="657.5">tencent location</text></g></g><g transform="translate(-142,-62) scale(1,1)"><path fill="#C0C0C0" stroke="none" d="M 935 538.5 C 935 523.312168 966.340064 511 1005 511 C 1043.659936 511 1075 523.312168 1075 538.5 C 1075 553.687832 1043.659936 566 1005 566 C 966.340064 566 935 553.687832 935 538.5 Z" opacity="0.2"/></g><g transform="translate(-142,-62) scale(1,1)"><path fill="#ffffff" stroke="none" d="M 928 531.5 C 928 516.312168 959.340064 504 998 504 C 1036.659936 504 1068 516.312168 1068 531.5 C 1068 546.687832 1036.659936 559 998 559 C 959.340064 559 928 546.687832 928 531.5 Z"/></g><g transform="translate(-142,-62) scale(1,1)"><path fill="none" stroke="#000000" d="M 928 531.5 C 928 516.312168 959.340064 504 998 504 C 1036.659936 504 1068 516.312168 1068 531.5 C 1068 546.687832 1036.659936 559 998 559 C 959.340064 559 928 546.687832 928 531.5 Z" stroke-miterlimit="10"/></g><g transform="translate(-142,-62) scale(1,1)"><g><path fill="none" stroke="none"/><text fill="#000000" stroke="none" font-family="Arial" font-size="13px" font-style="normal" font-weight="bold" text-decoration="none" x="959" y="531">响应定位请求</text></g></g><g transform="translate(-142,-62) scale(1,1)"><g><path fill="none" stroke="none"/><text fill="#000000" stroke="none" font-family="Arial" font-size="13px" font-style="normal" font-weight="normal" text-decoration="none" x="952.864990234375" y="546">(from 定位服务)</text></g></g><g transform="translate(-142,-62) scale(1,1)"><path fill="#C0C0C0" stroke="none" d="M 927 658.5 C 927 643.312168 958.340064 631 997 631 C 1035.659936 631 1067 643.312168 1067 658.5 C 1067 673.687832 1035.659936 686 997 686 C 958.340064 686 927 673.687832 927 658.5 Z" opacity="0.2"/></g><g transform="translate(-142,-62) scale(1,1)"><path fill="#ffffff" stroke="none" d="M 920 651.5 C 920 636.312168 951.340064 624 990 624 C 1028.659936 624 1060 636.312168 1060 651.5 C 1060 666.687832 1028.659936 679 990 679 C 951.340064 679 920 666.687832 920 651.5 Z"/></g><g transform="translate(-142,-62) scale(1,1)"><path fill="none" stroke="#000000" d="M 920 651.5 C 920 636.312168 951.340064 624 990 624 C 1028.659936 624 1060 636.312168 1060 651.5 C 1060 666.687832 1028.659936 679 990 679 C 951.340064 679 920 666.687832 920 651.5 Z" stroke-miterlimit="10"/></g><g transform="translate(-142,-62) scale(1,1)"><g><path fill="none" stroke="none"/><text fill="#000000" stroke="none" font-family="Arial" font-size="13px" font-style="normal" font-weight="bold" text-decoration="none" x="951" y="651">设置定位属性</text></g></g><g transform="translate(-142,-62) scale(1,1)"><g><path fill="none" stroke="none"/><text fill="#000000" stroke="none" font-family="Arial" font-size="13px" font-style="normal" font-weight="normal" text-decoration="none" x="944.864990234375" y="666">(from 定位服务)</text></g></g><g transform="translate(-142,-62) scale(1,1)"><path fill="#C0C0C0" stroke="none" d="M 903 786.5 C 903 771.312168 934.340064 759 973 759 C 1011.659936 759 1043 771.312168 1043 786.5 C 1043 801.687832 1011.659936 814 973 814 C 934.340064 814 903 801.687832 903 786.5 Z" opacity="0.2"/></g><g transform="translate(-142,-62) scale(1,1)"><path fill="#ffffff" stroke="none" d="M 896 779.5 C 896 764.312168 927.340064 752 966 752 C 1004.659936 752 1036 764.312168 1036 779.5 C 1036 794.687832 1004.659936 807 966 807 C 927.340064 807 896 794.687832 896 779.5 Z"/></g><g transform="translate(-142,-62) scale(1,1)"><path fill="none" stroke="#000000" d="M 896 779.5 C 896 764.312168 927.340064 752 966 752 C 1004.659936 752 1036 764.312168 1036 779.5 C 1036 794.687832 1004.659936 807 966 807 C 927.340064 807 896 794.687832 896 779.5 Z" stroke-miterlimit="10"/></g><g transform="translate(-142,-62) scale(1,1)"><g><path fill="none" stroke="none"/><text fill="#000000" stroke="none" font-family="Arial" font-size="13px" font-style="normal" font-weight="bold" text-decoration="none" x="927" y="779">返回定位结果</text></g></g><g transform="translate(-142,-62) scale(1,1)"><g><path fill="none" stroke="none"/><text fill="#000000" stroke="none" font-family="Arial" font-size="13px" font-style="normal" font-weight="normal" text-decoration="none" x="920.864990234375" y="794">(from 定位服务)</text></g></g><g transform="translate(-142,-62) scale(1,1)"><path fill="#C0C0C0" stroke="none" d="M 1170 714.5 C 1170 699.312168 1201.5639216 687 1240.5 687 C 1279.4360784 687 1311 699.312168 1311 714.5 C 1311 729.687832 1279.4360784 742 1240.5 742 C 1201.5639216 742 1170 729.687832 1170 714.5 Z" opacity="0.2"/></g><g transform="translate(-142,-62) scale(1,1)"><path fill="#ffffff" stroke="none" d="M 1163 707.5 C 1163 692.312168 1194.5639216 680 1233.5 680 C 1272.4360784 680 1304 692.312168 1304 707.5 C 1304 722.687832 1272.4360784 735 1233.5 735 C 1194.5639216 735 1163 722.687832 1163 707.5 Z"/></g><g transform="translate(-142,-62) scale(1,1)"><path fill="none" stroke="#000000" d="M 1163 707.5 C 1163 692.312168 1194.5639216 680 1233.5 680 C 1272.4360784 680 1304 692.312168 1304 707.5 C 1304 722.687832 1272.4360784 735 1233.5 735 C 1194.5639216 735 1163 722.687832 1163 707.5 Z" stroke-miterlimit="10"/></g><g transform="translate(-142,-62) scale(1,1)"><g><path fill="none" stroke="none"/><text fill="#000000" stroke="none" font-family="Arial" font-size="13px" font-style="normal" font-weight="bold" text-decoration="none" x="1188" y="707">验证开发者身份</text></g></g><g transform="translate(-142,-62) scale(1,1)"><g><path fill="none" stroke="none"/><text fill="#000000" stroke="none" font-family="Arial" font-size="13px" font-style="normal" font-weight="normal" text-decoration="none" x="1188.364990234375" y="722">(from 定位服务)</text></g></g><g transform="translate(-142,-62) scale(1,1)"><path fill="none" stroke="#000000" d="M 870 595 L 940 560" stroke-miterlimit="10"/></g><g transform="translate(-142,-62) scale(1,1)"><path fill="none" stroke="#000000" d="M 932.7927808450386 568.3099935049528 L 940 560 L 929.0276737030609 560.7797792209975" stroke-miterlimit="10"/></g><g transform="translate(-142,-62) scale(1,1)"><path fill="none" stroke="#000000" d="M 870 632 L 919 640" stroke-miterlimit="10"/></g><g transform="translate(-142,-62) scale(1,1)"><path fill="none" stroke="#000000" d="M 908.2918344368892 642.5169803878871 L 919 640 L 909.6484096158675 634.2079574166446" stroke-miterlimit="10"/></g><g transform="translate(-142,-62) scale(1,1)"><path fill="none" stroke="#000000" d="M 854 664 L 939 751" stroke-miterlimit="10"/></g><g transform="translate(-142,-62) scale(1,1)"><path fill="none" stroke="#000000" d="M 928.8869566834476 746.6726041459633 L 939 751 L 934.9089294457003 740.7890675391645" stroke-miterlimit="10"/></g><g transform="translate(-142,-62) scale(1,1)"><path fill="none" stroke="#000000" d="M 1037 560 L 1196 679" stroke-miterlimit="10" stroke-dasharray="3"/></g><g transform="translate(-142,-62) scale(1,1)"><path fill="none" stroke="#000000" d="M 1185.3414056296306 676.2807416364145 L 1196 679 L 1190.3860416714845 669.5404296141055" stroke-miterlimit="10"/></g><g transform="translate(-142,-62) scale(1,1)"><g><path fill="none" stroke="none"/><text fill="#000000" stroke="none" font-family="Arial" font-size="13px" font-style="normal" font-weight="normal" text-decoration="none" x="1105.5" y="600.5">«include»</text></g></g><g transform="translate(-142,-62) scale(1,1)"><path fill="#C0C0C0" stroke="none" d="M 327 106.5 C 327 91.312168 358.340064 79 397 79 C 435.659936 79 467 91.312168 467 106.5 C 467 121.687832 435.659936 134 397 134 C 358.340064 134 327 121.687832 327 106.5 Z" opacity="0.2"/></g><g transform="translate(-142,-62) scale(1,1)"><path fill="#ffffff" stroke="none" d="M 320 99.5 C 320 84.312168 351.340064 72 390 72 C 428.659936 72 460 84.312168 460 99.5 C 460 114.687832 428.659936 127 390 127 C 351.340064 127 320 114.687832 320 99.5 Z"/></g><g transform="translate(-142,-62) scale(1,1)"><path fill="none" stroke="#000000" d="M 320 99.5 C 320 84.312168 351.340064 72 390 72 C 428.659936 72 460 84.312168 460 99.5 C 460 114.687832 428.659936 127 390 127 C 351.340064 127 320 114.687832 320 99.5 Z" stroke-miterlimit="10"/></g><g transform="translate(-142,-62) scale(1,1)"><g><path fill="none" stroke="none"/><text fill="#000000" stroke="none" font-family="Arial" font-size="13px" font-style="normal" font-weight="bold" text-decoration="none" x="364" y="99">室内导航</text></g></g><g transform="translate(-142,-62) scale(1,1)"><g><path fill="none" stroke="none"/><text fill="#000000" stroke="none" font-family="Arial" font-size="13px" font-style="normal" font-weight="normal" text-decoration="none" x="344.864990234375" y="114">(from 室内导航)</text></g></g><g transform="translate(-142,-62) scale(1,1)"><path fill="none" stroke="#000000" d="M 210 266 L 359 128" stroke-miterlimit="10"/></g><g transform="translate(-142,-62) scale(1,1)"><path fill="none" stroke="#000000" d="M 354.40434632498165 137.99399656290166 L 359 128 L 348.6835593816268 131.81720486319247" stroke-miterlimit="10"/></g></g></svg>