<svg version="1.1" xmlns="http://www.w3.org/2000/svg" xmlns:xlink="http://www.w3.org/1999/xlink" width="1014.6181640625" height="791"><defs/><g><g transform="translate(-70,-134) scale(1,1)"><rect fill="#C0C0C0" stroke="none" x="303" y="479" width="88.78369140625" height="59" opacity="0.2"/></g><g transform="translate(-70,-134) scale(1,1)"><rect fill="#ffffff" stroke="none" x="296" y="472" width="88.78369140625" height="59"/></g><g transform="translate(-70,-134) scale(1,1)"><path fill="none" stroke="#000000" d="M 296 472 L 384.78369140625 472 L 384.78369140625 531 L 296 531 L 296 472 Z Z" stroke-miterlimit="10"/></g><g transform="translate(-70,-134) scale(1,1)"><path fill="none" stroke="#000000" d="M 296 512 L 384.78369140625 512" stroke-miterlimit="10"/></g><g transform="translate(-70,-134) scale(1,1)"><path fill="none" stroke="#000000" d="M 296 522 L 384.78369140625 522" stroke-miterlimit="10"/></g><g transform="translate(-70,-134) scale(1,1)"><g><path fill="none" stroke="none"/><text fill="#000000" stroke="none" font-family="Arial" font-size="13px" font-style="normal" font-weight="bold" text-decoration="none" x="304.990966796875" y="491.5">BaseActivity</text></g></g><g transform="translate(-70,-134) scale(1,1)"><g><path fill="none" stroke="none"/><text fill="#000000" stroke="none" font-family="Arial" font-size="13px" font-style="normal" font-weight="normal" text-decoration="none" x="300.67138671875" y="506.5">(from Activity)</text></g></g><g transform="translate(-70,-134) scale(1,1)"><rect fill="#C0C0C0" stroke="none" x="663" y="359" width="88.78369140625" height="59" opacity="0.2"/></g><g transform="translate(-70,-134) scale(1,1)"><rect fill="#ffffff" stroke="none" x="656" y="352" width="88.78369140625" height="59"/></g><g transform="translate(-70,-134) scale(1,1)"><path fill="none" stroke="#000000" d="M 656 352 L 744.78369140625 352 L 744.78369140625 411 L 656 411 L 656 352 Z Z" stroke-miterlimit="10"/></g><g transform="translate(-70,-134) scale(1,1)"><path fill="none" stroke="#000000" d="M 656 392 L 744.78369140625 392" stroke-miterlimit="10"/></g><g transform="translate(-70,-134) scale(1,1)"><path fill="none" stroke="#000000" d="M 656 402 L 744.78369140625 402" stroke-miterlimit="10"/></g><g transform="translate(-70,-134) scale(1,1)"><g><path fill="none" stroke="none"/><text fill="#000000" stroke="none" font-family="Arial" font-size="13px" font-style="normal" font-weight="bold" text-decoration="none" x="666.438232421875" y="371.5">Mainactivity</text></g></g><g transform="translate(-70,-134) scale(1,1)"><g><path fill="none" stroke="none"/><text fill="#000000" stroke="none" font-family="Arial" font-size="13px" font-style="normal" font-weight="normal" text-decoration="none" x="660.67138671875" y="386.5">(from Activity)</text></g></g><g transform="translate(-70,-134) scale(1,1)"><path fill="none" stroke="#000000" d="M 655 396 L 386 486" stroke-miterlimit="10"/></g><g transform="translate(-70,-134) scale(1,1)"><path fill="#FFFFFF" stroke="none" d="M 402.60390708398506 471.5670422453888 L 386 486 L 407.9463775941417 487.5350929924126"/></g><g transform="translate(-70,-134) scale(1,1)"><path fill="none" stroke="#000000" d="M 402.60390708398506 471.5670422453888 L 386 486 L 407.9463775941417 487.5350929924126 L 402.60390708398506 471.5670422453888" stroke-miterlimit="10"/></g><g transform="translate(-70,-134) scale(1,1)"><rect fill="#C0C0C0" stroke="none" x="495" y="311" width="93.5" height="59" opacity="0.2"/></g><g transform="translate(-70,-134) scale(1,1)"><rect fill="#ffffff" stroke="none" x="488" y="304" width="93.5" height="59"/></g><g transform="translate(-70,-134) scale(1,1)"><path fill="none" stroke="#000000" d="M 488 304 L 581.5 304 L 581.5 363 L 488 363 L 488 304 Z Z" stroke-miterlimit="10"/></g><g transform="translate(-70,-134) scale(1,1)"><path fill="none" stroke="#000000" d="M 488 344 L 581.5 344" stroke-miterlimit="10"/></g><g transform="translate(-70,-134) scale(1,1)"><path fill="none" stroke="#000000" d="M 488 354 L 581.5 354" stroke-miterlimit="10"/></g><g transform="translate(-70,-134) scale(1,1)"><g><path fill="none" stroke="none"/><text fill="#000000" stroke="none" font-family="Arial" font-size="13px" font-style="normal" font-weight="bold" text-decoration="none" x="497.17822265625" y="323.5">AboutActivity</text></g></g><g transform="translate(-70,-134) scale(1,1)"><g><path fill="none" stroke="none"/><text fill="#000000" stroke="none" font-family="Arial" font-size="13px" font-style="normal" font-weight="normal" text-decoration="none" x="495.029541015625" y="338.5">(from Activity)</text></g></g><g transform="translate(-70,-134) scale(1,1)"><rect fill="#C0C0C0" stroke="none" x="127" y="231" width="88.78369140625" height="59" opacity="0.2"/></g><g transform="translate(-70,-134) scale(1,1)"><rect fill="#ffffff" stroke="none" x="120" y="224" width="88.78369140625" height="59"/></g><g transform="translate(-70,-134) scale(1,1)"><path fill="none" stroke="#000000" d="M 120 224 L 208.78369140625 224 L 208.78369140625 283 L 120 283 L 120 224 Z Z" stroke-miterlimit="10"/></g><g transform="translate(-70,-134) scale(1,1)"><path fill="none" stroke="#000000" d="M 120 264 L 208.78369140625 264" stroke-miterlimit="10"/></g><g transform="translate(-70,-134) scale(1,1)"><path fill="none" stroke="#000000" d="M 120 274 L 208.78369140625 274" stroke-miterlimit="10"/></g><g transform="translate(-70,-134) scale(1,1)"><g><path fill="none" stroke="none"/><text fill="#000000" stroke="none" font-family="Arial" font-size="13px" font-style="normal" font-weight="bold" text-decoration="none" x="129.352783203125" y="243.5">RegisterActi</text></g></g><g transform="translate(-70,-134) scale(1,1)"><g><path fill="none" stroke="none"/><text fill="#000000" stroke="none" font-family="Arial" font-size="13px" font-style="normal" font-weight="normal" text-decoration="none" x="124.67138671875" y="258.5">(from Activity)</text></g></g><g transform="translate(-70,-134) scale(1,1)"><rect fill="#C0C0C0" stroke="none" x="871" y="471" width="89.9326171875" height="59" opacity="0.2"/></g><g transform="translate(-70,-134) scale(1,1)"><rect fill="#ffffff" stroke="none" x="864" y="464" width="89.9326171875" height="59"/></g><g transform="translate(-70,-134) scale(1,1)"><path fill="none" stroke="#000000" d="M 864 464 L 953.9326171875 464 L 953.9326171875 523 L 864 523 L 864 464 Z Z" stroke-miterlimit="10"/></g><g transform="translate(-70,-134) scale(1,1)"><path fill="none" stroke="#000000" d="M 864 504 L 953.9326171875 504" stroke-miterlimit="10"/></g><g transform="translate(-70,-134) scale(1,1)"><path fill="none" stroke="#000000" d="M 864 514 L 953.9326171875 514" stroke-miterlimit="10"/></g><g transform="translate(-70,-134) scale(1,1)"><g><path fill="none" stroke="none"/><text fill="#000000" stroke="none" font-family="Arial" font-size="13px" font-style="normal" font-weight="bold" text-decoration="none" x="872.3720703125" y="483.5">TrackActivity</text></g></g><g transform="translate(-70,-134) scale(1,1)"><g><path fill="none" stroke="none"/><text fill="#000000" stroke="none" font-family="Arial" font-size="13px" font-style="normal" font-weight="normal" text-decoration="none" x="869.245849609375" y="498.5">(from Activity)</text></g></g><g transform="translate(-70,-134) scale(1,1)"><rect fill="#C0C0C0" stroke="none" x="487" y="151" width="91.33544921875" height="59" opacity="0.2"/></g><g transform="translate(-70,-134) scale(1,1)"><rect fill="#ffffff" stroke="none" x="480" y="144" width="91.33544921875" height="59"/></g><g transform="translate(-70,-134) scale(1,1)"><path fill="none" stroke="#000000" d="M 480 144 L 571.33544921875 144 L 571.33544921875 203 L 480 203 L 480 144 Z Z" stroke-miterlimit="10"/></g><g transform="translate(-70,-134) scale(1,1)"><path fill="none" stroke="#000000" d="M 480 184 L 571.33544921875 184" stroke-miterlimit="10"/></g><g transform="translate(-70,-134) scale(1,1)"><path fill="none" stroke="#000000" d="M 480 194 L 571.33544921875 194" stroke-miterlimit="10"/></g><g transform="translate(-70,-134) scale(1,1)"><g><path fill="none" stroke="none"/><text fill="#000000" stroke="none" font-family="Arial" font-size="13px" font-style="normal" font-weight="bold" text-decoration="none" x="489.17822265625" y="163.5">LoginActivity</text></g></g><g transform="translate(-70,-134) scale(1,1)"><g><path fill="none" stroke="none"/><text fill="#000000" stroke="none" font-family="Arial" font-size="13px" font-style="normal" font-weight="normal" text-decoration="none" x="485.947265625" y="178.5">(from Activity)</text></g></g><g transform="translate(-70,-134) scale(1,1)"><rect fill="#C0C0C0" stroke="none" x="831" y="679" width="123.8544921875" height="59" opacity="0.2"/></g><g transform="translate(-70,-134) scale(1,1)"><rect fill="#ffffff" stroke="none" x="824" y="672" width="123.8544921875" height="59"/></g><g transform="translate(-70,-134) scale(1,1)"><path fill="none" stroke="#000000" d="M 824 672 L 947.8544921875 672 L 947.8544921875 731 L 824 731 L 824 672 Z Z" stroke-miterlimit="10"/></g><g transform="translate(-70,-134) scale(1,1)"><path fill="none" stroke="#000000" d="M 824 712 L 947.8544921875 712" stroke-miterlimit="10"/></g><g transform="translate(-70,-134) scale(1,1)"><path fill="none" stroke="#000000" d="M 824 722 L 947.8544921875 722" stroke-miterlimit="10"/></g><g transform="translate(-70,-134) scale(1,1)"><g><path fill="none" stroke="none"/><text fill="#000000" stroke="none" font-family="Arial" font-size="13px" font-style="normal" font-weight="bold" text-decoration="none" x="833.905029296875" y="691.5">PersonInfoActivity</text></g></g><g transform="translate(-70,-134) scale(1,1)"><g><path fill="none" stroke="none"/><text fill="#000000" stroke="none" font-family="Arial" font-size="13px" font-style="normal" font-weight="normal" text-decoration="none" x="846.206787109375" y="706.5">(from Activity)</text></g></g><g transform="translate(-70,-134) scale(1,1)"><path fill="none" stroke="#000000" d="M 508 204 L 357 471" stroke-miterlimit="10"/></g><g transform="translate(-70,-134) scale(1,1)"><path fill="#FFFFFF" stroke="none" d="M 359.6773255110125 449.163518412801 L 357 471 L 374.3338792318443 457.4524308167171"/></g><g transform="translate(-70,-134) scale(1,1)"><path fill="none" stroke="#000000" d="M 359.6773255110125 449.163518412801 L 357 471 L 374.3338792318443 457.4524308167171 L 359.6773255110125 449.163518412801" stroke-miterlimit="10"/></g><g transform="translate(-70,-134) scale(1,1)"><path fill="none" stroke="#000000" d="M 823 678 L 386 518" stroke-miterlimit="10"/></g><g transform="translate(-70,-134) scale(1,1)"><path fill="#FFFFFF" stroke="none" d="M 407.9808520150565 517.0823155813755 L 386 518 L 402.1917103915031 532.8939086407058"/></g><g transform="translate(-70,-134) scale(1,1)"><path fill="none" stroke="#000000" d="M 407.9808520150565 517.0823155813755 L 386 518 L 402.1917103915031 532.8939086407058 L 407.9808520150565 517.0823155813755" stroke-miterlimit="10"/></g><g transform="translate(-70,-134) scale(1,1)"><path fill="none" stroke="#000000" d="M 863 494 L 386 500" stroke-miterlimit="10"/></g><g transform="translate(-70,-134) scale(1,1)"><path fill="#FFFFFF" stroke="none" d="M 406.2178505105284 491.3259858926835 L 386 500 L 406.4296333924018 508.16272500161926"/></g><g transform="translate(-70,-134) scale(1,1)"><path fill="none" stroke="#000000" d="M 406.2178505105284 491.3259858926835 L 386 500 L 406.4296333924018 508.16272500161926 L 406.2178505105284 491.3259858926835" stroke-miterlimit="10"/></g><g transform="translate(-70,-134) scale(1,1)"><path fill="none" stroke="#000000" d="M 186 284 L 319 471" stroke-miterlimit="10"/></g><g transform="translate(-70,-134) scale(1,1)"><path fill="#FFFFFF" stroke="none" d="M 300.3589164117879 459.31625048808 L 319 471 L 314.0804218956736 449.55710487654636"/></g><g transform="translate(-70,-134) scale(1,1)"><path fill="none" stroke="#000000" d="M 300.3589164117879 459.31625048808 L 319 471 L 314.0804218956736 449.55710487654636 L 300.3589164117879 459.31625048808" stroke-miterlimit="10"/></g><g transform="translate(-70,-134) scale(1,1)"><path fill="none" stroke="#000000" d="M 498 364 L 375 471" stroke-miterlimit="10"/></g><g transform="translate(-70,-134) scale(1,1)"><path fill="#FFFFFF" stroke="none" d="M 384.8092664426281 451.3079129633873 L 375 471 L 395.86060709935253 464.0117905407434"/></g><g transform="translate(-70,-134) scale(1,1)"><path fill="none" stroke="#000000" d="M 384.8092664426281 451.3079129633873 L 375 471 L 395.86060709935253 464.0117905407434 L 384.8092664426281 451.3079129633873" stroke-miterlimit="10"/></g><g transform="translate(-70,-134) scale(1,1)"><rect fill="#C0C0C0" stroke="none" x="335" y="735" width="100.0126953125" height="59" opacity="0.2"/></g><g transform="translate(-70,-134) scale(1,1)"><rect fill="#ffffff" stroke="none" x="328" y="728" width="100.0126953125" height="59"/></g><g transform="translate(-70,-134) scale(1,1)"><path fill="none" stroke="#000000" d="M 328 728 L 428.0126953125 728 L 428.0126953125 787 L 328 787 L 328 728 Z Z" stroke-miterlimit="10"/></g><g transform="translate(-70,-134) scale(1,1)"><path fill="none" stroke="#000000" d="M 328 768 L 428.0126953125 768" stroke-miterlimit="10"/></g><g transform="translate(-70,-134) scale(1,1)"><path fill="none" stroke="#000000" d="M 328 778 L 428.0126953125 778" stroke-miterlimit="10"/></g><g transform="translate(-70,-134) scale(1,1)"><g><path fill="none" stroke="none"/><text fill="#000000" stroke="none" font-family="Arial" font-size="13px" font-style="normal" font-weight="bold" text-decoration="none" x="337.1845703125" y="747.5">SettingActivity</text></g></g><g transform="translate(-70,-134) scale(1,1)"><g><path fill="none" stroke="none"/><text fill="#000000" stroke="none" font-family="Arial" font-size="13px" font-style="normal" font-weight="normal" text-decoration="none" x="338.285888671875" y="762.5">(from Activity)</text></g></g><g transform="translate(-70,-134) scale(1,1)"><rect fill="#C0C0C0" stroke="none" x="247" y="647" width="88.78369140625" height="59" opacity="0.2"/></g><g transform="translate(-70,-134) scale(1,1)"><rect fill="#ffffff" stroke="none" x="240" y="640" width="88.78369140625" height="59"/></g><g transform="translate(-70,-134) scale(1,1)"><path fill="none" stroke="#000000" d="M 240 640 L 328.78369140625 640 L 328.78369140625 699 L 240 699 L 240 640 Z Z" stroke-miterlimit="10"/></g><g transform="translate(-70,-134) scale(1,1)"><path fill="none" stroke="#000000" d="M 240 680 L 328.78369140625 680" stroke-miterlimit="10"/></g><g transform="translate(-70,-134) scale(1,1)"><path fill="none" stroke="#000000" d="M 240 690 L 328.78369140625 690" stroke-miterlimit="10"/></g><g transform="translate(-70,-134) scale(1,1)"><g><path fill="none" stroke="none"/><text fill="#000000" stroke="none" font-family="Arial" font-size="13px" font-style="normal" font-weight="bold" text-decoration="none" x="250.796875" y="659.5">PlanActivity</text></g></g><g transform="translate(-70,-134) scale(1,1)"><g><path fill="none" stroke="none"/><text fill="#000000" stroke="none" font-family="Arial" font-size="13px" font-style="normal" font-weight="normal" text-decoration="none" x="244.67138671875" y="674.5">(from Activity)</text></g></g><g transform="translate(-70,-134) scale(1,1)"><rect fill="#C0C0C0" stroke="none" x="687" y="727" width="108.6962890625" height="59" opacity="0.2"/></g><g transform="translate(-70,-134) scale(1,1)"><rect fill="#ffffff" stroke="none" x="680" y="720" width="108.6962890625" height="59"/></g><g transform="translate(-70,-134) scale(1,1)"><path fill="none" stroke="#000000" d="M 680 720 L 788.6962890625 720 L 788.6962890625 779 L 680 779 L 680 720 Z Z" stroke-miterlimit="10"/></g><g transform="translate(-70,-134) scale(1,1)"><path fill="none" stroke="#000000" d="M 680 760 L 788.6962890625 760" stroke-miterlimit="10"/></g><g transform="translate(-70,-134) scale(1,1)"><path fill="none" stroke="#000000" d="M 680 770 L 788.6962890625 770" stroke-miterlimit="10"/></g><g transform="translate(-70,-134) scale(1,1)"><g><path fill="none" stroke="none"/><text fill="#000000" stroke="none" font-family="Arial" font-size="13px" font-style="normal" font-weight="bold" text-decoration="none" x="689.187744140625" y="739.5">LiveLIneActivity</text></g></g><g transform="translate(-70,-134) scale(1,1)"><g><path fill="none" stroke="none"/><text fill="#000000" stroke="none" font-family="Arial" font-size="13px" font-style="normal" font-weight="normal" text-decoration="none" x="694.627685546875" y="754.5">(from Activity)</text></g></g><g transform="translate(-70,-134) scale(1,1)"><rect fill="#C0C0C0" stroke="none" x="271" y="279" width="88.78369140625" height="59" opacity="0.2"/></g><g transform="translate(-70,-134) scale(1,1)"><rect fill="#ffffff" stroke="none" x="264" y="272" width="88.78369140625" height="59"/></g><g transform="translate(-70,-134) scale(1,1)"><path fill="none" stroke="#000000" d="M 264 272 L 352.78369140625 272 L 352.78369140625 331 L 264 331 L 264 272 Z Z" stroke-miterlimit="10"/></g><g transform="translate(-70,-134) scale(1,1)"><path fill="none" stroke="#000000" d="M 264 312 L 352.78369140625 312" stroke-miterlimit="10"/></g><g transform="translate(-70,-134) scale(1,1)"><path fill="none" stroke="#000000" d="M 264 322 L 352.78369140625 322" stroke-miterlimit="10"/></g><g transform="translate(-70,-134) scale(1,1)"><g><path fill="none" stroke="none"/><text fill="#000000" stroke="none" font-family="Arial" font-size="13px" font-style="normal" font-weight="bold" text-decoration="none" x="274.07958984375" y="291.5">StartActivity</text></g></g><g transform="translate(-70,-134) scale(1,1)"><g><path fill="none" stroke="none"/><text fill="#000000" stroke="none" font-family="Arial" font-size="13px" font-style="normal" font-weight="normal" text-decoration="none" x="268.67138671875" y="306.5">(from Activity)</text></g></g><g transform="translate(-70,-134) scale(1,1)"><rect fill="#C0C0C0" stroke="none" x="871" y="391" width="100.01904296875" height="59" opacity="0.2"/></g><g transform="translate(-70,-134) scale(1,1)"><rect fill="#ffffff" stroke="none" x="864" y="384" width="100.01904296875" height="59"/></g><g transform="translate(-70,-134) scale(1,1)"><path fill="none" stroke="#000000" d="M 864 384 L 964.01904296875 384 L 964.01904296875 443 L 864 443 L 864 384 Z Z" stroke-miterlimit="10"/></g><g transform="translate(-70,-134) scale(1,1)"><path fill="none" stroke="#000000" d="M 864 424 L 964.01904296875 424" stroke-miterlimit="10"/></g><g transform="translate(-70,-134) scale(1,1)"><path fill="none" stroke="#000000" d="M 864 434 L 964.01904296875 434" stroke-miterlimit="10"/></g><g transform="translate(-70,-134) scale(1,1)"><g><path fill="none" stroke="none"/><text fill="#000000" stroke="none" font-family="Arial" font-size="13px" font-style="normal" font-weight="bold" text-decoration="none" x="872.114990234375" y="403.5">MyMapActivity</text></g></g><g transform="translate(-70,-134) scale(1,1)"><g><path fill="none" stroke="none"/><text fill="#000000" stroke="none" font-family="Arial" font-size="13px" font-style="normal" font-weight="normal" text-decoration="none" x="874.2890625" y="418.5">(from Activity)</text></g></g><g transform="translate(-70,-134) scale(1,1)"><rect fill="#C0C0C0" stroke="none" x="391" y="807" width="158.30322265625" height="59" opacity="0.2"/></g><g transform="translate(-70,-134) scale(1,1)"><rect fill="#ffffff" stroke="none" x="384" y="800" width="158.30322265625" height="59"/></g><g transform="translate(-70,-134) scale(1,1)"><path fill="none" stroke="#000000" d="M 384 800 L 542.30322265625 800 L 542.30322265625 859 L 384 859 L 384 800 Z Z" stroke-miterlimit="10"/></g><g transform="translate(-70,-134) scale(1,1)"><path fill="none" stroke="#000000" d="M 384 840 L 542.30322265625 840" stroke-miterlimit="10"/></g><g transform="translate(-70,-134) scale(1,1)"><path fill="none" stroke="#000000" d="M 384 850 L 542.30322265625 850" stroke-miterlimit="10"/></g><g transform="translate(-70,-134) scale(1,1)"><g><path fill="none" stroke="none"/><text fill="#000000" stroke="none" font-family="Arial" font-size="13px" font-style="normal" font-weight="bold" text-decoration="none" x="394.13671875" y="819.5">TencentLocationService</text></g></g><g transform="translate(-70,-134) scale(1,1)"><g><path fill="none" stroke="none"/><text fill="#000000" stroke="none" font-family="Arial" font-size="13px" font-style="normal" font-weight="normal" text-decoration="none" x="422.342529296875" y="834.5">(from Service)</text></g></g><g transform="translate(-70,-134) scale(1,1)"><rect fill="#C0C0C0" stroke="none" x="639" y="183" width="110.130859375" height="59" opacity="0.2"/></g><g transform="translate(-70,-134) scale(1,1)"><rect fill="#ffffff" stroke="none" x="632" y="176" width="110.130859375" height="59"/></g><g transform="translate(-70,-134) scale(1,1)"><path fill="none" stroke="#000000" d="M 632 176 L 742.130859375 176 L 742.130859375 235 L 632 235 L 632 176 Z Z" stroke-miterlimit="10"/></g><g transform="translate(-70,-134) scale(1,1)"><path fill="none" stroke="#000000" d="M 632 216 L 742.130859375 216" stroke-miterlimit="10"/></g><g transform="translate(-70,-134) scale(1,1)"><path fill="none" stroke="#000000" d="M 632 226 L 742.130859375 226" stroke-miterlimit="10"/></g><g transform="translate(-70,-134) scale(1,1)"><g><path fill="none" stroke="none"/><text fill="#000000" stroke="none" font-family="Arial" font-size="13px" font-style="normal" font-weight="bold" text-decoration="none" x="642.62548828125" y="195.5">PlanFragement</text></g></g><g transform="translate(-70,-134) scale(1,1)"><g><path fill="none" stroke="none"/><text fill="#000000" stroke="none" font-family="Arial" font-size="13px" font-style="normal" font-weight="normal" text-decoration="none" x="636.5" y="210.5">(from Fragement)</text></g></g><g transform="translate(-70,-134) scale(1,1)"><rect fill="#C0C0C0" stroke="none" x="159" y="775" width="119.5126953125" height="59" opacity="0.2"/></g><g transform="translate(-70,-134) scale(1,1)"><rect fill="#ffffff" stroke="none" x="152" y="768" width="119.5126953125" height="59"/></g><g transform="translate(-70,-134) scale(1,1)"><path fill="none" stroke="#000000" d="M 152 768 L 271.5126953125 768 L 271.5126953125 827 L 152 827 L 152 768 Z Z" stroke-miterlimit="10"/></g><g transform="translate(-70,-134) scale(1,1)"><path fill="none" stroke="#000000" d="M 152 808 L 271.5126953125 808" stroke-miterlimit="10"/></g><g transform="translate(-70,-134) scale(1,1)"><path fill="none" stroke="#000000" d="M 152 818 L 271.5126953125 818" stroke-miterlimit="10"/></g><g transform="translate(-70,-134) scale(1,1)"><g><path fill="none" stroke="none"/><text fill="#000000" stroke="none" font-family="Arial" font-size="13px" font-style="normal" font-weight="bold" text-decoration="none" x="160.089599609375" y="787.5">SettingFragement</text></g></g><g transform="translate(-70,-134) scale(1,1)"><g><path fill="none" stroke="none"/><text fill="#000000" stroke="none" font-family="Arial" font-size="13px" font-style="normal" font-weight="normal" text-decoration="none" x="161.19091796875" y="802.5">(from Fragement)</text></g></g><g transform="translate(-70,-134) scale(1,1)"><rect fill="#C0C0C0" stroke="none" x="791" y="215" width="111.578125" height="59" opacity="0.2"/></g><g transform="translate(-70,-134) scale(1,1)"><rect fill="#ffffff" stroke="none" x="784" y="208" width="111.578125" height="59"/></g><g transform="translate(-70,-134) scale(1,1)"><path fill="none" stroke="#000000" d="M 784 208 L 895.578125 208 L 895.578125 267 L 784 267 L 784 208 Z Z" stroke-miterlimit="10"/></g><g transform="translate(-70,-134) scale(1,1)"><path fill="none" stroke="#000000" d="M 784 248 L 895.578125 248" stroke-miterlimit="10"/></g><g transform="translate(-70,-134) scale(1,1)"><path fill="none" stroke="#000000" d="M 784 258 L 895.578125 258" stroke-miterlimit="10"/></g><g transform="translate(-70,-134) scale(1,1)"><g><path fill="none" stroke="none"/><text fill="#000000" stroke="none" font-family="Arial" font-size="13px" font-style="normal" font-weight="bold" text-decoration="none" x="791.02001953125" y="227.5">HomeFragement</text></g></g><g transform="translate(-70,-134) scale(1,1)"><g><path fill="none" stroke="none"/><text fill="#000000" stroke="none" font-family="Arial" font-size="13px" font-style="normal" font-weight="normal" text-decoration="none" x="789.2236328125" y="242.5">(from Fragement)</text></g></g><g transform="translate(-70,-134) scale(1,1)"><rect fill="#C0C0C0" stroke="none" x="847" y="295" width="120.2490234375" height="59" opacity="0.2"/></g><g transform="translate(-70,-134) scale(1,1)"><rect fill="#ffffff" stroke="none" x="840" y="288" width="120.2490234375" height="59"/></g><g transform="translate(-70,-134) scale(1,1)"><path fill="none" stroke="#000000" d="M 840 288 L 960.2490234375 288 L 960.2490234375 347 L 840 347 L 840 288 Z Z" stroke-miterlimit="10"/></g><g transform="translate(-70,-134) scale(1,1)"><path fill="none" stroke="#000000" d="M 840 328 L 960.2490234375 328" stroke-miterlimit="10"/></g><g transform="translate(-70,-134) scale(1,1)"><path fill="none" stroke="#000000" d="M 840 338 L 960.2490234375 338" stroke-miterlimit="10"/></g><g transform="translate(-70,-134) scale(1,1)"><g><path fill="none" stroke="none"/><text fill="#000000" stroke="none" font-family="Arial" font-size="13px" font-style="normal" font-weight="bold" text-decoration="none" x="847.740478515625" y="307.5">RecordFragement</text></g></g><g transform="translate(-70,-134) scale(1,1)"><g><path fill="none" stroke="none"/><text fill="#000000" stroke="none" font-family="Arial" font-size="13px" font-style="normal" font-weight="normal" text-decoration="none" x="849.55908203125" y="322.5">(from Fragement)</text></g></g><g transform="translate(-70,-134) scale(1,1)"><rect fill="#C0C0C0" stroke="none" x="87" y="463" width="124.578125" height="59" opacity="0.2"/></g><g transform="translate(-70,-134) scale(1,1)"><rect fill="#ffffff" stroke="none" x="80" y="456" width="124.578125" height="59"/></g><g transform="translate(-70,-134) scale(1,1)"><path fill="none" stroke="#000000" d="M 80 456 L 204.578125 456 L 204.578125 515 L 80 515 L 80 456 Z Z" stroke-miterlimit="10"/></g><g transform="translate(-70,-134) scale(1,1)"><path fill="none" stroke="#000000" d="M 80 496 L 204.578125 496" stroke-miterlimit="10"/></g><g transform="translate(-70,-134) scale(1,1)"><path fill="none" stroke="#000000" d="M 80 506 L 204.578125 506" stroke-miterlimit="10"/></g><g transform="translate(-70,-134) scale(1,1)"><g><path fill="none" stroke="none"/><text fill="#000000" stroke="none" font-family="Arial" font-size="13px" font-style="normal" font-weight="bold" text-decoration="none" x="88.0927734375" y="475.5">FragementAdapter</text></g></g><g transform="translate(-70,-134) scale(1,1)"><g><path fill="none" stroke="none"/><text fill="#000000" stroke="none" font-family="Arial" font-size="13px" font-style="normal" font-weight="normal" text-decoration="none" x="100.38818359375" y="490.5">(from Adapter)</text></g></g><g transform="translate(-70,-134) scale(1,1)"><rect fill="#C0C0C0" stroke="none" x="127" y="535" width="77.6181640625" height="59" opacity="0.2"/></g><g transform="translate(-70,-134) scale(1,1)"><rect fill="#ffffff" stroke="none" x="120" y="528" width="77.6181640625" height="59"/></g><g transform="translate(-70,-134) scale(1,1)"><path fill="none" stroke="#000000" d="M 120 528 L 197.6181640625 528 L 197.6181640625 587 L 120 587 L 120 528 Z Z" stroke-miterlimit="10"/></g><g transform="translate(-70,-134) scale(1,1)"><path fill="none" stroke="#000000" d="M 120 568 L 197.6181640625 568" stroke-miterlimit="10"/></g><g transform="translate(-70,-134) scale(1,1)"><path fill="none" stroke="#000000" d="M 120 578 L 197.6181640625 578" stroke-miterlimit="10"/></g><g transform="translate(-70,-134) scale(1,1)"><g><path fill="none" stroke="none"/><text fill="#000000" stroke="none" font-family="Arial" font-size="13px" font-style="normal" font-weight="bold" text-decoration="none" x="132.793212890625" y="547.5">Constant</text></g></g><g transform="translate(-70,-134) scale(1,1)"><g><path fill="none" stroke="none"/><text fill="#000000" stroke="none" font-family="Arial" font-size="13px" font-style="normal" font-weight="normal" text-decoration="none" x="124.5" y="562.5">(from Tools)</text></g></g><g transform="translate(-70,-134) scale(1,1)"><rect fill="#C0C0C0" stroke="none" x="231" y="863" width="112.04150390625" height="59" opacity="0.2"/></g><g transform="translate(-70,-134) scale(1,1)"><rect fill="#ffffff" stroke="none" x="224" y="856" width="112.04150390625" height="59"/></g><g transform="translate(-70,-134) scale(1,1)"><path fill="none" stroke="#000000" d="M 224 856 L 336.04150390625 856 L 336.04150390625 915 L 224 915 L 224 856 Z Z" stroke-miterlimit="10"/></g><g transform="translate(-70,-134) scale(1,1)"><path fill="none" stroke="#000000" d="M 224 896 L 336.04150390625 896" stroke-miterlimit="10"/></g><g transform="translate(-70,-134) scale(1,1)"><path fill="none" stroke="#000000" d="M 224 906 L 336.04150390625 906" stroke-miterlimit="10"/></g><g transform="translate(-70,-134) scale(1,1)"><g><path fill="none" stroke="none"/><text fill="#000000" stroke="none" font-family="Arial" font-size="13px" font-style="normal" font-weight="bold" text-decoration="none" x="232.679931640625" y="875.5">TencentLocation</text></g></g><g transform="translate(-70,-134) scale(1,1)"><g><path fill="none" stroke="none"/><text fill="#000000" stroke="none" font-family="Arial" font-size="13px" font-style="normal" font-weight="normal" text-decoration="none" x="245.711669921875" y="890.5">(from Tools)</text></g></g><g transform="translate(-70,-134) scale(1,1)"><rect fill="#C0C0C0" stroke="none" x="135" y="391" width="77.6181640625" height="59" opacity="0.2"/></g><g transform="translate(-70,-134) scale(1,1)"><rect fill="#ffffff" stroke="none" x="128" y="384" width="77.6181640625" height="59"/></g><g transform="translate(-70,-134) scale(1,1)"><path fill="none" stroke="#000000" d="M 128 384 L 205.6181640625 384 L 205.6181640625 443 L 128 443 L 128 384 Z Z" stroke-miterlimit="10"/></g><g transform="translate(-70,-134) scale(1,1)"><path fill="none" stroke="#000000" d="M 128 424 L 205.6181640625 424" stroke-miterlimit="10"/></g><g transform="translate(-70,-134) scale(1,1)"><path fill="none" stroke="#000000" d="M 128 434 L 205.6181640625 434" stroke-miterlimit="10"/></g><g transform="translate(-70,-134) scale(1,1)"><g><path fill="none" stroke="none"/><text fill="#000000" stroke="none" font-family="Arial" font-size="13px" font-style="normal" font-weight="bold" text-decoration="none" x="155.24365234375" y="403.5">App</text></g></g><g transform="translate(-70,-134) scale(1,1)"><g><path fill="none" stroke="none"/><text fill="#000000" stroke="none" font-family="Arial" font-size="13px" font-style="normal" font-weight="normal" text-decoration="none" x="132.5" y="418.5">(from Tools)</text></g></g><g transform="translate(-70,-134) scale(1,1)"><path fill="none" stroke="#000000" d="M 313 332 L 335 471" stroke-miterlimit="10"/></g><g transform="translate(-70,-134) scale(1,1)"><path fill="#FFFFFF" stroke="none" d="M 323.5070639522711 452.24067109401796 L 335 471 L 340.1381156648363 449.60841830497884"/></g><g transform="translate(-70,-134) scale(1,1)"><path fill="none" stroke="#000000" d="M 323.5070639522711 452.24067109401796 L 335 471 L 340.1381156648363 449.60841830497884 L 323.5070639522711 452.24067109401796" stroke-miterlimit="10"/></g><g transform="translate(-70,-134) scale(1,1)"><path fill="none" stroke="#000000" d="M 686 719 L 386 530" stroke-miterlimit="10"/></g><g transform="translate(-70,-134) scale(1,1)"><path fill="#FFFFFF" stroke="none" d="M 407.68476895342974 533.7109022402066 L 386 530 L 398.7094430370633 547.9574513138041"/></g><g transform="translate(-70,-134) scale(1,1)"><path fill="none" stroke="#000000" d="M 407.68476895342974 533.7109022402066 L 386 530 L 398.7094430370633 547.9574513138041 L 407.68476895342974 533.7109022402066" stroke-miterlimit="10"/></g><g transform="translate(-70,-134) scale(1,1)"><path fill="none" stroke="#000000" d="M 374 727 L 345 532" stroke-miterlimit="10"/></g><g transform="translate(-70,-134) scale(1,1)"><path fill="#FFFFFF" stroke="none" d="M 356.31731163085766 550.8658012671091 L 345 532 L 339.66241179049024 553.3426838074714"/></g><g transform="translate(-70,-134) scale(1,1)"><path fill="none" stroke="#000000" d="M 356.31731163085766 550.8658012671091 L 345 532 L 339.66241179049024 553.3426838074714 L 356.31731163085766 550.8658012671091" stroke-miterlimit="10"/></g><g transform="translate(-70,-134) scale(1,1)"><path fill="none" stroke="#000000" d="M 294 639 L 330 532" stroke-miterlimit="10"/></g><g transform="translate(-70,-134) scale(1,1)"><path fill="#FFFFFF" stroke="none" d="M 331.4980829497116 553.9489349963907 L 330 532 L 315.5390638367505 548.5795453882916"/></g><g transform="translate(-70,-134) scale(1,1)"><path fill="none" stroke="#000000" d="M 331.4980829497116 553.9489349963907 L 330 532 L 315.5390638367505 548.5795453882916 L 331.4980829497116 553.9489349963907" stroke-miterlimit="10"/></g><g transform="translate(-70,-134) scale(1,1)"><path fill="none" stroke="#000000" d="M 863 421 L 386 494" stroke-miterlimit="10"/></g><g transform="translate(-70,-134) scale(1,1)"><path fill="#FFFFFF" stroke="none" d="M 404.8178096088404 482.60306876718846 L 386 494 L 407.3650481409262 499.2473534220506"/></g><g transform="translate(-70,-134) scale(1,1)"><path fill="none" stroke="#000000" d="M 404.8178096088404 482.60306876718846 L 386 494 L 407.3650481409262 499.2473534220506 L 404.8178096088404 482.60306876718846" stroke-miterlimit="10"/></g><g transform="translate(-70,-134) scale(1,1)"><path fill="none" stroke="#000000" d="M 354 274 L 479 200" stroke-miterlimit="10"/></g><g transform="translate(-70,-134) scale(1,1)"><path fill="none" stroke="#000000" d="M 472.3992981753688 208.7994735877955 L 479 200 L 468.11043153441074 201.55476642401499" stroke-miterlimit="10"/></g><g transform="translate(-70,-134) scale(1,1)"><path fill="none" stroke="#000000" d="M 479 183 L 210 243" stroke-miterlimit="10"/></g><g transform="translate(-70,-134) scale(1,1)"><path fill="none" stroke="#000000" d="M 219.0025266952492 236.67904175766637 L 210 243 L 220.83534011077475 244.89615523727252" stroke-miterlimit="10"/></g><g transform="translate(-70,-134) scale(1,1)"><path fill="none" stroke="#000000" d="M 551 204 L 675 351" stroke-miterlimit="10"/></g><g transform="translate(-70,-134) scale(1,1)"><path fill="none" stroke="#000000" d="M 665.2297153269352 345.9461363881408 L 675 351 L 671.6649866846905 340.5177442224153" stroke-miterlimit="10"/></g><g transform="translate(-70,-134) scale(1,1)"><path fill="none" stroke="#000000" d="M 655 368 L 583 347" stroke-miterlimit="10"/></g><g transform="translate(-70,-134) scale(1,1)"><path fill="none" stroke="#000000" d="M 593.9348328350037 345.80441191435943 L 583 347 L 591.5775028916347 353.8866860059101" stroke-miterlimit="10"/></g><g transform="translate(-70,-134) scale(1,1)"><path fill="none" stroke="#000000" d="M 703 412 L 731 719" stroke-miterlimit="10"/></g><g transform="translate(-70,-134) scale(1,1)"><path fill="none" stroke="#000000" d="M 725.8848242863874 709.2616748144834 L 731 719 L 734.2690603420223 708.4969887898652" stroke-miterlimit="10"/></g><g transform="translate(-70,-134) scale(1,1)"><path fill="none" stroke="#000000" d="M 655 412 L 327 639" stroke-miterlimit="10"/></g><g transform="translate(-70,-134) scale(1,1)"><path fill="none" stroke="#000000" d="M 332.96103827357047 629.7552164600231 L 327 639 L 337.75213971787366 636.6780414544347" stroke-miterlimit="10"/></g><g transform="translate(-70,-134) scale(1,1)"><path fill="none" stroke="#000000" d="M 673 412 L 404 727" stroke-miterlimit="10"/></g><g transform="translate(-70,-134) scale(1,1)"><path fill="none" stroke="#000000" d="M 407.39850678495185 716.5381573500346 L 404 727 L 413.80074707504514 722.0054673120508" stroke-miterlimit="10"/></g><g transform="translate(-70,-134) scale(1,1)"><path fill="none" stroke="#000000" d="M 746 406 L 863 469" stroke-miterlimit="10"/></g><g transform="translate(-70,-134) scale(1,1)"><path fill="none" stroke="#000000" d="M 852.0563268667663 467.8882363772193 L 863 469 L 856.0477901131462 460.4755189196566" stroke-miterlimit="10"/></g><g transform="translate(-70,-134) scale(1,1)"><path fill="none" stroke="#000000" d="M 746 388 L 863 405" stroke-miterlimit="10"/></g><g transform="translate(-70,-134) scale(1,1)"><path fill="none" stroke="#000000" d="M 852.3376488939765 407.70449050504504 L 863 405 L 853.5482156537669 399.37294280531086" stroke-miterlimit="10"/></g><g transform="translate(-70,-134) scale(1,1)"><path fill="none" stroke="#000000" d="M 718 412 L 868 671" stroke-miterlimit="10"/></g><g transform="translate(-70,-134) scale(1,1)"><path fill="none" stroke="#000000" d="M 859.2640865868052 664.3154045120768 L 868 671 L 866.5494991846709 660.0960535866719" stroke-miterlimit="10"/></g><g transform="translate(-70,-134) scale(1,1)"><path fill="none" stroke="#000000" d="M 327 769 L 273 782" stroke-miterlimit="10"/></g><g transform="translate(-70,-134) scale(1,1)"><path fill="none" stroke="#000000" d="M 281.895138923986 775.528794275949 L 273 782 L 283.8656465026765 783.7139796028173" stroke-miterlimit="10"/></g><g transform="translate(-70,-134) scale(1,1)"><path fill="none" stroke="#000000" d="M 698 351 L 689 236" stroke-miterlimit="10"/></g><g transform="translate(-70,-134) scale(1,1)"><path fill="none" stroke="#000000" d="M 693.989600789889 245.8032588437488 L 689 236 L 685.5962297478025 246.46013136008602" stroke-miterlimit="10"/></g><g transform="translate(-70,-134) scale(1,1)"><path fill="none" stroke="#000000" d="M 729 351 L 809 268" stroke-miterlimit="10"/></g><g transform="translate(-70,-134) scale(1,1)"><path fill="none" stroke="#000000" d="M 804.9782064543026 278.2384167074693 L 809 268 L 798.9165086288399 272.3958163937703" stroke-miterlimit="10"/></g><g transform="translate(-70,-134) scale(1,1)"><path fill="none" stroke="#000000" d="M 746 366 L 839 337" stroke-miterlimit="10"/></g><g transform="translate(-70,-134) scale(1,1)"><path fill="none" stroke="#000000" d="M 830.5512090883673 344.04399972540546 L 839 337 L 828.0449426810468 336.00666262606757" stroke-miterlimit="10"/></g><g transform="translate(-70,-134) scale(1,1)"><path fill="none" stroke="#000000" d="M 383 853 L 337 868" stroke-miterlimit="10"/></g><g transform="translate(-70,-134) scale(1,1)"><path fill="none" stroke="#000000" d="M 345.3569210163725 860.8472473042813 L 337 868 L 347.96699545581043 868.8514755852243" stroke-miterlimit="10"/></g><g transform="translate(-70,-134) scale(1,1)"><path fill="none" stroke="#000000" d="M 295 478 L 207 434" stroke-miterlimit="10"/></g><g transform="translate(-70,-134) scale(1,1)"><path fill="none" stroke="#000000" d="M 217.97232629693906 434.77977922099745 L 207 434 L 214.20721915496142 442.3099935049528" stroke-miterlimit="10"/></g><g transform="translate(-70,-134) scale(1,1)"><path fill="none" stroke="#000000" d="M 295 497 L 206 490" stroke-miterlimit="10"/></g><g transform="translate(-70,-134) scale(1,1)"><path fill="none" stroke="#000000" d="M 216.46145268015118 486.6002929801293 L 206 490 L 215.80132001899514 494.993408243399" stroke-miterlimit="10"/></g><g transform="translate(-70,-134) scale(1,1)"><path fill="none" stroke="#000000" d="M 295 515 L 199 545" stroke-miterlimit="10"/></g><g transform="translate(-70,-134) scale(1,1)"><path fill="none" stroke="#000000" d="M 207.44447579510094 537.9508278112991 L 199 545 L 209.95566355466357 545.9866286418995" stroke-miterlimit="10"/></g><g transform="translate(-70,-134) scale(1,1)"><rect fill="#C0C0C0" stroke="none" x="887" y="575" width="89.91357421875" height="59" opacity="0.2"/></g><g transform="translate(-70,-134) scale(1,1)"><rect fill="#ffffff" stroke="none" x="880" y="568" width="89.91357421875" height="59"/></g><g transform="translate(-70,-134) scale(1,1)"><path fill="none" stroke="#000000" d="M 880 568 L 969.91357421875 568 L 969.91357421875 627 L 880 627 L 880 568 Z Z" stroke-miterlimit="10"/></g><g transform="translate(-70,-134) scale(1,1)"><path fill="none" stroke="#000000" d="M 880 608 L 969.91357421875 608" stroke-miterlimit="10"/></g><g transform="translate(-70,-134) scale(1,1)"><path fill="none" stroke="#000000" d="M 880 618 L 969.91357421875 618" stroke-miterlimit="10"/></g><g transform="translate(-70,-134) scale(1,1)"><g><path fill="none" stroke="none"/><text fill="#000000" stroke="none" font-family="Arial" font-size="13px" font-style="normal" font-weight="bold" text-decoration="none" x="886.658203125" y="587.5">PersonalMap</text></g></g><g transform="translate(-70,-134) scale(1,1)"><g><path fill="none" stroke="none"/><text fill="#000000" stroke="none" font-family="Arial" font-size="13px" font-style="normal" font-weight="normal" text-decoration="none" x="885.236328125" y="602.5">(from Activity)</text></g></g><g transform="translate(-70,-134) scale(1,1)"><path fill="none" stroke="#000000" d="M 879 590 L 386 509" stroke-miterlimit="10"/></g><g transform="translate(-70,-134) scale(1,1)"><path fill="#FFFFFF" stroke="none" d="M 407.4213937808088 503.9876264616923 L 386 509 L 404.6914961236546 520.6029294860998"/></g><g transform="translate(-70,-134) scale(1,1)"><path fill="none" stroke="#000000" d="M 407.4213937808088 503.9876264616923 L 386 509 L 404.6914961236546 520.6029294860998 L 407.4213937808088 503.9876264616923" stroke-miterlimit="10"/></g><g transform="translate(-70,-134) scale(1,1)"><path fill="none" stroke="#000000" d="M 732 412 L 893 567" stroke-miterlimit="10"/></g><g transform="translate(-70,-134) scale(1,1)"><path fill="none" stroke="#000000" d="M 882.759243418114 562.9841682517118 L 893 567 L 888.5983134377865 556.9190697151489" stroke-miterlimit="10"/></g><g transform="translate(-70,-134) scale(1,1)"><rect fill="#C0C0C0" stroke="none" x="991" y="767" width="90.6181640625" height="59" opacity="0.2"/></g><g transform="translate(-70,-134) scale(1,1)"><rect fill="#ffffff" stroke="none" x="984" y="760" width="90.6181640625" height="59"/></g><g transform="translate(-70,-134) scale(1,1)"><path fill="none" stroke="#000000" d="M 984 760 L 1074.6181640625 760 L 1074.6181640625 819 L 984 819 L 984 760 Z Z" stroke-miterlimit="10"/></g><g transform="translate(-70,-134) scale(1,1)"><path fill="none" stroke="#000000" d="M 984 800 L 1074.6181640625 800" stroke-miterlimit="10"/></g><g transform="translate(-70,-134) scale(1,1)"><path fill="none" stroke="#000000" d="M 984 810 L 1074.6181640625 810" stroke-miterlimit="10"/></g><g transform="translate(-70,-134) scale(1,1)"><g><path fill="none" stroke="none"/><text fill="#000000" stroke="none" font-family="Arial" font-size="13px" font-style="normal" font-weight="bold" text-decoration="none" x="993.892333984375" y="779.5">LocationInfo</text></g></g><g transform="translate(-70,-134) scale(1,1)"><g><path fill="none" stroke="none"/><text fill="#000000" stroke="none" font-family="Arial" font-size="13px" font-style="normal" font-weight="normal" text-decoration="none" x="988.5" y="794.5">(from Service)</text></g></g><g transform="translate(-70,-134) scale(1,1)"><path fill="none" stroke="#000000" d="M 941 628 L 1013 759" stroke-miterlimit="10"/></g><g transform="translate(-70,-134) scale(1,1)"><path fill="none" stroke="#000000" d="M 1004.4159856367936 752.1214320231413 L 1013 759 L 1011.7940672952634 748.0663031726846" stroke-miterlimit="10"/></g><g transform="translate(-70,-134) scale(1,1)"><path fill="none" stroke="#000000" d="M 913 524 L 919 567" stroke-miterlimit="10"/></g><g transform="translate(-70,-134) scale(1,1)"><path fill="none" stroke="#000000" d="M 913.4264316683838 557.5165757211436 L 919 567 L 921.7646856537561 556.353098420859" stroke-miterlimit="10"/></g><g transform="translate(-70,-134) scale(1,1)"><rect fill="#C0C0C0" stroke="none" x="487" y="695" width="90.6181640625" height="59" opacity="0.2"/></g><g transform="translate(-70,-134) scale(1,1)"><rect fill="#ffffff" stroke="none" x="480" y="688" width="90.6181640625" height="59"/></g><g transform="translate(-70,-134) scale(1,1)"><path fill="none" stroke="#000000" d="M 480 688 L 570.6181640625 688 L 570.6181640625 747 L 480 747 L 480 688 Z Z" stroke-miterlimit="10"/></g><g transform="translate(-70,-134) scale(1,1)"><path fill="none" stroke="#000000" d="M 480 728 L 570.6181640625 728" stroke-miterlimit="10"/></g><g transform="translate(-70,-134) scale(1,1)"><path fill="none" stroke="#000000" d="M 480 738 L 570.6181640625 738" stroke-miterlimit="10"/></g><g transform="translate(-70,-134) scale(1,1)"><g><path fill="none" stroke="none"/><text fill="#000000" stroke="none" font-family="Arial" font-size="13px" font-style="normal" font-weight="bold" text-decoration="none" x="489.905029296875" y="707.5">DataService</text></g></g><g transform="translate(-70,-134) scale(1,1)"><g><path fill="none" stroke="none"/><text fill="#000000" stroke="none" font-family="Arial" font-size="13px" font-style="normal" font-weight="normal" text-decoration="none" x="484.5" y="722.5">(from Service)</text></g></g><g transform="translate(-70,-134) scale(1,1)"><path fill="none" stroke="#000000" d="M 863 519 L 572 690" stroke-miterlimit="10"/></g><g transform="translate(-70,-134) scale(1,1)"><path fill="none" stroke="#000000" d="M 578.6292034702881 681.2219785059775 L 572 690 L 582.8945532515306 688.4805562038815" stroke-miterlimit="10"/></g><g transform="translate(-70,-134) scale(1,1)"><path fill="none" stroke="#000000" d="M 879 611 L 572 703" stroke-miterlimit="10"/></g><g transform="translate(-70,-134) scale(1,1)"><path fill="none" stroke="#000000" d="M 580.5265584669975 696.0503380867216 L 572 703 L 582.9433403780306 704.1150342463644" stroke-miterlimit="10"/></g><g transform="translate(-70,-134) scale(1,1)"><path fill="none" stroke="#000000" d="M 679 741 L 572 724" stroke-miterlimit="10"/></g><g transform="translate(-70,-134) scale(1,1)"><path fill="none" stroke="#000000" d="M 582.6973054474756 721.4372561260617 L 572 724 L 581.3762707940399 729.7520036506277" stroke-miterlimit="10"/></g><g transform="translate(-70,-134) scale(1,1)"><path fill="none" stroke="#000000" d="M 330 678 L 479 708" stroke-miterlimit="10"/></g><g transform="translate(-70,-134) scale(1,1)"><path fill="none" stroke="#000000" d="M 468.20637759253276 710.1207817721354 L 479 708 L 469.8681372296191 701.8673755746066" stroke-miterlimit="10"/></g><g transform="translate(-70,-134) scale(1,1)"><path fill="none" stroke="#000000" d="M 273 805 L 383 819" stroke-miterlimit="10"/></g><g transform="translate(-70,-134) scale(1,1)"><path fill="none" stroke="#000000" d="M 372.38717813165033 821.8927516296218 L 383 819 L 373.4501173957711 813.5410859829591" stroke-miterlimit="10"/></g></g></svg>