<svg version="1.1" xmlns="http://www.w3.org/2000/svg" xmlns:xlink="http://www.w3.org/1999/xlink" width="641" height="538"><defs/><g><g transform="translate(-206,-30) scale(1,1)"><rect fill="#C0C0C0" stroke="none" x="255" y="47" width="69" height="39" opacity="0.2"/></g><g transform="translate(-206,-30) scale(1,1)"><rect fill="#FFFFB9" stroke="none" x="248" y="40" width="69" height="39"/></g><g transform="translate(-206,-30) scale(1,1)"><path fill="none" stroke="#800000" d="M 248 40 L 317 40 L 317 79 L 248 79 L 248 40 Z Z" stroke-miterlimit="10"/></g><g transform="translate(-206,-30) scale(1,1)"><g><path fill="none" stroke="none"/><text fill="#000000" stroke="none" font-family="Arial" font-size="11px" font-style="normal" font-weight="bold" text-decoration="none" x="271.5" y="57.5">用户</text></g></g><g transform="translate(-206,-30) scale(1,1)"><path fill="none" stroke="#000000" d="M 283.5 80 L 283.5 511" stroke-miterlimit="10" stroke-dasharray="3"/></g><g transform="translate(-206,-30) scale(1,1)"><rect fill="#C0C0C0" stroke="none" x="439" y="47" width="69" height="39" opacity="0.2"/></g><g transform="translate(-206,-30) scale(1,1)"><rect fill="#FFFFB9" stroke="none" x="432" y="40" width="69" height="39"/></g><g transform="translate(-206,-30) scale(1,1)"><path fill="none" stroke="#800000" d="M 432 40 L 501 40 L 501 79 L 432 79 L 432 40 Z Z" stroke-miterlimit="10"/></g><g transform="translate(-206,-30) scale(1,1)"><g><path fill="none" stroke="none"/><text fill="#000000" stroke="none" font-family="Arial" font-size="11px" font-style="normal" font-weight="bold" text-decoration="none" x="444.5" y="57.5">设置界面</text></g></g><g transform="translate(-206,-30) scale(1,1)"><path fill="none" stroke="#000000" d="M 467.5 80 L 467.5 545" stroke-miterlimit="10" stroke-dasharray="3"/></g><g transform="translate(-206,-30) scale(1,1)"><rect fill="#C0C0C0" stroke="none" x="611" y="47" width="69" height="39" opacity="0.2"/></g><g transform="translate(-206,-30) scale(1,1)"><rect fill="#FFFFB9" stroke="none" x="604" y="40" width="69" height="39"/></g><g transform="translate(-206,-30) scale(1,1)"><path fill="none" stroke="#800000" d="M 604 40 L 673 40 L 673 79 L 604 79 L 604 40 Z Z" stroke-miterlimit="10"/></g><g transform="translate(-206,-30) scale(1,1)"><g><path fill="none" stroke="none"/><text fill="#000000" stroke="none" font-family="Arial" font-size="11px" font-style="normal" font-weight="bold" text-decoration="none" x="622" y="57.5">总设置</text></g></g><g transform="translate(-206,-30) scale(1,1)"><path fill="none" stroke="#000000" d="M 639.5 80 L 639.5 558" stroke-miterlimit="10" stroke-dasharray="3"/></g><g transform="translate(-206,-30) scale(1,1)"><rect fill="#C0C0C0" stroke="none" x="759" y="47" width="85" height="39" opacity="0.2"/></g><g transform="translate(-206,-30) scale(1,1)"><rect fill="#FFFFB9" stroke="none" x="752" y="40" width="85" height="39"/></g><g transform="translate(-206,-30) scale(1,1)"><path fill="none" stroke="#800000" d="M 752 40 L 837 40 L 837 79 L 752 79 L 752 40 Z Z" stroke-miterlimit="10"/></g><g transform="translate(-206,-30) scale(1,1)"><g><path fill="none" stroke="none"/><text fill="#000000" stroke="none" font-family="Arial" font-size="11px" font-style="normal" font-weight="bold" text-decoration="none" x="761.5" y="57.5">高德定位服务</text></g></g><g transform="translate(-206,-30) scale(1,1)"><path fill="none" stroke="#000000" d="M 795.5 80 L 795.5 558" stroke-miterlimit="10" stroke-dasharray="3"/></g><g transform="translate(-206,-30) scale(1,1)"><path fill="none" stroke="#000000" d="M 251.42724609375 40 L 291.42724609375 40 L 291.42724609375 80 L 251.42724609375 80 L 251.42724609375 40 Z Z" stroke-miterlimit="10"/></g><g transform="translate(-206,-30) scale(1,1)"><path fill="none" stroke="#000000" d="M 251.42724609375 40 L 291.42724609375 80" stroke-miterlimit="10"/></g><g transform="translate(-206,-30) scale(1,1)"><path fill="none" stroke="#000000" d="M 291.42724609375 40 L 251.42724609375 80" stroke-miterlimit="10"/></g><g transform="translate(-206,-30) scale(1,1)"><g><path fill="none" stroke="none"/><text fill="#000000" stroke="none" font-family="Arial" font-size="13px" font-style="normal" font-weight="bold" text-decoration="none" x="247.214111328125" y="99.5">Lifeline1</text></g></g><g transform="translate(-206,-30) scale(1,1)"><path fill="none" stroke="#000000" d="M 272.5 105 L 272.5 352" stroke-miterlimit="10" stroke-dasharray="3"/></g><g transform="translate(-206,-30) scale(1,1)"><path fill="none" stroke="#800000" d="M 283 120 L 460 120" stroke-miterlimit="10"/></g><g transform="translate(-206,-30) scale(1,1)"><path fill="#800000" stroke="none" d="M 449.83732514237585 124.20951775601598 L 460 120 L 449.83732514237585 115.79048224398402"/></g><g transform="translate(-206,-30) scale(1,1)"><path fill="none" stroke="#800000" d="M 449.83732514237585 124.20951775601598 L 460 120 L 449.83732514237585 115.79048224398402 L 449.83732514237585 124.20951775601598" stroke-miterlimit="10"/></g><g transform="translate(-206,-30) scale(1,1)"><g><path fill="none" stroke="none"/><text fill="#000000" stroke="none" font-family="Arial" font-size="11px" font-style="normal" font-weight="normal" text-decoration="none" x="329.5" y="115.5">1 : 打开设置界面</text></g></g><g transform="translate(-206,-30) scale(1,1)"><rect fill="#FFFFFF" stroke="none" x="460" y="120" width="13" height="96"/></g><g transform="translate(-206,-30) scale(1,1)"><path fill="none" stroke="#000000" d="M 460 120 L 473 120 L 473 216 L 460 216 L 460 120 Z Z" stroke-miterlimit="10"/></g><g transform="translate(-206,-30) scale(1,1)"><path fill="none" stroke="#800000" d="M 473 144 L 503 144 L 503 164 L 480 164" stroke-miterlimit="10"/></g><g transform="translate(-206,-30) scale(1,1)"><path fill="#800000" stroke="none" d="M 490.16267485762415 159.790482243984 L 480 164 L 490.16267485762415 168.209517756016"/></g><g transform="translate(-206,-30) scale(1,1)"><path fill="none" stroke="#800000" d="M 490.16267485762415 159.790482243984 L 480 164 L 490.16267485762415 168.209517756016 L 490.16267485762415 159.790482243984" stroke-miterlimit="10"/></g><g transform="translate(-206,-30) scale(1,1)"><g><path fill="none" stroke="none"/><text fill="#000000" stroke="none" font-family="Arial" font-size="11px" font-style="normal" font-weight="normal" text-decoration="none" x="471.5" y="158.5">2 : 显示设置界面</text></g></g><g transform="translate(-206,-30) scale(1,1)"><rect fill="#FFFFFF" stroke="none" x="467" y="164" width="13" height="28"/></g><g transform="translate(-206,-30) scale(1,1)"><path fill="none" stroke="#000000" d="M 467 164 L 480 164 L 480 192 L 467 192 L 467 164 Z Z" stroke-miterlimit="10"/></g><g transform="translate(-206,-30) scale(1,1)"><path fill="none" stroke="#800000" d="M 283 240 L 460 240" stroke-miterlimit="10"/></g><g transform="translate(-206,-30) scale(1,1)"><path fill="#800000" stroke="none" d="M 449.83732514237585 244.209517756016 L 460 240 L 449.83732514237585 235.790482243984"/></g><g transform="translate(-206,-30) scale(1,1)"><path fill="none" stroke="#800000" d="M 449.83732514237585 244.209517756016 L 460 240 L 449.83732514237585 235.790482243984 L 449.83732514237585 244.209517756016" stroke-miterlimit="10"/></g><g transform="translate(-206,-30) scale(1,1)"><g><path fill="none" stroke="none"/><text fill="#000000" stroke="none" font-family="Arial" font-size="11px" font-style="normal" font-weight="normal" text-decoration="none" x="329.5" y="235.5">3 : 打开轨迹记录</text></g></g><g transform="translate(-206,-30) scale(1,1)"><rect fill="#FFFFFF" stroke="none" x="460" y="240" width="13" height="120"/></g><g transform="translate(-206,-30) scale(1,1)"><path fill="none" stroke="#000000" d="M 460 240 L 473 240 L 473 360 L 460 360 L 460 240 Z Z" stroke-miterlimit="10"/></g><g transform="translate(-206,-30) scale(1,1)"><path fill="none" stroke="#800000" d="M 473 264 L 632 264" stroke-miterlimit="10"/></g><g transform="translate(-206,-30) scale(1,1)"><path fill="#800000" stroke="none" d="M 621.8373251423759 268.209517756016 L 632 264 L 621.8373251423758 259.790482243984"/></g><g transform="translate(-206,-30) scale(1,1)"><path fill="none" stroke="#800000" d="M 621.8373251423759 268.209517756016 L 632 264 L 621.8373251423758 259.790482243984 L 621.8373251423759 268.209517756016" stroke-miterlimit="10"/></g><g transform="translate(-206,-30) scale(1,1)"><g><path fill="none" stroke="none"/><text fill="#000000" stroke="none" font-family="Arial" font-size="11px" font-style="normal" font-weight="normal" text-decoration="none" x="510.5" y="259.5">4 : 打开轨迹记录</text></g></g><g transform="translate(-206,-30) scale(1,1)"><rect fill="#FFFFFF" stroke="none" x="632" y="264" width="13" height="51"/></g><g transform="translate(-206,-30) scale(1,1)"><path fill="none" stroke="#000000" d="M 632 264 L 645 264 L 645 315 L 632 315 L 632 264 Z Z" stroke-miterlimit="10"/></g><g transform="translate(-206,-30) scale(1,1)"><path fill="none" stroke="#800000" d="M 645 280 L 788 280" stroke-miterlimit="10"/></g><g transform="translate(-206,-30) scale(1,1)"><path fill="#800000" stroke="none" d="M 777.8373251423759 284.209517756016 L 788 280 L 777.8373251423758 275.790482243984"/></g><g transform="translate(-206,-30) scale(1,1)"><path fill="none" stroke="#800000" d="M 777.8373251423759 284.209517756016 L 788 280 L 777.8373251423758 275.790482243984 L 777.8373251423759 284.209517756016" stroke-miterlimit="10"/></g><g transform="translate(-206,-30) scale(1,1)"><g><path fill="none" stroke="none"/><text fill="#000000" stroke="none" font-family="Arial" font-size="11px" font-style="normal" font-weight="normal" text-decoration="none" x="674.5" y="275.5">5 : 启动轨迹记录</text></g></g><g transform="translate(-206,-30) scale(1,1)"><rect fill="#FFFFFF" stroke="none" x="788" y="280" width="13" height="79"/></g><g transform="translate(-206,-30) scale(1,1)"><path fill="none" stroke="#000000" d="M 788 280 L 801 280 L 801 359 L 788 359 L 788 280 Z Z" stroke-miterlimit="10"/></g><g transform="translate(-206,-30) scale(1,1)"><path fill="none" stroke="#800000" d="M 788 344 L 473 344" stroke-miterlimit="10" stroke-dasharray="3"/></g><g transform="translate(-206,-30) scale(1,1)"><path fill="none" stroke="#800000" d="M 483.16267485762415 339.790482243984 L 473 344 L 483.16267485762415 348.209517756016" stroke-miterlimit="10"/></g><g transform="translate(-206,-30) scale(1,1)"><g><path fill="none" stroke="none"/><text fill="#000000" stroke="none" font-family="Arial" font-size="11px" font-style="normal" font-weight="normal" text-decoration="none" x="572.5" y="359.5">6 : 显示已打开位置记录</text></g></g></g></svg>