<svg version="1.1" xmlns="http://www.w3.org/2000/svg" xmlns:xlink="http://www.w3.org/1999/xlink" width="317" height="284"><defs/><g><g transform="translate(-110,-142) scale(1,1)"><path fill="#ffffff" stroke="none" d="M 128.82072727272728 233.68 C 128.82072727272728 228.886167936 132.70656959767274 225 137.5 225 C 142.29343040232726 225 146.17927272727272 228.886167936 146.17927272727272 233.68 C 146.17927272727272 238.47383206400002 142.29343040232726 242.36 137.5 242.36 C 132.70656959767274 242.36 128.82072727272728 238.47383206400002 128.82072727272728 233.68 Z"/></g><g transform="translate(-110,-142) scale(1,1)"><path fill="none" stroke="#000000" d="M 128.82072727272728 233.68 C 128.82072727272728 228.886167936 132.70656959767274 225 137.5 225 C 142.29343040232726 225 146.17927272727272 228.886167936 146.17927272727272 233.68 C 146.17927272727272 238.47383206400002 142.29343040232726 242.36 137.5 242.36 C 132.70656959767274 242.36 128.82072727272728 238.47383206400002 128.82072727272728 233.68 Z" stroke-miterlimit="10"/></g><g transform="translate(-110,-142) scale(1,1)"><path fill="none" stroke="#000000" d="M 137.5 242.36 L 137.5 259.64" stroke-miterlimit="10"/></g><g transform="translate(-110,-142) scale(1,1)"><path fill="none" stroke="#000000" d="M 128.31018181818183 248.84 L 146.68981818181817 248.84" stroke-miterlimit="10"/></g><g transform="translate(-110,-142) scale(1,1)"><path fill="none" stroke="#000000" d="M 137.5 259.64 L 124.73636363636365 277" stroke-miterlimit="10"/></g><g transform="translate(-110,-142) scale(1,1)"><path fill="none" stroke="#000000" d="M 137.5 259.64 L 150.26363636363635 277" stroke-miterlimit="10"/></g><g transform="translate(-110,-142) scale(1,1)"><g><path fill="none" stroke="none"/><text fill="#000000" stroke="none" font-family="Arial" font-size="13px" font-style="normal" font-weight="bold" text-decoration="none" x="124.5" y="297.5">用户</text></g></g><g transform="translate(-110,-142) scale(1,1)"><path fill="#C0C0C0" stroke="none" d="M 271 186.5 C 271 171.31216799999999 302.340064 159 341 159 C 379.659936 159 411 171.31216799999999 411 186.5 C 411 201.68783200000001 379.659936 214 341 214 C 302.340064 214 271 201.68783200000001 271 186.5 Z" opacity="0.2"/></g><g transform="translate(-110,-142) scale(1,1)"><path fill="#ffffff" stroke="none" d="M 264 179.5 C 264 164.31216799999999 295.340064 152 334 152 C 372.659936 152 404 164.31216799999999 404 179.5 C 404 194.68783200000001 372.659936 207 334 207 C 295.340064 207 264 194.68783200000001 264 179.5 Z"/></g><g transform="translate(-110,-142) scale(1,1)"><path fill="none" stroke="#000000" d="M 264 179.5 C 264 164.31216799999999 295.340064 152 334 152 C 372.659936 152 404 164.31216799999999 404 179.5 C 404 194.68783200000001 372.659936 207 334 207 C 295.340064 207 264 194.68783200000001 264 179.5 Z" stroke-miterlimit="10"/></g><g transform="translate(-110,-142) scale(1,1)"><g><path fill="none" stroke="none"/><text fill="#000000" stroke="none" font-family="Arial" font-size="13px" font-style="normal" font-weight="bold" text-decoration="none" x="295" y="179">室内信息查询</text></g></g><g transform="translate(-110,-142) scale(1,1)"><g><path fill="none" stroke="none"/><text fill="#000000" stroke="none" font-family="Arial" font-size="13px" font-style="normal" font-weight="normal" text-decoration="none" x="288.864990234375" y="194">(from 室内导航)</text></g></g><g transform="translate(-110,-142) scale(1,1)"><path fill="#C0C0C0" stroke="none" d="M 284 395.5 C 284 380.312168 315.340064 368 354 368 C 392.659936 368 424 380.312168 424 395.5 C 424 410.687832 392.659936 423 354 423 C 315.340064 423 284 410.687832 284 395.5 Z" opacity="0.2"/></g><g transform="translate(-110,-142) scale(1,1)"><path fill="#ffffff" stroke="none" d="M 277 388.5 C 277 373.312168 308.340064 361 347 361 C 385.659936 361 417 373.312168 417 388.5 C 417 403.687832 385.659936 416 347 416 C 308.340064 416 277 403.687832 277 388.5 Z"/></g><g transform="translate(-110,-142) scale(1,1)"><path fill="none" stroke="#000000" d="M 277 388.5 C 277 373.312168 308.340064 361 347 361 C 385.659936 361 417 373.312168 417 388.5 C 417 403.687832 385.659936 416 347 416 C 308.340064 416 277 403.687832 277 388.5 Z" stroke-miterlimit="10"/></g><g transform="translate(-110,-142) scale(1,1)"><g><path fill="none" stroke="none"/><text fill="#000000" stroke="none" font-family="Arial" font-size="13px" font-style="normal" font-weight="bold" text-decoration="none" x="321" y="388">室内导航</text></g></g><g transform="translate(-110,-142) scale(1,1)"><g><path fill="none" stroke="none"/><text fill="#000000" stroke="none" font-family="Arial" font-size="13px" font-style="normal" font-weight="normal" text-decoration="none" x="301.864990234375" y="403">(from 室内导航)</text></g></g><g transform="translate(-110,-142) scale(1,1)"><path fill="none" stroke="#000000" d="M 156 274 L 300 360" stroke-miterlimit="10"/></g><g transform="translate(-110,-142) scale(1,1)"><path fill="none" stroke="#000000" d="M 289.1165110604926 358.40323185664903 L 300 360 L 293.4332967500517 351.1751255857594" stroke-miterlimit="10"/></g><g transform="translate(-110,-142) scale(1,1)"><path fill="none" stroke="#000000" d="M 156 255 L 266 208" stroke-miterlimit="10"/></g><g transform="translate(-110,-142) scale(1,1)"><path fill="none" stroke="#000000" d="M 258.30860130156725 215.8639930100266 L 266 208 L 255.0006770389354 208.12204260812226" stroke-miterlimit="10"/></g></g></svg>