<svg version="1.1" xmlns="http://www.w3.org/2000/svg" xmlns:xlink="http://www.w3.org/1999/xlink" width="546" height="483"><defs/><g><g transform="translate(-142,-110) scale(1,1)"><path fill="#ffffff" stroke="none" d="M 376.82072727272725 393.68 C 376.82072727272725 388.886167936 380.70656959767274 385 385.5 385 C 390.29343040232726 385 394.17927272727275 388.886167936 394.17927272727275 393.68 C 394.17927272727275 398.473832064 390.29343040232726 402.36 385.5 402.36 C 380.70656959767274 402.36 376.82072727272725 398.473832064 376.82072727272725 393.68 Z"/></g><g transform="translate(-142,-110) scale(1,1)"><path fill="none" stroke="#000000" d="M 376.82072727272725 393.68 C 376.82072727272725 388.886167936 380.70656959767274 385 385.5 385 C 390.29343040232726 385 394.17927272727275 388.886167936 394.17927272727275 393.68 C 394.17927272727275 398.473832064 390.29343040232726 402.36 385.5 402.36 C 380.70656959767274 402.36 376.82072727272725 398.473832064 376.82072727272725 393.68 Z" stroke-miterlimit="10"/></g><g transform="translate(-142,-110) scale(1,1)"><path fill="none" stroke="#000000" d="M 385.5 402.36 L 385.5 419.64" stroke-miterlimit="10"/></g><g transform="translate(-142,-110) scale(1,1)"><path fill="none" stroke="#000000" d="M 376.31018181818183 408.84 L 394.68981818181817 408.84" stroke-miterlimit="10"/></g><g transform="translate(-142,-110) scale(1,1)"><path fill="none" stroke="#000000" d="M 385.5 419.64 L 372.73636363636365 437" stroke-miterlimit="10"/></g><g transform="translate(-142,-110) scale(1,1)"><path fill="none" stroke="#000000" d="M 385.5 419.64 L 398.26363636363635 437" stroke-miterlimit="10"/></g><g transform="translate(-142,-110) scale(1,1)"><g><path fill="none" stroke="none"/><text fill="#000000" stroke="none" font-family="Arial" font-size="13px" font-style="normal" font-weight="bold" text-decoration="none" x="372.5" y="457.5">用户</text></g></g><g transform="translate(-142,-110) scale(1,1)"><path fill="#C0C0C0" stroke="none" d="M 506 397.5 C 506 382.312168 537.340064 370 576 370 C 614.659936 370 646 382.312168 646 397.5 C 646 412.687832 614.659936 425 576 425 C 537.340064 425 506 412.687832 506 397.5 Z" opacity="0.2"/></g><g transform="translate(-142,-110) scale(1,1)"><path fill="#ffffff" stroke="none" d="M 499 390.5 C 499 375.312168 530.340064 363 569 363 C 607.659936 363 639 375.312168 639 390.5 C 639 405.687832 607.659936 418 569 418 C 530.340064 418 499 405.687832 499 390.5 Z"/></g><g transform="translate(-142,-110) scale(1,1)"><path fill="none" stroke="#000000" d="M 499 390.5 C 499 375.312168 530.340064 363 569 363 C 607.659936 363 639 375.312168 639 390.5 C 639 405.687832 607.659936 418 569 418 C 530.340064 418 499 405.687832 499 390.5 Z" stroke-miterlimit="10"/></g><g transform="translate(-142,-110) scale(1,1)"><g><path fill="none" stroke="none"/><text fill="#000000" stroke="none" font-family="Arial" font-size="13px" font-style="normal" font-weight="bold" text-decoration="none" x="543" y="390">新建日程</text></g></g><g transform="translate(-142,-110) scale(1,1)"><g><path fill="none" stroke="none"/><text fill="#000000" stroke="none" font-family="Arial" font-size="13px" font-style="normal" font-weight="normal" text-decoration="none" x="523.864990234375" y="405">(from 日程管理)</text></g></g><g transform="translate(-142,-110) scale(1,1)"><path fill="#C0C0C0" stroke="none" d="M 479 546.5 C 479 531.312168 510.340064 519 549 519 C 587.659936 519 619 531.312168 619 546.5 C 619 561.687832 587.659936 574 549 574 C 510.340064 574 479 561.687832 479 546.5 Z" opacity="0.2"/></g><g transform="translate(-142,-110) scale(1,1)"><path fill="#ffffff" stroke="none" d="M 472 539.5 C 472 524.312168 503.340064 512 542 512 C 580.659936 512 612 524.312168 612 539.5 C 612 554.687832 580.659936 567 542 567 C 503.340064 567 472 554.687832 472 539.5 Z"/></g><g transform="translate(-142,-110) scale(1,1)"><path fill="none" stroke="#000000" d="M 472 539.5 C 472 524.312168 503.340064 512 542 512 C 580.659936 512 612 524.312168 612 539.5 C 612 554.687832 580.659936 567 542 567 C 503.340064 567 472 554.687832 472 539.5 Z" stroke-miterlimit="10"/></g><g transform="translate(-142,-110) scale(1,1)"><g><path fill="none" stroke="none"/><text fill="#000000" stroke="none" font-family="Arial" font-size="13px" font-style="normal" font-weight="bold" text-decoration="none" x="516" y="539">结束日程</text></g></g><g transform="translate(-142,-110) scale(1,1)"><g><path fill="none" stroke="none"/><text fill="#000000" stroke="none" font-family="Arial" font-size="13px" font-style="normal" font-weight="normal" text-decoration="none" x="496.864990234375" y="554">(from 日程管理)</text></g></g><g transform="translate(-142,-110) scale(1,1)"><path fill="#C0C0C0" stroke="none" d="M 207 562.5 C 207 547.312168 238.34006399999998 535 277 535 C 315.659936 535 347 547.312168 347 562.5 C 347 577.687832 315.659936 590 277 590 C 238.34006399999998 590 207 577.687832 207 562.5 Z" opacity="0.2"/></g><g transform="translate(-142,-110) scale(1,1)"><path fill="#ffffff" stroke="none" d="M 200 555.5 C 200 540.312168 231.34006399999998 528 270 528 C 308.659936 528 340 540.312168 340 555.5 C 340 570.687832 308.659936 583 270 583 C 231.34006399999998 583 200 570.687832 200 555.5 Z"/></g><g transform="translate(-142,-110) scale(1,1)"><path fill="none" stroke="#000000" d="M 200 555.5 C 200 540.312168 231.34006399999998 528 270 528 C 308.659936 528 340 540.312168 340 555.5 C 340 570.687832 308.659936 583 270 583 C 231.34006399999998 583 200 570.687832 200 555.5 Z" stroke-miterlimit="10"/></g><g transform="translate(-142,-110) scale(1,1)"><g><path fill="none" stroke="none"/><text fill="#000000" stroke="none" font-family="Arial" font-size="13px" font-style="normal" font-weight="bold" text-decoration="none" x="244" y="555">管理日程</text></g></g><g transform="translate(-142,-110) scale(1,1)"><g><path fill="none" stroke="none"/><text fill="#000000" stroke="none" font-family="Arial" font-size="13px" font-style="normal" font-weight="normal" text-decoration="none" x="224.864990234375" y="570">(from 日程管理)</text></g></g><g transform="translate(-142,-110) scale(1,1)"><path fill="#C0C0C0" stroke="none" d="M 159 362.5 C 159 347.312168 190.34006399999998 335 229 335 C 267.659936 335 299 347.312168 299 362.5 C 299 377.687832 267.659936 390 229 390 C 190.34006399999998 390 159 377.687832 159 362.5 Z" opacity="0.2"/></g><g transform="translate(-142,-110) scale(1,1)"><path fill="#ffffff" stroke="none" d="M 152 355.5 C 152 340.312168 183.34006399999998 328 222 328 C 260.659936 328 292 340.312168 292 355.5 C 292 370.687832 260.659936 383 222 383 C 183.34006399999998 383 152 370.687832 152 355.5 Z"/></g><g transform="translate(-142,-110) scale(1,1)"><path fill="none" stroke="#000000" d="M 152 355.5 C 152 340.312168 183.34006399999998 328 222 328 C 260.659936 328 292 340.312168 292 355.5 C 292 370.687832 260.659936 383 222 383 C 183.34006399999998 383 152 370.687832 152 355.5 Z" stroke-miterlimit="10"/></g><g transform="translate(-142,-110) scale(1,1)"><g><path fill="none" stroke="none"/><text fill="#000000" stroke="none" font-family="Arial" font-size="13px" font-style="normal" font-weight="bold" text-decoration="none" x="196" y="355">日程统计</text></g></g><g transform="translate(-142,-110) scale(1,1)"><g><path fill="none" stroke="none"/><text fill="#000000" stroke="none" font-family="Arial" font-size="13px" font-style="normal" font-weight="normal" text-decoration="none" x="176.864990234375" y="370">(from 日程管理)</text></g></g><g transform="translate(-142,-110) scale(1,1)"><path fill="#C0C0C0" stroke="none" d="M 303 258.5 C 303 243.31216799999999 334.340064 231 373 231 C 411.659936 231 443 243.31216799999999 443 258.5 C 443 273.687832 411.659936 286 373 286 C 334.340064 286 303 273.687832 303 258.5 Z" opacity="0.2"/></g><g transform="translate(-142,-110) scale(1,1)"><path fill="#ffffff" stroke="none" d="M 296 251.5 C 296 236.31216799999999 327.340064 224 366 224 C 404.659936 224 436 236.31216799999999 436 251.5 C 436 266.687832 404.659936 279 366 279 C 327.340064 279 296 266.687832 296 251.5 Z"/></g><g transform="translate(-142,-110) scale(1,1)"><path fill="none" stroke="#000000" d="M 296 251.5 C 296 236.31216799999999 327.340064 224 366 224 C 404.659936 224 436 236.31216799999999 436 251.5 C 436 266.687832 404.659936 279 366 279 C 327.340064 279 296 266.687832 296 251.5 Z" stroke-miterlimit="10"/></g><g transform="translate(-142,-110) scale(1,1)"><g><path fill="none" stroke="none"/><text fill="#000000" stroke="none" font-family="Arial" font-size="13px" font-style="normal" font-weight="bold" text-decoration="none" x="340" y="251">日程规划</text></g></g><g transform="translate(-142,-110) scale(1,1)"><g><path fill="none" stroke="none"/><text fill="#000000" stroke="none" font-family="Arial" font-size="13px" font-style="normal" font-weight="normal" text-decoration="none" x="320.864990234375" y="266">(from 日程管理)</text></g></g><g transform="translate(-142,-110) scale(1,1)"><path fill="none" stroke="#000000" d="M 381 383 L 369 280" stroke-miterlimit="10"/></g><g transform="translate(-142,-110) scale(1,1)"><path fill="none" stroke="#000000" d="M 374.35728303390795 289.6072638401681 L 369 280 L 365.99480975198077 290.58153257204316" stroke-miterlimit="10"/></g><g transform="translate(-142,-110) scale(1,1)"><path fill="none" stroke="#000000" d="M 367 415 L 292 384" stroke-miterlimit="10"/></g><g transform="translate(-142,-110) scale(1,1)"><path fill="none" stroke="#000000" d="M 302.9999968933979 383.9917328822459 L 292 384 L 299.7840181313774 391.77232666132784" stroke-miterlimit="10"/></g><g transform="translate(-142,-110) scale(1,1)"><path fill="none" stroke="#000000" d="M 367 444 L 294 527" stroke-miterlimit="10"/></g><g transform="translate(-142,-110) scale(1,1)"><path fill="none" stroke="#000000" d="M 297.55077640210214 516.5888527557106 L 294 527 L 303.87257088877226 522.148985256035" stroke-miterlimit="10"/></g><g transform="translate(-142,-110) scale(1,1)"><path fill="none" stroke="#000000" d="M 404 420 L 498 403" stroke-miterlimit="10"/></g><g transform="translate(-142,-110) scale(1,1)"><path fill="none" stroke="#000000" d="M 488.74869536124805 408.9509127435215 L 498 403 L 487.25040899992246 400.6662705103094" stroke-miterlimit="10"/></g><g transform="translate(-142,-110) scale(1,1)"><path fill="none" stroke="#000000" d="M 404 437 L 504 511" stroke-miterlimit="10"/></g><g transform="translate(-142,-110) scale(1,1)"><path fill="none" stroke="#000000" d="M 493.3268139481472 508.3385906924083 L 504 511 L 498.3348183347803 501.57101719695817" stroke-miterlimit="10"/></g><g transform="translate(-142,-110) scale(1,1)"><path fill="#C0C0C0" stroke="none" d="M 599 224 C 599 214.6111584 618.2517536 207 642 207 C 665.7482464 207 685 214.6111584 685 224 C 685 233.3888416 665.7482464 241 642 241 C 618.2517536 241 599 233.3888416 599 224 Z" opacity="0.2"/></g><g transform="translate(-142,-110) scale(1,1)"><path fill="#ffffff" stroke="none" d="M 592 217 C 592 207.6111584 611.2517536 200 635 200 C 658.7482464 200 678 207.6111584 678 217 C 678 226.3888416 658.7482464 234 635 234 C 611.2517536 234 592 226.3888416 592 217 Z"/></g><g transform="translate(-142,-110) scale(1,1)"><path fill="none" stroke="#000000" d="M 592 217 C 592 207.6111584 611.2517536 200 635 200 C 658.7482464 200 678 207.6111584 678 217 C 678 226.3888416 658.7482464 234 635 234 C 611.2517536 234 592 226.3888416 592 217 Z" stroke-miterlimit="10"/></g><g transform="translate(-142,-110) scale(1,1)"><g><path fill="none" stroke="none"/><text fill="#000000" stroke="none" font-family="Arial" font-size="13px" font-style="normal" font-weight="bold" text-decoration="none" x="609" y="224">用户登陆</text></g></g><g transform="translate(-142,-110) scale(1,1)"><path fill="none" stroke="#000000" d="M 580 362 L 628 235" stroke-miterlimit="10" stroke-dasharray="3"/></g><g transform="translate(-142,-110) scale(1,1)"><path fill="none" stroke="#000000" d="M 628.3447078704186 245.99459760446337 L 628 235 L 620.4693907501679 243.01809979523478" stroke-miterlimit="10"/></g><g transform="translate(-142,-110) scale(1,1)"><g><path fill="none" stroke="none"/><text fill="#000000" stroke="none" font-family="Arial" font-size="13px" font-style="normal" font-weight="normal" text-decoration="none" x="547.5" y="293.5">«include»</text></g></g><g transform="translate(-142,-110) scale(1,1)"><path fill="#C0C0C0" stroke="none" d="M 191 178.5 C 191 163.31216799999999 222.34006399999998 151 261 151 C 299.659936 151 331 163.31216799999999 331 178.5 C 331 193.68783200000001 299.659936 206 261 206 C 222.34006399999998 206 191 193.68783200000001 191 178.5 Z" opacity="0.2"/></g><g transform="translate(-142,-110) scale(1,1)"><path fill="#ffffff" stroke="none" d="M 184 171.5 C 184 156.31216799999999 215.34006399999998 144 254 144 C 292.659936 144 324 156.31216799999999 324 171.5 C 324 186.68783200000001 292.659936 199 254 199 C 215.34006399999998 199 184 186.68783200000001 184 171.5 Z"/></g><g transform="translate(-142,-110) scale(1,1)"><path fill="none" stroke="#000000" d="M 184 171.5 C 184 156.31216799999999 215.34006399999998 144 254 144 C 292.659936 144 324 156.31216799999999 324 171.5 C 324 186.68783200000001 292.659936 199 254 199 C 215.34006399999998 199 184 186.68783200000001 184 171.5 Z" stroke-miterlimit="10"/></g><g transform="translate(-142,-110) scale(1,1)"><g><path fill="none" stroke="none"/><text fill="#000000" stroke="none" font-family="Arial" font-size="13px" font-style="normal" font-weight="bold" text-decoration="none" x="215" y="171">轨迹密度分析</text></g></g><g transform="translate(-142,-110) scale(1,1)"><g><path fill="none" stroke="none"/><text fill="#000000" stroke="none" font-family="Arial" font-size="13px" font-style="normal" font-weight="normal" text-decoration="none" x="208.864990234375" y="186">(from 轨迹记录)</text></g></g><g transform="translate(-142,-110) scale(1,1)"><path fill="#C0C0C0" stroke="none" d="M 359 154.5 C 359 139.31216799999999 390.340064 127 429 127 C 467.659936 127 499 139.31216799999999 499 154.5 C 499 169.68783200000001 467.659936 182 429 182 C 390.340064 182 359 169.68783200000001 359 154.5 Z" opacity="0.2"/></g><g transform="translate(-142,-110) scale(1,1)"><path fill="#ffffff" stroke="none" d="M 352 147.5 C 352 132.31216799999999 383.340064 120 422 120 C 460.659936 120 492 132.31216799999999 492 147.5 C 492 162.68783200000001 460.659936 175 422 175 C 383.340064 175 352 162.68783200000001 352 147.5 Z"/></g><g transform="translate(-142,-110) scale(1,1)"><path fill="none" stroke="#000000" d="M 352 147.5 C 352 132.31216799999999 383.340064 120 422 120 C 460.659936 120 492 132.31216799999999 492 147.5 C 492 162.68783200000001 460.659936 175 422 175 C 383.340064 175 352 162.68783200000001 352 147.5 Z" stroke-miterlimit="10"/></g><g transform="translate(-142,-110) scale(1,1)"><g><path fill="none" stroke="none"/><text fill="#000000" stroke="none" font-family="Arial" font-size="13px" font-style="normal" font-weight="bold" text-decoration="none" x="396" y="147">精力曲线</text></g></g><g transform="translate(-142,-110) scale(1,1)"><g><path fill="none" stroke="none"/><text fill="#000000" stroke="none" font-family="Arial" font-size="13px" font-style="normal" font-weight="normal" text-decoration="none" x="376.864990234375" y="162">(from 精力曲线)</text></g></g><g transform="translate(-142,-110) scale(1,1)"><path fill="none" stroke="#000000" d="M 381 223 L 406 176" stroke-miterlimit="10" stroke-dasharray="3"/></g><g transform="translate(-142,-110) scale(1,1)"><path fill="none" stroke="#000000" d="M 404.9439430453295 186.94918918041387 L 406 176 L 397.5110090480683 182.99550088399832" stroke-miterlimit="10"/></g><g transform="translate(-142,-110) scale(1,1)"><g><path fill="none" stroke="none"/><text fill="#000000" stroke="none" font-family="Arial" font-size="13px" font-style="normal" font-weight="normal" text-decoration="none" x="338.5" y="190.5">«include»</text></g></g><g transform="translate(-142,-110) scale(1,1)"><path fill="none" stroke="#000000" d="M 327 223 L 295 200" stroke-miterlimit="10" stroke-dasharray="3"/></g><g transform="translate(-142,-110) scale(1,1)"><path fill="none" stroke="#000000" d="M 305.7090745060982 202.51311026873822 L 295 200 L 300.79542189059964 209.34949651638837" stroke-miterlimit="10"/></g><g transform="translate(-142,-110) scale(1,1)"><g><path fill="none" stroke="none"/><text fill="#000000" stroke="none" font-family="Arial" font-size="13px" font-style="normal" font-weight="normal" text-decoration="none" x="266.5" y="241.5">«include»</text></g></g></g></svg>