<svg version="1.1" xmlns="http://www.w3.org/2000/svg" xmlns:xlink="http://www.w3.org/1999/xlink" width="520" height="419"><defs/><g><g transform="translate(-134,-118) scale(1,1)"><path fill="#ffffff" stroke="none" d="M 384.82072727272725 321.68 C 384.82072727272725 316.886167936 388.70656959767274 313 393.5 313 C 398.29343040232726 313 402.17927272727275 316.886167936 402.17927272727275 321.68 C 402.17927272727275 326.473832064 398.29343040232726 330.36 393.5 330.36 C 388.70656959767274 330.36 384.82072727272725 326.473832064 384.82072727272725 321.68 Z"/></g><g transform="translate(-134,-118) scale(1,1)"><path fill="none" stroke="#000000" d="M 384.82072727272725 321.68 C 384.82072727272725 316.886167936 388.70656959767274 313 393.5 313 C 398.29343040232726 313 402.17927272727275 316.886167936 402.17927272727275 321.68 C 402.17927272727275 326.473832064 398.29343040232726 330.36 393.5 330.36 C 388.70656959767274 330.36 384.82072727272725 326.473832064 384.82072727272725 321.68 Z" stroke-miterlimit="10"/></g><g transform="translate(-134,-118) scale(1,1)"><path fill="none" stroke="#000000" d="M 393.5 330.36 L 393.5 347.64" stroke-miterlimit="10"/></g><g transform="translate(-134,-118) scale(1,1)"><path fill="none" stroke="#000000" d="M 384.31018181818183 336.84 L 402.68981818181817 336.84" stroke-miterlimit="10"/></g><g transform="translate(-134,-118) scale(1,1)"><path fill="none" stroke="#000000" d="M 393.5 347.64 L 380.73636363636365 365" stroke-miterlimit="10"/></g><g transform="translate(-134,-118) scale(1,1)"><path fill="none" stroke="#000000" d="M 393.5 347.64 L 406.26363636363635 365" stroke-miterlimit="10"/></g><g transform="translate(-134,-118) scale(1,1)"><g><path fill="none" stroke="none"/><text fill="#000000" stroke="none" font-family="Arial" font-size="13px" font-style="normal" font-weight="bold" text-decoration="none" x="380.5" y="385.5">用户</text></g></g><g transform="translate(-134,-118) scale(1,1)"><path fill="#C0C0C0" stroke="none" d="M 159 322.5 C 159 307.312168 190.34006399999998 295 229 295 C 267.659936 295 299 307.312168 299 322.5 C 299 337.687832 267.659936 350 229 350 C 190.34006399999998 350 159 337.687832 159 322.5 Z" opacity="0.2"/></g><g transform="translate(-134,-118) scale(1,1)"><path fill="#ffffff" stroke="none" d="M 152 315.5 C 152 300.312168 183.34006399999998 288 222 288 C 260.659936 288 292 300.312168 292 315.5 C 292 330.687832 260.659936 343 222 343 C 183.34006399999998 343 152 330.687832 152 315.5 Z"/></g><g transform="translate(-134,-118) scale(1,1)"><path fill="none" stroke="#000000" d="M 152 315.5 C 152 300.312168 183.34006399999998 288 222 288 C 260.659936 288 292 300.312168 292 315.5 C 292 330.687832 260.659936 343 222 343 C 183.34006399999998 343 152 330.687832 152 315.5 Z" stroke-miterlimit="10"/></g><g transform="translate(-134,-118) scale(1,1)"><g><path fill="none" stroke="none"/><text fill="#000000" stroke="none" font-family="Arial" font-size="13px" font-style="normal" font-weight="bold" text-decoration="none" x="196" y="315">服务开关</text></g></g><g transform="translate(-134,-118) scale(1,1)"><g><path fill="none" stroke="none"/><text fill="#000000" stroke="none" font-family="Arial" font-size="13px" font-style="normal" font-weight="normal" text-decoration="none" x="176.864990234375" y="330">(from 轨迹记录)</text></g></g><g transform="translate(-134,-118) scale(1,1)"><path fill="#C0C0C0" stroke="none" d="M 463 162.5 C 463 147.31216799999999 494.340064 135 533 135 C 571.659936 135 603 147.31216799999999 603 162.5 C 603 177.68783200000001 571.659936 190 533 190 C 494.340064 190 463 177.68783200000001 463 162.5 Z" opacity="0.2"/></g><g transform="translate(-134,-118) scale(1,1)"><path fill="#ffffff" stroke="none" d="M 456 155.5 C 456 140.31216799999999 487.340064 128 526 128 C 564.659936 128 596 140.31216799999999 596 155.5 C 596 170.68783200000001 564.659936 183 526 183 C 487.340064 183 456 170.68783200000001 456 155.5 Z"/></g><g transform="translate(-134,-118) scale(1,1)"><path fill="none" stroke="#000000" d="M 456 155.5 C 456 140.31216799999999 487.340064 128 526 128 C 564.659936 128 596 140.31216799999999 596 155.5 C 596 170.68783200000001 564.659936 183 526 183 C 487.340064 183 456 170.68783200000001 456 155.5 Z" stroke-miterlimit="10"/></g><g transform="translate(-134,-118) scale(1,1)"><g><path fill="none" stroke="none"/><text fill="#000000" stroke="none" font-family="Arial" font-size="13px" font-style="normal" font-weight="bold" text-decoration="none" x="487" y="155">设置定位类型</text></g></g><g transform="translate(-134,-118) scale(1,1)"><g><path fill="none" stroke="none"/><text fill="#000000" stroke="none" font-family="Arial" font-size="13px" font-style="normal" font-weight="normal" text-decoration="none" x="480.864990234375" y="170">(from 轨迹记录)</text></g></g><g transform="translate(-134,-118) scale(1,1)"><path fill="#C0C0C0" stroke="none" d="M 511 314.5 C 511 299.312168 542.340064 287 581 287 C 619.659936 287 651 299.312168 651 314.5 C 651 329.687832 619.659936 342 581 342 C 542.340064 342 511 329.687832 511 314.5 Z" opacity="0.2"/></g><g transform="translate(-134,-118) scale(1,1)"><path fill="#ffffff" stroke="none" d="M 504 307.5 C 504 292.312168 535.340064 280 574 280 C 612.659936 280 644 292.312168 644 307.5 C 644 322.687832 612.659936 335 574 335 C 535.340064 335 504 322.687832 504 307.5 Z"/></g><g transform="translate(-134,-118) scale(1,1)"><path fill="none" stroke="#000000" d="M 504 307.5 C 504 292.312168 535.340064 280 574 280 C 612.659936 280 644 292.312168 644 307.5 C 644 322.687832 612.659936 335 574 335 C 535.340064 335 504 322.687832 504 307.5 Z" stroke-miterlimit="10"/></g><g transform="translate(-134,-118) scale(1,1)"><g><path fill="none" stroke="none"/><text fill="#000000" stroke="none" font-family="Arial" font-size="13px" font-style="normal" font-weight="bold" text-decoration="none" x="535" y="307">设置定位周期</text></g></g><g transform="translate(-134,-118) scale(1,1)"><g><path fill="none" stroke="none"/><text fill="#000000" stroke="none" font-family="Arial" font-size="13px" font-style="normal" font-weight="normal" text-decoration="none" x="528.864990234375" y="322">(from 轨迹记录)</text></g></g><g transform="translate(-134,-118) scale(1,1)"><path fill="#C0C0C0" stroke="none" d="M 511 498.5 C 511 483.312168 542.340064 471 581 471 C 619.659936 471 651 483.312168 651 498.5 C 651 513.687832 619.659936 526 581 526 C 542.340064 526 511 513.687832 511 498.5 Z" opacity="0.2"/></g><g transform="translate(-134,-118) scale(1,1)"><path fill="#ffffff" stroke="none" d="M 504 491.5 C 504 476.312168 535.340064 464 574 464 C 612.659936 464 644 476.312168 644 491.5 C 644 506.687832 612.659936 519 574 519 C 535.340064 519 504 506.687832 504 491.5 Z"/></g><g transform="translate(-134,-118) scale(1,1)"><path fill="none" stroke="#000000" d="M 504 491.5 C 504 476.312168 535.340064 464 574 464 C 612.659936 464 644 476.312168 644 491.5 C 644 506.687832 612.659936 519 574 519 C 535.340064 519 504 506.687832 504 491.5 Z" stroke-miterlimit="10"/></g><g transform="translate(-134,-118) scale(1,1)"><g><path fill="none" stroke="none"/><text fill="#000000" stroke="none" font-family="Arial" font-size="13px" font-style="normal" font-weight="bold" text-decoration="none" x="548" y="491">轨迹查询</text></g></g><g transform="translate(-134,-118) scale(1,1)"><g><path fill="none" stroke="none"/><text fill="#000000" stroke="none" font-family="Arial" font-size="13px" font-style="normal" font-weight="normal" text-decoration="none" x="528.864990234375" y="506">(from 轨迹记录)</text></g></g><g transform="translate(-134,-118) scale(1,1)"><path fill="#C0C0C0" stroke="none" d="M 247 506.5 C 247 491.312168 278.340064 479 317 479 C 355.659936 479 387 491.312168 387 506.5 C 387 521.687832 355.659936 534 317 534 C 278.340064 534 247 521.687832 247 506.5 Z" opacity="0.2"/></g><g transform="translate(-134,-118) scale(1,1)"><path fill="#ffffff" stroke="none" d="M 240 499.5 C 240 484.312168 271.340064 472 310 472 C 348.659936 472 380 484.312168 380 499.5 C 380 514.687832 348.659936 527 310 527 C 271.340064 527 240 514.687832 240 499.5 Z"/></g><g transform="translate(-134,-118) scale(1,1)"><path fill="none" stroke="#000000" d="M 240 499.5 C 240 484.312168 271.340064 472 310 472 C 348.659936 472 380 484.312168 380 499.5 C 380 514.687832 348.659936 527 310 527 C 271.340064 527 240 514.687832 240 499.5 Z" stroke-miterlimit="10"/></g><g transform="translate(-134,-118) scale(1,1)"><g><path fill="none" stroke="none"/><text fill="#000000" stroke="none" font-family="Arial" font-size="13px" font-style="normal" font-weight="bold" text-decoration="none" x="271" y="499">轨迹密度分析</text></g></g><g transform="translate(-134,-118) scale(1,1)"><g><path fill="none" stroke="none"/><text fill="#000000" stroke="none" font-family="Arial" font-size="13px" font-style="normal" font-weight="normal" text-decoration="none" x="264.864990234375" y="514">(from 轨迹记录)</text></g></g><g transform="translate(-134,-118) scale(1,1)"><path fill="none" stroke="#000000" d="M 412 323 L 506 184" stroke-miterlimit="10"/></g><g transform="translate(-134,-118) scale(1,1)"><path fill="none" stroke="#000000" d="M 503.7939963241839 194.77652763102688 L 506 184 L 496.81996407596466 190.0602756070513" stroke-miterlimit="10"/></g><g transform="translate(-134,-118) scale(1,1)"><path fill="none" stroke="#000000" d="M 412 346 L 503 324" stroke-miterlimit="10"/></g><g transform="translate(-134,-118) scale(1,1)"><path fill="none" stroke="#000000" d="M 494.11108749835887 330.4797557467985 L 503 324 L 492.13271046372193 322.29646892170945" stroke-miterlimit="10"/></g><g transform="translate(-134,-118) scale(1,1)"><path fill="none" stroke="#000000" d="M 412 366 L 538 463" stroke-miterlimit="10"/></g><g transform="translate(-134,-118) scale(1,1)"><path fill="none" stroke="#000000" d="M 527.3793291425535 460.13619998292717 L 538 463 L 532.5150640279836 453.4650392039149" stroke-miterlimit="10"/></g><g transform="translate(-134,-118) scale(1,1)"><path fill="none" stroke="#000000" d="M 375 347 L 293 330" stroke-miterlimit="10"/></g><g transform="translate(-134,-118) scale(1,1)"><path fill="none" stroke="#000000" d="M 303.8056081887811 327.94115768681837 L 293 330 L 302.0965401861765 336.1848974640875" stroke-miterlimit="10"/></g><g transform="translate(-134,-118) scale(1,1)"><path fill="#C0C0C0" stroke="none" d="M 151 232 C 151 222.6111584 170.2517536 215 194 215 C 217.7482464 215 237 222.6111584 237 232 C 237 241.3888416 217.7482464 249 194 249 C 170.2517536 249 151 241.3888416 151 232 Z" opacity="0.2"/></g><g transform="translate(-134,-118) scale(1,1)"><path fill="#ffffff" stroke="none" d="M 144 225 C 144 215.6111584 163.2517536 208 187 208 C 210.7482464 208 230 215.6111584 230 225 C 230 234.3888416 210.7482464 242 187 242 C 163.2517536 242 144 234.3888416 144 225 Z"/></g><g transform="translate(-134,-118) scale(1,1)"><path fill="none" stroke="#000000" d="M 144 225 C 144 215.6111584 163.2517536 208 187 208 C 210.7482464 208 230 215.6111584 230 225 C 230 234.3888416 210.7482464 242 187 242 C 163.2517536 242 144 234.3888416 144 225 Z" stroke-miterlimit="10"/></g><g transform="translate(-134,-118) scale(1,1)"><g><path fill="none" stroke="none"/><text fill="#000000" stroke="none" font-family="Arial" font-size="13px" font-style="normal" font-weight="bold" text-decoration="none" x="161" y="232">用户登陆</text></g></g><g transform="translate(-134,-118) scale(1,1)"><path fill="none" stroke="#000000" d="M 375 383 L 326 471" stroke-miterlimit="10"/></g><g transform="translate(-134,-118) scale(1,1)"><path fill="none" stroke="#000000" d="M 327.2661882282028 460.0731172162066 L 326 471 L 334.62180319607165 464.1688573687699" stroke-miterlimit="10"/></g><g transform="translate(-134,-118) scale(1,1)"><path fill="none" stroke="#000000" d="M 211 287 L 194 243" stroke-miterlimit="10" stroke-dasharray="3"/></g><g transform="translate(-134,-118) scale(1,1)"><path fill="none" stroke="#000000" d="M 201.58925100301263 250.9626169827056 L 194 243 L 193.73599038389474 253.99683131281935" stroke-miterlimit="10"/></g><g transform="translate(-134,-118) scale(1,1)"><g><path fill="none" stroke="none"/><text fill="#000000" stroke="none" font-family="Arial" font-size="13px" font-style="normal" font-weight="normal" text-decoration="none" x="145.5" y="281.5">«include»</text></g></g></g></svg>